<?xml version="1.0" encoding="UTF-8"?>
<svg id="_图层_2" data-name="图层 2" xmlns="http://www.w3.org/2000/svg" viewBox="0 0 75.3 107.6">
  <defs>
    <style>
      .cls-1 {
        fill: none;
        stroke: #999;
        stroke-linecap: square;
        stroke-miterlimit: 10;
      }

      .cls-2 {
        fill: #fd1212;
      }

      .cls-2, .cls-3, .cls-4, .cls-5, .cls-6, .cls-7, .cls-8, .cls-9, .cls-10, .cls-11, .cls-12, .cls-13, .cls-14, .cls-15, .cls-16, .cls-17, .cls-18, .cls-19, .cls-20, .cls-21, .cls-22, .cls-23, .cls-24, .cls-25, .cls-26, .cls-27, .cls-28, .cls-29, .cls-30, .cls-31, .cls-32, .cls-33, .cls-34, .cls-35, .cls-36, .cls-37, .cls-38, .cls-39, .cls-40, .cls-41, .cls-42, .cls-43, .cls-44, .cls-45, .cls-46, .cls-47, .cls-48, .cls-49, .cls-50, .cls-51, .cls-52, .cls-53, .cls-54, .cls-55, .cls-56, .cls-57, .cls-58, .cls-59, .cls-60, .cls-61, .cls-62, .cls-63, .cls-64, .cls-65, .cls-66, .cls-67 {
        fill-rule: evenodd;
      }

      .cls-3 {
        fill: #fd1919;
      }

      .cls-4 {
        fill: #fd0f0f;
      }

      .cls-5 {
        fill: #fd1616;
      }

      .cls-6 {
        fill: #fd0c0c;
      }

      .cls-7 {
        fill: #fd0b0b;
      }

      .cls-8 {
        fill: #fda0a0;
      }

      .cls-9 {
        fill: #fda1a1;
      }

      .cls-10 {
        fill: #fdb3b3;
      }

      .cls-11 {
        fill: #fdfdfd;
      }

      .cls-12 {
        fill: #fda5a5;
      }

      .cls-13 {
        fill: #fddddd;
      }

      .cls-14 {
        fill: #fdf3f3;
      }

      .cls-15 {
        fill: #fde0e0;
      }

      .cls-16 {
        fill: #fddcdc;
      }

      .cls-17 {
        fill: #fdf6f6;
      }

      .cls-18 {
        fill: #fd4848;
      }

      .cls-19 {
        fill: #fde3e3;
      }

      .cls-20 {
        fill: #fd4e4e;
      }

      .cls-21 {
        fill: #fde6e6;
      }

      .cls-22 {
        fill: #fdebeb;
      }

      .cls-23 {
        fill: #fdf8f8;
      }

      .cls-24 {
        fill: #fdeaea;
      }

      .cls-25 {
        fill: #fdf0f0;
      }

      .cls-26 {
        fill: #fdefef;
      }

      .cls-27 {
        fill: #fd9a9a;
      }

      .cls-28 {
        fill: #fd9d9d;
      }

      .cls-29 {
        fill: #fd9c9c;
      }

      .cls-30 {
        fill: #fd5454;
      }

      .cls-31 {
        fill: #fd3b3b;
      }

      .cls-32 {
        fill: #fdd8d8;
      }

      .cls-33 {
        fill: #fdcfcf;
      }

      .cls-34 {
        fill: #fdcccc;
      }

      .cls-35 {
        fill: #fdcaca;
      }

      .cls-36 {
        fill: #fdbfbf;
      }

      .cls-37 {
        fill: #fdbcbc;
      }

      .cls-38 {
        fill: #fdd2d2;
      }

      .cls-39 {
        fill: #fdb6b6;
      }

      .cls-40 {
        fill: #fdb9b9;
      }

      .cls-41 {
        fill: #fdaaaa;
      }

      .cls-42 {
        fill: #fdd3d3;
      }

      .cls-43 {
        fill: #fdd7d7;
      }

      .cls-44 {
        fill: #fdc1c1;
      }

      .cls-45 {
        fill: #fda6a6;
      }

      .cls-46 {
        fill: #fdaeae;
      }

      .cls-47 {
        fill: #fdacac;
      }

      .cls-48 {
        fill: #fdc6c6;
      }

      .cls-49 {
        fill: #fdc5c5;
      }

      .cls-50 {
        fill: #fd6767;
      }

      .cls-51 {
        fill: #fd9797;
      }

      .cls-52 {
        fill: #fd2222;
      }

      .cls-53 {
        fill: #fd6161;
      }

      .cls-54 {
        fill: #fd7474;
      }

      .cls-55 {
        fill: #fd6e6e;
      }

      .cls-56 {
        fill: #fd5b5b;
      }

      .cls-57 {
        fill: #fd3838;
      }

      .cls-58 {
        fill: #fd1c1c;
      }

      .cls-59 {
        fill: #fd2f2f;
      }

      .cls-60 {
        fill: #fd2828;
      }

      .cls-61 {
        fill: #fd4242;
      }

      .cls-62 {
        fill: #fd8787;
      }

      .cls-63 {
        fill: #fd3535;
      }

      .cls-64 {
        fill: #fd8080;
      }

      .cls-65 {
        fill: #fd9393;
      }

      .cls-66 {
        fill: #fd7a7a;
      }

      .cls-67 {
        fill: #fd8d8d;
      }
    </style>
  </defs>
  <g id="_图层_1-2" data-name="图层 1">
    <g>
      <polygon class="cls-67" points="1.82 .5 .67 .5 .67 54.8 1.82 54.8 1.82 .5 1.82 .5"/>
      <polygon class="cls-65" points="2.97 .5 1.82 .5 1.82 54.8 2.97 54.8 2.97 .5 2.97 .5"/>
      <polygon class="cls-51" points="4.12 .5 2.97 .5 2.97 54.8 4.12 54.8 4.12 .5 4.12 .5"/>
      <polygon class="cls-29" points="5.27 .5 4.12 .5 4.12 54.8 5.27 54.8 5.27 .5 5.27 .5"/>
      <polygon class="cls-33" points="17.97 .5 16.82 .5 16.82 54.8 17.97 54.8 17.97 .5 17.97 .5"/>
      <polygon class="cls-42" points="19.12 .5 17.97 .5 17.97 54.8 19.12 54.8 19.12 .5 19.12 .5"/>
      <polygon class="cls-32" points="20.27 .5 19.12 .5 19.12 54.8 20.27 54.8 20.27 .5 20.27 .5"/>
      <polygon class="cls-24" points="24.92 .5 23.77 .5 23.77 54.8 24.92 54.8 24.92 .5 24.92 .5"/>
      <polygon class="cls-21" points="23.77 .5 22.62 .5 22.62 54.8 23.77 54.8 23.77 .5 23.77 .5"/>
      <polygon class="cls-15" points="22.62 .5 21.42 .5 21.42 54.8 22.62 54.8 22.62 .5 22.62 .5"/>
      <polygon class="cls-16" points="21.42 .5 20.27 .5 20.27 54.8 21.42 54.8 21.42 .5 21.42 .5"/>
      <polygon class="cls-46" points="9.87 .5 8.72 .5 8.72 54.8 9.87 54.8 9.87 .5 9.87 .5"/>
      <polygon class="cls-41" points="8.72 .5 7.57 .5 7.57 54.8 8.72 54.8 8.72 .5 8.72 .5"/>
      <polygon class="cls-12" points="7.57 .5 6.42 .5 6.42 54.8 7.57 54.8 7.57 .5 7.57 .5"/>
      <polygon class="cls-39" points="12.22 .5 11.02 .5 11.02 54.8 12.22 54.8 12.22 .5 12.22 .5"/>
      <polygon class="cls-44" points="14.52 .5 13.37 .5 13.37 54.8 14.52 54.8 14.52 .5 14.52 .5"/>
      <polygon class="cls-49" points="15.67 .5 14.52 .5 14.52 54.8 15.67 54.8 15.67 .5 15.67 .5"/>
      <polygon class="cls-37" points="13.37 .5 12.22 .5 12.22 54.8 13.37 54.8 13.37 .5 13.37 .5"/>
      <polygon class="cls-10" points="11.02 .5 9.87 .5 9.87 54.8 11.02 54.8 11.02 .5 11.02 .5"/>
      <polygon class="cls-35" points="16.82 .5 15.67 .5 15.67 54.8 16.82 54.8 16.82 .5 16.82 .5"/>
      <polygon class="cls-9" points="6.42 .5 5.27 .5 5.27 54.8 6.42 54.8 6.42 .5 6.42 .5"/>
      <polygon class="cls-22" points="24.92 .5 24.92 54.8 26.07 54.8 26.07 .5 24.92 .5 24.92 .5"/>
      <polygon class="cls-60" points="68.82 .5 67.67 .5 67.67 54.8 68.82 54.8 68.82 .5 68.82 .5"/>
      <polygon class="cls-59" points="67.67 .5 66.52 .5 66.52 54.8 67.67 54.8 67.67 .5 67.67 .5"/>
      <polygon class="cls-58" points="71.12 .5 69.97 .5 69.97 54.8 71.12 54.8 71.12 .5 71.12 .5"/>
      <polygon class="cls-52" points="69.97 .5 68.82 .5 68.82 54.8 69.97 54.8 69.97 .5 69.97 .5"/>
      <polygon class="cls-7" points="74.62 .5 73.42 .5 73.42 54.8 74.62 54.8 74.62 .5 74.62 .5"/>
      <polygon class="cls-4" points="73.42 .5 72.27 .5 72.27 54.8 73.42 54.8 73.42 .5 73.42 .5"/>
      <polygon class="cls-5" points="72.27 .5 71.12 .5 71.12 54.8 72.27 54.8 72.27 .5 72.27 .5"/>
      <polygon class="cls-38" points="37.62 .5 36.47 .5 36.47 54.8 37.62 54.8 37.62 .5 37.62 .5"/>
      <polygon class="cls-34" points="38.77 .5 37.62 .5 37.62 54.8 38.77 54.8 38.77 .5 38.77 .5"/>
      <polygon class="cls-48" points="39.92 .5 38.77 .5 38.77 54.8 39.92 54.8 39.92 .5 39.92 .5"/>
      <polygon class="cls-40" points="42.22 .5 41.07 .5 41.07 54.8 42.22 54.8 42.22 .5 42.22 .5"/>
      <polygon class="cls-10" points="43.42 .5 42.22 .5 42.22 54.8 43.42 54.8 43.42 .5 43.42 .5"/>
      <polygon class="cls-45" points="45.72 .5 44.57 .5 44.57 54.8 45.72 54.8 45.72 .5 45.72 .5"/>
      <polygon class="cls-47" points="44.57 .5 43.42 .5 43.42 54.8 44.57 54.8 44.57 .5 44.57 .5"/>
      <polygon class="cls-36" points="41.07 .5 39.92 .5 39.92 54.8 41.07 54.8 41.07 .5 41.07 .5"/>
      <polygon class="cls-14" points="27.22 .5 26.07 .5 26.07 54.8 27.22 54.8 27.22 .5 27.22 .5"/>
      <polygon class="cls-17" points="30.67 .5 29.52 .5 29.52 54.8 30.67 54.8 30.67 .5 30.67 .5"/>
      <polygon class="cls-11" points="29.52 .5 28.37 .5 28.37 54.8 29.52 54.8 29.52 .5 29.52 .5"/>
      <polygon class="cls-23" points="28.37 .5 27.22 .5 27.22 54.8 28.37 54.8 28.37 .5 28.37 .5"/>
      <polygon class="cls-13" points="35.32 .5 34.17 .5 34.17 54.8 35.32 54.8 35.32 .5 35.32 .5"/>
      <polygon class="cls-19" points="34.17 .5 33.02 .5 33.02 54.8 34.17 54.8 34.17 .5 34.17 .5"/>
      <polygon class="cls-22" points="33.02 .5 31.82 .5 31.82 54.8 33.02 54.8 33.02 .5 33.02 .5"/>
      <polygon class="cls-25" points="31.82 .5 30.67 .5 30.67 54.8 31.82 54.8 31.82 .5 31.82 .5"/>
      <polygon class="cls-43" points="36.47 .5 35.32 .5 35.32 54.8 36.47 54.8 36.47 .5 36.47 .5"/>
      <polygon class="cls-53" points="58.42 .5 57.27 .5 57.27 54.8 58.42 54.8 58.42 .5 58.42 .5"/>
      <polygon class="cls-56" points="59.57 .5 58.42 .5 58.42 54.8 59.57 54.8 59.57 .5 59.57 .5"/>
      <polygon class="cls-30" points="60.72 .5 59.57 .5 59.57 54.8 60.72 54.8 60.72 .5 60.72 .5"/>
      <polygon class="cls-31" points="65.37 .5 64.22 .5 64.22 54.8 65.37 54.8 65.37 .5 65.37 .5"/>
      <polygon class="cls-61" points="64.22 .5 63.02 .5 63.02 54.8 64.22 54.8 64.22 .5 64.22 .5"/>
      <polygon class="cls-18" points="63.02 .5 61.87 .5 61.87 54.8 63.02 54.8 63.02 .5 63.02 .5"/>
      <polygon class="cls-20" points="61.87 .5 60.72 .5 60.72 54.8 61.87 54.8 61.87 .5 61.87 .5"/>
      <polygon class="cls-67" points="50.32 .5 49.17 .5 49.17 54.8 50.32 54.8 50.32 .5 50.32 .5"/>
      <polygon class="cls-65" points="49.17 .5 48.02 .5 48.02 54.8 49.17 54.8 49.17 .5 49.17 .5"/>
      <polygon class="cls-27" points="48.02 .5 46.87 .5 46.87 54.8 48.02 54.8 48.02 .5 48.02 .5"/>
      <polygon class="cls-64" points="52.62 .5 51.47 .5 51.47 54.8 52.62 54.8 52.62 .5 52.62 .5"/>
      <polygon class="cls-54" points="54.97 .5 53.82 .5 53.82 54.8 54.97 54.8 54.97 .5 54.97 .5"/>
      <polygon class="cls-55" points="56.12 .5 54.97 .5 54.97 54.8 56.12 54.8 56.12 .5 56.12 .5"/>
      <polygon class="cls-66" points="53.82 .5 52.62 .5 52.62 54.8 53.82 54.8 53.82 .5 53.82 .5"/>
      <polygon class="cls-62" points="51.47 .5 50.32 .5 50.32 54.8 51.47 54.8 51.47 .5 51.47 .5"/>
      <polygon class="cls-50" points="57.27 .5 56.12 .5 56.12 54.8 57.27 54.8 57.27 .5 57.27 .5"/>
      <polygon class="cls-8" points="46.87 .5 45.72 .5 45.72 54.8 46.87 54.8 46.87 .5 46.87 .5"/>
      <polygon class="cls-57" points="66.52 54.8 66.52 .5 65.37 .5 65.37 54.8 66.52 54.8 66.52 54.8"/>
      <polygon class="cls-29" points="5.27 54.8 4.12 54.8 4.12 61.55 5.27 63.75 5.27 54.8 5.27 54.8"/>
      <polygon class="cls-65" points="2.97 54.8 1.82 54.8 1.82 57.1 2.97 59.3 2.97 54.8 2.97 54.8"/>
      <polygon class="cls-67" points="1.82 54.8 .67 54.8 1.82 57.1 1.82 54.8 1.82 54.8"/>
      <polygon class="cls-51" points="4.12 54.8 2.97 54.8 2.97 59.3 4.12 61.55 4.12 54.8 4.12 54.8"/>
      <polygon class="cls-28" points="5.27 54.8 5.27 63.75 6.42 66 6.42 54.8 5.27 54.8 5.27 54.8"/>
      <polygon class="cls-44" points="14.52 54.8 13.37 54.8 13.37 79.35 14.52 81.6 14.52 54.8 14.52 54.8"/>
      <polygon class="cls-49" points="15.67 54.8 14.52 54.8 14.52 81.6 15.67 83.8 15.67 54.8 15.67 54.8"/>
      <polygon class="cls-39" points="12.22 54.8 11.02 54.8 11.02 74.85 12.22 77.15 12.22 54.8 12.22 54.8"/>
      <polygon class="cls-37" points="13.37 54.8 12.22 54.8 12.22 77.15 13.37 79.35 13.37 54.8 13.37 54.8"/>
      <polygon class="cls-46" points="9.87 54.8 8.72 54.8 8.72 70.4 9.87 72.65 9.87 54.8 9.87 54.8"/>
      <polygon class="cls-41" points="8.72 54.8 7.57 54.8 7.57 68.2 8.72 70.4 8.72 54.8 8.72 54.8"/>
      <polygon class="cls-12" points="7.57 54.8 6.42 54.8 6.42 66 7.57 68.2 7.57 54.8 7.57 54.8"/>
      <polygon class="cls-10" points="11.02 54.8 9.87 54.8 9.87 72.65 11.02 74.85 11.02 54.8 11.02 54.8"/>
      <polygon class="cls-24" points="24.92 54.8 23.77 54.8 23.77 99.35 24.92 101.6 24.92 54.8 24.92 54.8"/>
      <polygon class="cls-21" points="23.77 54.8 22.62 54.8 22.62 97.15 23.77 99.35 23.77 54.8 23.77 54.8"/>
      <polygon class="cls-15" points="22.62 54.8 21.42 54.8 21.42 94.85 22.62 97.15 22.62 54.8 22.62 54.8"/>
      <polygon class="cls-33" points="17.97 54.8 16.82 54.8 16.82 86 17.97 88.2 17.97 54.8 17.97 54.8"/>
      <polygon class="cls-42" points="19.12 54.8 17.97 54.8 17.97 88.2 19.12 90.4 19.12 54.8 19.12 54.8"/>
      <polygon class="cls-32" points="20.27 54.8 19.12 54.8 19.12 90.4 20.27 92.65 20.27 54.8 20.27 54.8"/>
      <polygon class="cls-16" points="21.42 54.8 20.27 54.8 20.27 92.65 21.42 94.85 21.42 54.8 21.42 54.8"/>
      <polygon class="cls-35" points="16.82 54.8 15.67 54.8 15.67 83.8 16.82 86 16.82 54.8 16.82 54.8"/>
      <polygon class="cls-13" points="35.32 54.8 34.17 54.8 34.17 107.1 35.32 107.1 35.32 54.8 35.32 54.8"/>
      <polygon class="cls-19" points="34.17 54.8 33.02 54.8 33.02 107.1 34.17 107.1 34.17 54.8 34.17 54.8"/>
      <polygon class="cls-22" points="33.02 54.8 31.82 54.8 31.82 107.1 33.02 107.1 33.02 54.8 33.02 54.8"/>
      <polygon class="cls-17" points="30.67 54.8 29.52 54.8 29.52 107.1 30.67 107.1 30.67 54.8 30.67 54.8"/>
      <polygon class="cls-11" points="29.52 54.8 28.37 54.8 28.37 107.1 29.52 107.1 29.52 54.8 29.52 54.8"/>
      <polygon class="cls-14" points="27.22 54.8 26.07 54.8 26.07 103.8 27.22 106 27.22 54.8 27.22 54.8"/>
      <polygon class="cls-23" points="28.37 54.8 27.22 54.8 27.22 106 27.82 107.1 28.37 107.1 28.37 54.8 28.37 54.8"/>
      <polygon class="cls-25" points="31.82 54.8 30.67 54.8 30.67 107.1 31.82 107.1 31.82 54.8 31.82 54.8"/>
      <polygon class="cls-45" points="45.72 54.8 44.57 54.8 44.57 107.1 45.72 107.1 45.72 54.8 45.72 54.8"/>
      <polygon class="cls-40" points="42.22 54.8 41.07 54.8 41.07 107.1 42.22 107.1 42.22 54.8 42.22 54.8"/>
      <polygon class="cls-10" points="43.42 54.8 42.22 54.8 42.22 107.1 43.42 107.1 43.42 54.8 43.42 54.8"/>
      <polygon class="cls-47" points="44.57 54.8 43.42 54.8 43.42 107.1 44.57 107.1 44.57 54.8 44.57 54.8"/>
      <polygon class="cls-38" points="37.62 54.8 36.47 54.8 36.47 107.1 37.62 107.1 37.62 54.8 37.62 54.8"/>
      <polygon class="cls-34" points="38.77 54.8 37.62 54.8 37.62 107.1 38.77 107.1 38.77 54.8 38.77 54.8"/>
      <polygon class="cls-48" points="39.92 54.8 38.77 54.8 38.77 107.1 39.92 107.1 39.92 54.8 39.92 54.8"/>
      <polygon class="cls-36" points="41.07 54.8 39.92 54.8 39.92 107.1 41.07 107.1 41.07 54.8 41.07 54.8"/>
      <polygon class="cls-43" points="36.47 54.8 35.32 54.8 35.32 107.1 36.47 107.1 36.47 54.8 36.47 54.8"/>
      <polygon class="cls-54" points="54.97 54.8 53.82 54.8 53.82 94.8 54.97 92.6 54.97 54.8 54.97 54.8"/>
      <polygon class="cls-55" points="56.12 54.8 54.97 54.8 54.97 92.6 56.12 90.35 56.12 54.8 56.12 54.8"/>
      <polygon class="cls-64" points="52.62 54.8 51.47 54.8 51.47 99.35 52.62 97.1 52.62 54.8 52.62 54.8"/>
      <polygon class="cls-66" points="53.82 54.8 52.62 54.8 52.62 97.1 53.82 94.8 53.82 54.8 53.82 54.8"/>
      <polygon class="cls-67" points="50.32 54.8 49.17 54.8 49.17 103.8 50.32 101.55 50.32 54.8 50.32 54.8"/>
      <polygon class="cls-65" points="49.17 54.8 48.02 54.8 48.02 106 49.17 103.8 49.17 54.8 49.17 54.8"/>
      <polygon class="cls-27" points="48.02 54.8 46.87 54.8 46.87 107.1 47.47 107.1 48.02 106 48.02 54.8 48.02 54.8"/>
      <polygon class="cls-62" points="51.47 54.8 50.32 54.8 50.32 101.55 51.47 99.35 51.47 54.8 51.47 54.8"/>
      <polygon class="cls-31" points="65.37 54.8 64.22 54.8 64.22 74.8 65.37 72.55 65.37 54.8 65.37 54.8"/>
      <polygon class="cls-61" points="64.22 54.8 63.02 54.8 63.02 77.1 64.22 74.8 64.22 54.8 64.22 54.8"/>
      <polygon class="cls-18" points="63.02 54.8 61.87 54.8 61.87 79.3 63.02 77.1 63.02 54.8 63.02 54.8"/>
      <polygon class="cls-53" points="58.42 54.8 57.27 54.8 57.27 88.15 58.42 85.95 58.42 54.8 58.42 54.8"/>
      <polygon class="cls-56" points="59.57 54.8 58.42 54.8 58.42 85.95 59.57 83.7 59.57 54.8 59.57 54.8"/>
      <polygon class="cls-30" points="60.72 54.8 59.57 54.8 59.57 83.7 60.72 81.5 60.72 54.8 60.72 54.8"/>
      <polygon class="cls-20" points="61.87 54.8 60.72 54.8 60.72 81.5 61.87 79.3 61.87 54.8 61.87 54.8"/>
      <polygon class="cls-50" points="57.27 54.8 56.12 54.8 56.12 90.35 57.27 88.15 57.27 54.8 57.27 54.8"/>
      <polygon class="cls-8" points="46.87 54.8 45.72 54.8 45.72 107.1 46.87 107.1 46.87 54.8 46.87 54.8"/>
      <polygon class="cls-6" points="73.42 54.8 73.42 57.05 74.62 54.8 73.42 54.8 73.42 54.8"/>
      <polygon class="cls-2" points="73.42 57.05 73.42 54.8 72.27 54.8 72.27 59.3 73.42 57.05 73.42 57.05"/>
      <polygon class="cls-58" points="71.12 54.8 69.97 54.8 69.97 63.7 71.12 61.5 71.12 54.8 71.12 54.8"/>
      <polygon class="cls-60" points="68.82 54.8 67.67 54.8 67.67 68.15 68.82 65.9 68.82 54.8 68.82 54.8"/>
      <polygon class="cls-59" points="67.67 54.8 66.52 54.8 66.52 70.35 67.67 68.15 67.67 54.8 67.67 54.8"/>
      <polygon class="cls-52" points="69.97 54.8 68.82 54.8 68.82 65.9 69.97 63.7 69.97 54.8 69.97 54.8"/>
      <polygon class="cls-3" points="72.27 59.3 72.27 54.8 71.12 54.8 71.12 61.5 72.27 59.3 72.27 59.3"/>
      <polygon class="cls-63" points="66.52 54.8 65.37 54.8 65.37 72.55 66.52 70.35 66.52 54.8 66.52 54.8"/>
      <polygon class="cls-26" points="26.07 54.8 24.92 54.8 24.92 101.6 26.07 103.8 26.07 54.8 26.07 54.8"/>
      <line class="cls-1" x1=".67" y1="54.8" x2="74.62" y2="54.8"/>
      <polyline class="cls-1" points=".67 54.8 27.82 107.1 47.47 107.1 74.62 54.8"/>
      <polyline class="cls-1" points="74.62 54.8 74.62 .5 .67 .5 .67 54.8"/>
    </g>
  </g>
</svg>