<?xml version="1.0" encoding="UTF-8"?>
<svg id="_图层_2" data-name="图层 2" xmlns="http://www.w3.org/2000/svg" viewBox="0 0 118.86 451.8">
  <defs>
    <style>
      .cls-1 {
        stroke: #666;
      }

      .cls-1, .cls-2 {
        fill: none;
        stroke-linecap: square;
        stroke-miterlimit: 10;
      }

      .cls-2 {
        stroke: #999;
      }

      .cls-3 {
        fill: #f9f9f9;
      }

      .cls-3, .cls-4, .cls-5, .cls-6, .cls-7, .cls-8, .cls-9, .cls-10, .cls-11, .cls-12, .cls-13, .cls-14, .cls-15, .cls-16, .cls-17, .cls-18, .cls-19, .cls-20, .cls-21, .cls-22, .cls-23, .cls-24, .cls-25, .cls-26, .cls-27, .cls-28, .cls-29, .cls-30, .cls-31, .cls-32, .cls-33, .cls-34, .cls-35, .cls-36, .cls-37, .cls-38, .cls-39, .cls-40, .cls-41, .cls-42, .cls-43, .cls-44, .cls-45, .cls-46, .cls-47, .cls-48, .cls-49, .cls-50, .cls-51, .cls-52, .cls-53, .cls-54, .cls-55, .cls-56, .cls-57, .cls-58, .cls-59, .cls-60, .cls-61, .cls-62, .cls-63, .cls-64, .cls-65, .cls-66, .cls-67, .cls-68, .cls-69, .cls-70, .cls-71, .cls-72, .cls-73, .cls-74, .cls-75, .cls-76, .cls-77, .cls-78, .cls-79, .cls-80, .cls-81, .cls-82, .cls-83, .cls-84, .cls-85, .cls-86, .cls-87, .cls-88, .cls-89, .cls-90, .cls-91, .cls-92, .cls-93, .cls-94, .cls-95, .cls-96, .cls-97, .cls-98, .cls-99, .cls-100, .cls-101, .cls-102, .cls-103, .cls-104, .cls-105, .cls-106, .cls-107, .cls-108, .cls-109, .cls-110, .cls-111, .cls-112, .cls-113, .cls-114, .cls-115, .cls-116, .cls-117, .cls-118, .cls-119, .cls-120, .cls-121, .cls-122, .cls-123, .cls-124, .cls-125, .cls-126, .cls-127, .cls-128, .cls-129 {
        fill-rule: evenodd;
      }

      .cls-4 {
        fill: #fd0f0f;
      }

      .cls-5 {
        fill: #fd1616;
      }

      .cls-6 {
        fill: #f8f8f8;
      }

      .cls-7 {
        fill: #fd0b0b;
      }

      .cls-8 {
        fill: #f2f2f2;
      }

      .cls-9 {
        fill: #f6f6f6;
      }

      .cls-10 {
        fill: #f3f3f3;
      }

      .cls-11 {
        fill: #9a9a9a;
      }

      .cls-12 {
        fill: #a3a3a3;
      }

      .cls-13 {
        fill: #e1e1e1;
      }

      .cls-14 {
        fill: #dfdfdf;
      }

      .cls-15 {
        fill: #dbdbdb;
      }

      .cls-16 {
        fill: #d4d4d4;
      }

      .cls-17 {
        fill: #c7c7c7;
      }

      .cls-18 {
        fill: #cfcfcf;
      }

      .cls-19 {
        fill: #cacaca;
      }

      .cls-20 {
        fill: #c4c4c4;
      }

      .cls-21 {
        fill: #d2d2d2;
      }

      .cls-22 {
        fill: #cbcbcb;
      }

      .cls-23 {
        fill: #ddd;
      }

      .cls-24 {
        fill: #bebebe;
      }

      .cls-25 {
        fill: #bbb;
      }

      .cls-26 {
        fill: #a9a9a9;
      }

      .cls-27 {
        fill: #acacac;
      }

      .cls-28 {
        fill: #cdcdcd;
      }

      .cls-29 {
        fill: #aeaeae;
      }

      .cls-30 {
        fill: #b2b2b2;
      }

      .cls-31 {
        fill: #d8d8d8;
      }

      .cls-32 {
        fill: #a5a5a5;
      }

      .cls-33 {
        fill: #a7a7a7;
      }

      .cls-34 {
        fill: #b0b0b0;
      }

      .cls-35 {
        fill: #fdfbfb;
      }

      .cls-36 {
        fill: #fda0a0;
      }

      .cls-37 {
        fill: #fda1a1;
      }

      .cls-38 {
        fill: #fdb2b2;
      }

      .cls-39 {
        fill: #fdb4b4;
      }

      .cls-40 {
        fill: #fecccc;
      }

      .cls-41 {
        fill: #fda5a5;
      }

      .cls-42 {
        fill: #fed1d1;
      }

      .cls-43 {
        fill: #feb3b3;
      }

      .cls-44 {
        fill: #feb2b2;
      }

      .cls-45 {
        fill: #fde0e0;
      }

      .cls-46 {
        fill: #fddbdb;
      }

      .cls-47 {
        fill: #fddfdf;
      }

      .cls-48 {
        fill: #fdf2f2;
      }

      .cls-49 {
        fill: #fdf7f7;
      }

      .cls-50 {
        fill: #fd4848;
      }

      .cls-51 {
        fill: #fde3e3;
      }

      .cls-52 {
        fill: #fea3a3;
      }

      .cls-53 {
        fill: #fde4e4;
      }

      .cls-54 {
        fill: #fd4e4e;
      }

      .cls-55 {
        fill: #fdebeb;
      }

      .cls-56 {
        fill: #fdf8f8;
      }

      .cls-57 {
        fill: #fdeaea;
      }

      .cls-58 {
        fill: #fdeeee;
      }

      .cls-59 {
        fill: #fec2c2;
      }

      .cls-60 {
        fill: #999;
      }

      .cls-61 {
        fill: #9c9c9c;
      }

      .cls-62 {
        fill: #a0a0a0;
      }

      .cls-63 {
        fill: #b5b5b5;
      }

      .cls-64 {
        fill: #b7b7b7;
      }

      .cls-65 {
        fill: #9e9e9e;
      }

      .cls-66 {
        fill: #b9b9b9;
      }

      .cls-67 {
        fill: #c2c2c2;
      }

      .cls-68 {
        fill: #c1c1c1;
      }

      .cls-69 {
        fill: #666;
      }

      .cls-70 {
        fill: #eaeaea;
      }

      .cls-71 {
        fill: #ebebeb;
      }

      .cls-72 {
        fill: #e4e4e4;
      }

      .cls-73 {
        fill: #efefef;
      }

      .cls-74 {
        fill: #f1f1f1;
      }

      .cls-75 {
        fill: #fee5e5;
      }

      .cls-76 {
        fill: #e8e8e8;
      }

      .cls-77 {
        fill: #fff;
      }

      .cls-78 {
        fill: #ededed;
      }

      .cls-79 {
        fill: #fd9a9a;
      }

      .cls-80 {
        fill: #fd9c9c;
      }

      .cls-81 {
        fill: #fd5454;
      }

      .cls-82 {
        fill: #fd3b3b;
      }

      .cls-83 {
        fill: #fdc9c9;
      }

      .cls-84 {
        fill: #fdbbbb;
      }

      .cls-85 {
        fill: #fe8989;
      }

      .cls-86 {
        fill: #fcfcfc;
      }

      .cls-87 {
        fill: #fdd8d8;
      }

      .cls-88 {
        fill: #fdcdcd;
      }

      .cls-89 {
        fill: #fe9999;
      }

      .cls-90 {
        fill: #e7e7e7;
      }

      .cls-91 {
        fill: #e6e6e6;
      }

      .cls-92 {
        fill: #fe9494;
      }

      .cls-93 {
        fill: #fdd2d2;
      }

      .cls-94 {
        fill: #fdb6b6;
      }

      .cls-95 {
        fill: #fdaaaa;
      }

      .cls-96 {
        fill: #fe8080;
      }

      .cls-97 {
        fill: #fdc0c0;
      }

      .cls-98 {
        fill: #fdd7d7;
      }

      .cls-99 {
        fill: #fdc1c1;
      }

      .cls-100 {
        fill: #fda6a6;
      }

      .cls-101 {
        fill: #fdc7c7;
      }

      .cls-102 {
        fill: #fe6767;
      }

      .cls-103 {
        fill: #fdacac;
      }

      .cls-104 {
        fill: #fdc5c5;
      }

      .cls-105 {
        fill: #fdb0b0;
      }

      .cls-106 {
        fill: #fd6767;
      }

      .cls-107 {
        fill: #fd9797;
      }

      .cls-108 {
        fill: #fd2222;
      }

      .cls-109 {
        fill: #fbfbfb;
      }

      .cls-110 {
        fill: #fd6161;
      }

      .cls-111 {
        fill: #fd7474;
      }

      .cls-112 {
        fill: #fd6e6e;
      }

      .cls-113 {
        fill: #fd5b5b;
      }

      .cls-114 {
        fill: #fd1c1c;
      }

      .cls-115 {
        fill: #fd2f2f;
      }

      .cls-116 {
        fill: #fd2828;
      }

      .cls-117 {
        fill: #fd4242;
      }

      .cls-118 {
        fill: #fd8787;
      }

      .cls-119 {
        fill: #fafafa;
      }

      .cls-120 {
        fill: #fd3535;
      }

      .cls-121 {
        fill: #feefef;
      }

      .cls-122 {
        fill: #fee0e0;
      }

      .cls-123 {
        fill: #fd8080;
      }

      .cls-124 {
        fill: #fd9393;
      }

      .cls-125 {
        fill: #fd7a7a;
      }

      .cls-126 {
        fill: #fd8d8d;
      }

      .cls-127 {
        fill: #fd8e8e;
      }

      .cls-128 {
        fill: #fe4e4e;
      }

      .cls-129 {
        fill: #fefefe;
      }
    </style>
  </defs>
  <g id="_图层_1-2" data-name="图层 1">
    <g>
      <polygon class="cls-46" points="46.25 6.2 44.9 6.95 44.9 451.3 46.25 451.3 46.25 6.2 46.25 6.2"/>
      <polygon class="cls-98" points="44.9 6.95 43.55 7.75 43.55 451.3 44.9 451.3 44.9 6.95 44.9 6.95"/>
      <polygon class="cls-93" points="43.55 7.75 42.2 8.6 42.2 451.3 43.55 451.3 43.55 7.75 43.55 7.75"/>
      <polygon class="cls-88" points="42.2 8.6 40.85 9.55 40.85 451.3 42.2 451.3 42.2 8.6 42.2 8.6"/>
      <polygon class="cls-83" points="40.85 9.55 39.5 10.6 39.5 451.3 40.85 451.3 40.85 9.55 40.85 9.55"/>
      <polygon class="cls-104" points="39.5 10.6 38.2 11.7 38.2 451.3 39.5 451.3 39.5 10.6 39.5 10.6"/>
      <polygon class="cls-97" points="38.2 11.7 36.85 12.95 36.85 451.3 38.2 451.3 38.2 11.7 38.2 11.7"/>
      <polygon class="cls-35" points="55.65 2.55 54.3 2.95 54.3 451.3 55.65 451.3 55.65 2.55 55.65 2.55"/>
      <polygon class="cls-49" points="54.3 2.95 52.95 3.35 52.95 451.3 54.3 451.3 54.3 2.95 54.3 2.95"/>
      <polygon class="cls-48" points="52.95 3.35 51.6 3.85 51.6 451.3 52.95 451.3 52.95 3.35 52.95 3.35"/>
      <polygon class="cls-58" points="51.6 3.85 50.25 4.35 50.25 451.3 51.6 451.3 51.6 3.85 51.6 3.85"/>
      <polygon class="cls-57" points="50.25 4.35 48.95 4.9 48.95 451.3 50.25 451.3 50.25 4.35 50.25 4.35"/>
      <polygon class="cls-53" points="48.95 4.9 47.6 5.55 47.6 451.3 48.95 451.3 48.95 4.9 48.95 4.9"/>
      <polygon class="cls-45" points="47.6 5.55 46.25 6.2 46.25 451.3 47.6 451.3 47.6 5.55 47.6 5.55"/>
      <polygon class="cls-99" points="69.1 .6 67.75 .65 67.75 451.3 69.1 451.3 69.1 .6 69.1 .6"/>
      <polygon class="cls-39" points="71.25 .5 70.45 .55 70.45 451.3 71.25 451.3 71.25 64.75 71.75 64.75 71.75 .6 71.25 .5 71.25 .5"/>
      <polygon class="cls-84" points="70.45 .55 69.1 .6 69.1 451.3 70.45 451.3 70.45 .55 70.45 .55"/>
      <polygon class="cls-100" points="74.45 1.2 73.1 .9 73.1 64.75 74.45 64.75 74.45 1.2 74.45 1.2"/>
      <polygon class="cls-103" points="73.1 .9 71.75 .6 71.75 64.75 73.1 64.75 73.1 .9 73.1 .9"/>
      <polygon class="cls-87" points="63.7 1.05 62.35 1.2 62.35 451.3 63.7 451.3 63.7 1.05 63.7 1.05"/>
      <polygon class="cls-93" points="65.05 .9 63.7 1.05 63.7 451.3 65.05 451.3 65.05 .9 65.05 .9"/>
      <polygon class="cls-88" points="66.4 .75 65.05 .9 65.05 451.3 66.4 451.3 66.4 .75 66.4 .75"/>
      <polygon class="cls-47" points="62.35 1.2 61 1.4 61 451.3 62.35 451.3 62.35 1.2 62.35 1.2"/>
      <polygon class="cls-48" points="58.35 1.9 57 2.2 57 451.3 58.35 451.3 58.35 1.9 58.35 1.9"/>
      <polygon class="cls-55" points="59.7 1.65 58.35 1.9 58.35 451.3 59.7 451.3 59.7 1.65 59.7 1.65"/>
      <polygon class="cls-36" points="75.8 1.6 74.45 1.2 74.45 64.75 75.8 64.75 75.8 1.6 75.8 1.6"/>
      <polygon class="cls-101" points="67.75 .65 66.4 .75 66.4 451.3 67.75 451.3 67.75 .65 67.75 .65"/>
      <polygon class="cls-51" points="61 1.4 59.7 1.65 59.7 451.3 61 451.3 61 1.4 61 1.4"/>
      <polygon class="cls-56" points="57 2.2 55.65 2.55 55.65 451.3 57 451.3 57 2.2 57 2.2"/>
      <polygon class="cls-94" points="35.5 14.3 34.15 15.8 34.15 451.3 35.5 451.3 35.5 14.3 35.5 14.3"/>
      <polygon class="cls-38" points="34.15 15.8 32.8 17.45 32.8 451.3 34.15 451.3 34.15 15.8 34.15 15.8"/>
      <polygon class="cls-105" points="32.8 17.45 32.5 17.85 32.5 416.7 31.45 416.7 31.45 451.3 32.8 451.3 32.8 17.45 32.8 17.45"/>
      <polygon class="cls-84" points="36.85 12.95 35.5 14.3 35.5 451.3 36.85 451.3 36.85 12.95 36.85 12.95"/>
      <polygon class="cls-112" points="86.55 6.85 85.85 6.35 85.2 5.95 85.2 64.75 86.55 64.75 86.55 6.85 86.55 6.85"/>
      <polygon class="cls-111" points="85.2 5.95 83.85 5.1 83.85 64.75 85.2 64.75 85.2 5.95 85.2 5.95"/>
      <polygon class="cls-125" points="83.85 5.1 82.5 4.35 82.5 64.75 83.85 64.75 83.85 5.1 83.85 5.1"/>
      <polygon class="cls-123" points="82.5 4.35 81.2 3.7 81.2 64.75 82.5 64.75 82.5 4.35 82.5 4.35"/>
      <polygon class="cls-118" points="81.2 3.7 80.5 3.35 79.85 3.1 79.85 64.75 81.2 64.75 81.2 3.7 81.2 3.7"/>
      <polygon class="cls-126" points="79.85 3.1 78.5 2.55 78.5 64.75 79.85 64.75 79.85 3.1 79.85 3.1"/>
      <polygon class="cls-124" points="78.5 2.55 77.8 2.25 77.15 2.05 77.15 64.75 78.5 64.75 78.5 2.55 78.5 2.55"/>
      <polygon class="cls-54" points="93.25 12.5 91.95 11.2 91.95 64.65 93.25 64.65 93.25 12.5 93.25 12.5"/>
      <polygon class="cls-81" points="91.95 11.2 91.25 10.55 90.6 10 90.6 64.65 91.95 64.65 91.95 11.2 91.95 11.2"/>
      <polygon class="cls-113" points="90.6 10 89.25 8.85 89.25 64.65 90.6 64.65 90.6 10 90.6 10"/>
      <polygon class="cls-110" points="89.25 8.85 87.9 7.8 87.9 64.75 89.15 64.75 89.15 64.7 89.15 64.65 89.25 64.65 89.25 8.85 89.25 8.85"/>
      <polygon class="cls-106" points="87.9 7.8 86.55 6.85 86.55 64.75 87.9 64.75 87.9 7.8 87.9 7.8"/>
      <polygon class="cls-115" points="100 20.65 98.65 18.8 98.65 64.65 100 64.65 100 20.65 100 20.65"/>
      <polygon class="cls-116" points="101.35 22.65 100 20.65 100 64.65 101.35 64.65 101.35 22.65 101.35 22.65"/>
      <polygon class="cls-108" points="102.7 24.8 101.35 22.65 101.35 64.65 102.7 64.65 102.7 24.8 102.7 24.8"/>
      <polygon class="cls-114" points="104 27 102.7 24.8 102.7 64.65 104 64.65 104 27 104 27"/>
      <polygon class="cls-5" points="105.35 29.45 104 27 104 64.65 105.35 64.65 105.35 29.45 105.35 29.45"/>
      <polygon class="cls-4" points="106.7 32.1 105.35 29.45 105.35 64.65 106.7 64.65 106.7 32.1 106.7 32.1"/>
      <polygon class="cls-117" points="95.95 15.4 95.25 14.6 94.6 13.9 94.6 64.65 95.95 64.65 95.95 15.4 95.95 15.4"/>
      <polygon class="cls-82" points="97.3 17.05 95.95 15.4 95.95 64.65 97.3 64.65 97.3 17.05 97.3 17.05"/>
      <polygon class="cls-120" points="98.65 18.8 97.3 17.05 97.3 64.65 98.65 64.65 98.65 18.8 98.65 18.8"/>
      <polygon class="cls-50" points="94.6 13.9 93.9 13.15 93.25 12.5 93.25 64.65 94.6 64.65 94.6 13.9 94.6 13.9"/>
      <polygon class="cls-79" points="77.15 2.05 75.8 1.6 75.8 64.75 77.15 64.75 77.15 2.05 77.15 2.05"/>
      <polygon class="cls-7" points="109.1 64.7 109.1 64.75 118.2 64.75 116.95 60 115.65 55.5 114.95 53.25 114.3 51.1 112.9 47 111.4 42.95 109.9 39.15 108.3 35.5 106.7 32.1 106.7 64.65 109.1 64.65 109.1 64.7 109.1 64.7"/>
      <polygon class="cls-37" points="28.75 416.7 27.45 416.7 27.45 451.3 28.75 451.3 28.75 416.7 28.75 416.7"/>
      <polygon class="cls-41" points="30.1 416.7 28.75 416.7 28.75 451.3 30.1 451.3 30.1 416.7 30.1 416.7"/>
      <polygon class="cls-95" points="31.45 416.7 30.1 416.7 30.1 451.3 31.45 451.3 31.45 416.7 31.45 416.7"/>
      <polygon class="cls-127" points="23.4 416.7 22.05 416.7 22.05 451.3 23.4 451.3 23.4 416.7 23.4 416.7"/>
      <polygon class="cls-85" points="22.05 416.7 20.3 416.7 20.3 451.3 22.05 451.3 22.05 416.7 22.05 416.7"/>
      <polygon class="cls-124" points="24.75 416.7 23.4 416.7 23.4 451.3 24.75 451.3 24.75 416.7 24.75 416.7"/>
      <polygon class="cls-107" points="26.1 416.7 24.75 416.7 24.75 451.3 26.1 451.3 26.1 416.7 26.1 416.7"/>
      <polygon class="cls-80" points="27.45 416.7 26.1 416.7 26.1 451.3 27.45 451.3 27.45 416.7 27.45 416.7"/>
      <polygon class="cls-60" points="109.1 64.65 105.95 64.65 105.95 79.05 106.45 79.05 109.1 64.7 109.1 64.65 109.1 64.65"/>
      <polygon class="cls-11" points="105.95 64.65 105.65 64.65 105.65 79.05 105.95 79.05 105.95 64.65 105.95 64.65"/>
      <polygon class="cls-61" points="105.65 64.65 105.35 64.65 105.35 79.05 105.65 79.05 105.65 64.65 105.65 64.65"/>
      <polygon class="cls-65" points="105.35 64.65 105.05 64.65 105.05 79.05 105.35 79.05 105.35 64.65 105.35 64.65"/>
      <polygon class="cls-12" points="104.7 64.65 104.4 64.65 104.4 79.05 104.7 79.05 104.7 64.65 104.7 64.65"/>
      <polygon class="cls-32" points="104.4 64.65 104.1 64.65 104.1 79.05 104.4 79.05 104.4 64.65 104.4 64.65"/>
      <polygon class="cls-33" points="104.1 64.65 103.8 64.65 103.8 79.05 104.1 79.05 104.1 64.65 104.1 64.65"/>
      <polygon class="cls-27" points="103.45 64.65 103.15 64.65 103.15 79.05 103.45 79.05 103.45 64.65 103.45 64.65"/>
      <polygon class="cls-29" points="103.15 64.65 102.85 64.65 102.85 79.05 103.15 79.05 103.15 64.65 103.15 64.65"/>
      <polygon class="cls-34" points="102.85 64.65 102.55 64.65 102.55 79.05 102.85 79.05 102.85 64.65 102.85 64.65"/>
      <polygon class="cls-26" points="103.8 64.65 103.45 64.65 103.45 79.05 103.8 79.05 103.8 64.65 103.8 64.65"/>
      <polygon class="cls-62" points="105.05 64.65 104.7 64.65 104.7 79.05 105.05 79.05 105.05 64.65 105.05 64.65"/>
      <polygon class="cls-63" points="102.2 64.65 101.9 64.65 101.9 79.05 102.2 79.05 102.2 64.65 102.2 64.65"/>
      <polygon class="cls-64" points="101.9 64.65 101.6 64.65 101.6 79.05 101.9 79.05 101.9 64.65 101.9 64.65"/>
      <polygon class="cls-66" points="101.6 64.65 101.3 64.65 101.3 79.05 101.6 79.05 101.6 64.65 101.6 64.65"/>
      <polygon class="cls-67" points="100.35 64.65 100.05 64.65 100.05 79.05 100.35 79.05 100.35 64.65 100.35 64.65"/>
      <polygon class="cls-68" points="100.65 64.65 100.35 64.65 100.35 79.05 100.65 79.05 100.65 64.65 100.65 64.65"/>
      <polygon class="cls-24" points="100.95 64.65 100.65 64.65 100.65 79.05 100.95 79.05 100.95 64.65 100.95 64.65"/>
      <polygon class="cls-25" points="101.3 64.65 100.95 64.65 100.95 79.05 101.3 79.05 101.3 64.65 101.3 64.65"/>
      <polygon class="cls-17" points="99.7 64.65 99.4 64.65 99.4 79.05 99.7 79.05 99.7 64.65 99.7 64.65"/>
      <polygon class="cls-19" points="99.4 64.65 99.1 64.65 99.1 79.05 99.4 79.05 99.4 64.65 99.4 64.65"/>
      <polygon class="cls-22" points="99.1 64.65 98.8 64.65 98.8 79.05 99.1 79.05 99.1 64.65 99.1 64.65"/>
      <polygon class="cls-16" points="97.85 64.65 97.55 64.65 97.55 79.05 97.85 79.05 97.85 64.65 97.85 64.65"/>
      <polygon class="cls-21" points="98.15 64.65 97.85 64.65 97.85 79.05 98.15 79.05 98.15 64.65 98.15 64.65"/>
      <polygon class="cls-18" points="98.5 64.65 98.15 64.65 98.15 79.05 98.5 79.05 98.5 64.65 98.5 64.65"/>
      <polygon class="cls-28" points="98.8 64.65 98.5 64.65 98.5 79.05 98.8 79.05 98.8 64.65 98.8 64.65"/>
      <polygon class="cls-20" points="100.05 64.65 99.7 64.65 99.7 79.05 100.05 79.05 100.05 64.65 100.05 64.65"/>
      <polygon class="cls-30" points="102.55 64.65 102.2 64.65 102.2 79.05 102.55 79.05 102.55 64.65 102.55 64.65"/>
      <polygon class="cls-31" points="97.55 79.05 97.55 64.65 97.25 64.65 97.25 79.05 97.55 79.05 97.55 79.05"/>
      <polygon class="cls-31" points="97.25 64.65 96.9 64.65 96.9 79.05 97.25 79.05 97.25 64.65 97.25 64.65"/>
      <polygon class="cls-15" points="96.9 64.65 96.6 64.65 96.6 79.05 96.9 79.05 96.9 64.65 96.9 64.65"/>
      <polygon class="cls-23" points="96.6 64.65 96.3 64.65 96.3 79.05 96.6 79.05 96.6 64.65 96.6 64.65"/>
      <polygon class="cls-91" points="95.35 64.65 95.05 64.65 95.05 79.05 95.35 79.05 95.35 64.65 95.35 64.65"/>
      <polygon class="cls-72" points="95.65 64.65 95.35 64.65 95.35 79.05 95.65 79.05 95.65 64.65 95.65 64.65"/>
      <polygon class="cls-13" points="96 64.65 95.65 64.65 95.65 79.05 96 79.05 96 64.65 96 64.65"/>
      <polygon class="cls-14" points="96.3 64.65 96 64.65 96 79.05 96.3 79.05 96.3 64.65 96.3 64.65"/>
      <polygon class="cls-70" points="94.75 64.65 94.4 64.65 94.4 79.05 94.75 79.05 94.75 64.65 94.75 64.65"/>
      <polygon class="cls-78" points="94.4 64.65 94.1 64.65 94.1 79.05 94.4 79.05 94.4 64.65 94.4 64.65"/>
      <polygon class="cls-73" points="94.1 64.65 93.8 64.65 93.8 79.05 94.1 79.05 94.1 64.65 94.1 64.65"/>
      <polygon class="cls-10" points="93.5 64.65 93.15 64.65 93.15 79.05 93.5 79.05 93.5 64.65 93.5 64.65"/>
      <polygon class="cls-9" points="93.15 64.65 92.85 64.65 92.85 79.05 93.15 79.05 93.15 64.65 93.15 64.65"/>
      <polygon class="cls-6" points="92.85 64.65 92.55 64.65 92.55 79.05 92.85 79.05 92.85 64.65 92.85 64.65"/>
      <polygon class="cls-74" points="93.8 64.65 93.5 64.65 93.5 79.05 93.8 79.05 93.8 64.65 93.8 64.65"/>
      <polygon class="cls-76" points="95.05 64.65 94.75 64.65 94.75 79.05 95.05 79.05 95.05 64.65 95.05 64.65"/>
      <polygon class="cls-86" points="92.25 64.65 91.9 64.65 91.9 77.4 92.25 79.05 92.25 64.65 92.25 64.65"/>
      <polygon class="cls-129" points="91.9 64.65 91.6 64.65 91.6 76.05 91.9 77.4 91.9 64.65 91.9 64.65"/>
      <polygon class="cls-109" points="91.6 64.65 91.3 64.65 91.3 74.65 91.6 76.05 91.6 64.65 91.6 64.65"/>
      <polygon class="cls-73" points="90.35 64.65 90.05 64.65 90.05 68.85 90.35 70.25 90.35 64.65 90.35 64.65"/>
      <polygon class="cls-8" points="90.65 64.65 90.35 64.65 90.35 70.25 90.65 71.65 90.65 64.65 90.65 64.65"/>
      <polygon class="cls-9" points="91 64.65 90.65 64.65 90.65 71.65 91 73.25 91 64.65 91 64.65"/>
      <polygon class="cls-3" points="91.3 64.65 91 64.65 91 73.25 91.3 74.65 91.3 64.65 91.3 64.65"/>
      <polygon class="cls-90" points="89.4 64.65 89.15 64.65 89.15 64.7 89.4 65.85 89.4 64.65 89.4 64.65"/>
      <polygon class="cls-76" points="89.4 64.65 89.4 65.85 89.75 67.5 89.75 64.65 89.4 64.65 89.4 64.65"/>
      <polygon class="cls-71" points="90.05 68.85 90.05 64.65 89.75 64.65 89.75 67.5 90.05 68.85 90.05 68.85"/>
      <polygon class="cls-119" points="92.55 64.65 92.25 64.65 92.25 79.05 92.55 79.05 92.55 64.65 92.55 64.65"/>
      <polyline class="cls-1" points="109.1 64.65 89.15 64.65 89.15 64.7 92.25 79.05 106.45 79.05 109.1 64.7"/>
      <polyline class="cls-1" points="89.15 64.75 71.25 64.75 71.25 451.3 20.3 451.3 20.3 416.7 32.5 416.7 32.5 17.85 34.15 15.75 35.9 13.85 37.75 12.05 39.7 10.4 41.75 8.85 43.9 7.45 46.15 6.15 47.3 5.55 48.55 5.05 51 4 53.55 3.1 56.2 2.3 59.05 1.7 61.9 1.2 64.95 .85 68 .6 71.25 .5 73.2 .85 75.15 1.4 77.05 1.95 79 2.7 80.8 3.45 82.65 4.4 84.45 5.45 86.25 6.6 87.95 7.8 89.65 9.15 91.3 10.6 92.95 12.15 94.5 13.8 96.05 15.55 97.55 17.4 98.3 18.35 99.1 19.4 100.5 21.45 101.9 23.6 103.25 25.85 104.65 28.2 105.9 30.65 107.2 33.25 108.45 35.9 109.7 38.75 110.85 41.6 111.4 43.05 112 44.6 113.1 47.65 114.2 50.9 115.2 54.15 116.25 57.6 116.7 59.3 117.2 61.1 118.2 64.75 109.1 64.75"/>
      <path class="cls-69" d="M68.15,16.35l-2.45,.1-1.2,.15-1.1,.25-2.25,.6-2.05,.9-1.5,.75-1.35,.9-1.2,.85-1.15,1.05-.6,.6-1.6,1.75-1.35,1.85-.7,1.05-.55,1.15-.95,2.35-.65,2.45-.2,1.25-.1,1.35-.05,1.65,.05,1.65,.15,1.85,.4,1.8,.2,.85,.3,.9,.7,1.7,.8,1.6,1.05,1.55,1.15,1.5,1.35,1.45,1.4,1.3,1.55,1.2,1.35,.85,1.5,.85,2.05,.8,1.1,.35,1.15,.3,1.1,.2,1.2,.15,1.2,.1,1.25,.05,.1-.05h1.05l1.2-.1,.55-.1,.6-.05,1.2-.2,1.1-.3,.55-.2,.6-.15,1.05-.4,1.1-.45,1.4-.8,.7-.45,.75-.4,.2-.2,.3-.3,.05-.1,.1-.05,.2-.1,.7-.55,.65-.6,.7-.6,.45-.45,.3-.3,1.1-1.4,1.05-1.4,.85-1.5,.8-1.5,.55-1.6,.1-.45,.15-.4,.25-.8,.3-1.7,.25-1.7,.05-1.65-.05-1.65-.25-1.95-.4-1.8-.55-1.75-.65-1.65-.9-1.65-1-1.55-1.15-1.5-1.25-1.35-1.45-1.35-1.45-1.15-.75-.5-.7-.4-1.4-.75-1.1-.5-1.05-.4-1.15-.35-1.1-.25-1.2-.25-1.15-.15-1.2-.1h-1.15Zm0,2.15l2.1,.05,1,.1,1.05,.2,.95,.2,1,.35,.95,.35,1,.45-7.3,12.6-.4-.1-.35,.05-.7,.05-7.25-12.65,1.8-.8,1.95-.5,2.05-.3,2.15-.05h0Zm-3.6,15.95l-.45,.55-.25,.7h-14.5l.15-1.7,.35-1.6,.45-1.6,.65-1.45,.75-1.45,.9-1.35,1-1.35,1.2-1.2,1.2-1.15,1.35-1,7.2,12.6h0Zm7.95,1.25l-.35-.7-.35-.55,7.2-12.55,1.25,.95,1.3,1.15,1.1,1.2,1.05,1.35,.85,1.35,.8,1.45,.55,1.45,.5,1.6,.35,1.6,.25,1.7h-14.5Zm-17.7,15l-1.2-1.3-1.05-1.35-.9-1.4-.7-1.4-.65-1.5-.45-1.55-.35-1.6-.15-1.6h14.45l.1,.3,.2,.35,.45,.65-7.2,12.55-1.35-1.05-1.2-1.1h0Zm17-10.4l.4-.7,.35-.6h14.45l-.25,1.6-.35,1.6-.1,.15-.05,.2-.1,.4-.25,.8-.55,1.5-.8,1.4-.85,1.4-.3,.3-.1,.05-.05,.1-.1,.2-.5,.7-1.1,1.3-.2,.1-.1,.05-.05,.1-.3,.3-.6,.55-.65,.5-.6,.55-7.25-12.55h0Zm-3.65,1.7l.8-.05,7.25,12.6-1.9,.7-1,.3-.5,.1h-.15l-.1,.05-.2,.1h-.45l-.1,.05-.5,.1-1,.15-1.1,.1h-.55l-.5,.05-1.1-.05-1.05-.1-2.05-.3-1-.25-.95-.3-1.85-.7,7.3-12.6,.7,.05h0Z"/>
      <path class="cls-69" d="M53.2,22.75l-.45,.1-.25,.25L4.95,78.45l-.1,.1-.95,1-.85,1.15-.05,.05-.75,1-.6,1.1-.55,1.15-.35,1.2-.35,1.2-.25,1.25-.15,1.3v1.4l.05,1.65,.25,1.65,.35,1.55,.55,1.5,.65,1.4,.85,1.4,.95,1.3,1.2,1.3,1.2,1.1,1.35,1,1.35,.85,1.5,.7,1.45,.5,1.6,.4,1.6,.25,1.75,.1,1.4-.1,1.4-.15,.3-.1,.05-.05h.3l.7-.15,.65-.2,.7-.15,.6-.3,.3-.15,.35-.1,.6-.3,.65-.3,.55-.4,.6-.35,.55-.4,.6-.35h.05l.3-.35,.35-.3,.7-.65,.3-.2,.35-.4,54.2-49.8,.1-.2,.1-.15,.05-.2v-.15h.05l-.1-.4-.15-.3-.2-.2-.15-.1-.35-.05-.4,.05-.3,.25-49.35,45.35,.35-1.3,.25-1.3,.05-.7,.1-.65v-1.05l.05-.3-.1-1.75-.25-1.6-.4-1.6-.5-1.45-.7-1.5-.85-1.35-1-1.35-1.1-1.2-1.3-1.2-1.3-.95-1.4-.85-1.4-.65-1.5-.55-1.55-.35-1.65-.25-1.65-.05-1.6,.05-1.45,.2-1.45,.3-1.35,.45L54,24.4l.1-.2,.1-.15v-.35h.05l-.15-.45-.2-.25-.35-.25-.2-.05-.15,.05h0ZM16.65,75.7l1.45,.05,.7,.05,.75,.15,.65,.1,.7,.2,.65,.2,.7,.3,1.25,.55,1.2,.75,1.15,.85,1.15,1.05,.95,1.05,.9,1.2,.7,1.2,.65,1.3,.45,1.3,.35,1.4,.2,1.4,.1,1.55-.1,1.4-.2,1.4-.2,.65-.15,.7-.2,.65-.2,.7-.6,1.2-.65,1.2-.15,.1-.1,.15-.2,.3-.4,.6-.9,1.1-1.5,1.4-.55,.3-.5,.35-1,.65-1.1,.55-1.1,.45-1.2,.35-.6,.1-.3,.05-.25,.1h-.35l-.3,.05-.6,.1h-.65l-.6,.05-1.55-.1-1.4-.2-1.4-.35-1.3-.45-1.3-.65-1.2-.7-1.2-.9-1.05-.95-1.05-1.15-.85-1.15-.75-1.2-.55-1.25-.3-.7-.2-.65-.2-.7-.1-.65-.15-.75-.05-.7-.05-1.45,.15-2.35,.15-1.15,.35-1.05,.35-1.05,.45-1,1.15-1.85,.1-.05,1.55-1.85,.15-.1,1.05-1,1.15-.85,1.15-.75,1.3-.55,1.3-.5,1.4-.3,1.4-.2,1.5-.05h0Z"/>
      <path class="cls-128" d="M27,79.95l-1.15-1.05-1.15-.85-1.2-.75-1.25-.55-.7-.3-.65-.2-.7-.2-.65-.1-.75-.15-.7-.05-1.45-.05-1.5,.05-1.4,.2-1.4,.3-1.3,.5-1.3,.55-1.15,.75-1.15,.85-1.05,1-.15,.1-1.55,1.85-.1,.05-1.15,1.85-.45,1-.35,1.05-.35,1.05-.15,1.15-.15,2.35,.05,1.45,.05,.7,.15,.75,.1,.65,.2,.7,.2,.65,.3,.7,.55,1.25,.75,1.2,.85,1.15,1.05,1.15,1.05,.95,1.2,.9,1.2,.7,1.3,.65,1.3,.45,1.4,.35,1.4,.2,1.55,.1,.6-.05h.65l.6-.1,.3-.05h.35l.25-.1,.3-.05,.6-.1,1.2-.35,1.1-.45,1.1-.55,1-.65,.5-.35,.55-.3,1.5-1.4,.9-1.1,.4-.6,.2-.3,.1-.15,.15-.1,.65-1.2,.6-1.2,.2-.7,.2-.65,.15-.7,.2-.65,.2-1.4,.1-1.4-.1-1.55-.2-1.4-.35-1.4-.45-1.3-.65-1.3-.7-1.2-.9-1.2-.95-1.05h0Zm-10.25-3.4l1.25,.05,1.3,.2,1.2,.3,1.2,.45,1.1,.55,1.1,.7,1,.8,1,.95,.85,1,.8,1.1,.65,1.1,.55,1.2,.35,1.2,.35,1.3,.15,1.35,.1,1.45-.05,.3v.35l-.05,.7-.1,.65-.05,.7-.2,.6-.1,.3-.05,.05v.3l-.2,.6-.1,.3-.05,.05v.3l-.3,.55-.25,.6-.2,.25-.15,.3-.3,.6-.8,1.1-.85,1.1-1,.9-1,.85-1.1,.65-1.1,.6-1.2,.4-1.2,.35-1.3,.15h-.35l-.3,.05-.6,.05-1.35-.1-1.25-.15-1.25-.35-1.15-.4-1.15-.6-1.05-.65-1-.85-.95-.9-.95-1.1-.75-1.1-.65-1.15-.3-.6-.2-.55-.45-1.25-.2-.65-.1-.6-.15-1.35-.05-1.35,.05-1.45,.15-1.35,.3-1.3,.45-1.2,.5-1.2,.65-1.1,.75-1.1,.95-1,.95-.95,1-.8,1.05-.7,1.15-.55,1.15-.45,1.25-.3,1.25-.2,1.35-.05h0Z"/>
      <path class="cls-102" d="M25.9,80.55l-1-.95-1-.8-1.1-.7-1.1-.55-1.2-.45-1.2-.3-1.3-.2-1.25-.05-1.35,.05-1.25,.2-1.25,.3-1.15,.45-1.15,.55-1.05,.7-1,.8-.95,.95-.95,1-.75,1.1-.65,1.1-.5,1.2-.45,1.2-.3,1.3-.15,1.35-.05,1.45,.05,1.35,.15,1.35,.1,.6,.2,.65,.45,1.25,.2,.55,.3,.6,.65,1.15,.75,1.1,.95,1.1,.95,.9,1,.85,1.05,.65,1.15,.6,1.15,.4,1.25,.35,1.25,.15,1.35,.1,.6-.05,.3-.05h.35l1.3-.15,1.2-.35,1.2-.4,1.1-.6,1.1-.65,1-.85,1-.9,.85-1.1,.8-1.1,.3-.6,.15-.3,.2-.25,.25-.6,.3-.55v-.3l.05-.05,.1-.3,.2-.6v-.3l.05-.05,.1-.3,.2-.6,.05-.7,.1-.65,.05-.7v-.35l.05-.3-.1-1.45-.15-1.35-.35-1.3-.35-1.2-.55-1.2-.65-1.1-.8-1.1-.85-1h0Zm-9.15-3.4l1.2,.05,1.25,.15,.55,.1,.6,.2,1.15,.45,.5,.2,.55,.3,1.05,.65,.95,.75,1,.95,.8,.95,.75,1.05,.6,1.05,.55,1.15,.35,1.15,.35,1.25,.15,1.3,.1,1.4-.1,1.3-.15,1.3-.35,1.2-.35,1.2-.55,1.1-.6,1.1-.4,.5-.2,.25-.15,.3-.4,.5-.4,.55-1,.85-.5,.4-.45,.4-.55,.3-.5,.35-.3,.1h-.1l-.05,.05-.1,.1-.5,.3-.6,.15-.55,.2-.6,.15-.55,.2h-.35l-.3,.05-.6,.1-1.2,.1-1.3-.1-1.2-.15-1.2-.35-1.1-.35-1.1-.55-1-.65-1-.8-.9-.85-.5-.55-.4-.5-.75-1.05-.65-1.1-.45-1.1-.45-1.2-.25-1.2-.15-1.3-.05-1.3,.05-1.4,.15-1.3,.25-1.25,.45-1.15,.45-1.15,.65-1.05,.75-1.05,.9-.95,.9-.95,1-.75,1-.65,1.1-.5,1.1-.45,1.2-.3,1.2-.15,1.3-.05h0Z"/>
      <path class="cls-96" d="M25.55,80.95l-1-.95-.95-.75-1.05-.65-.55-.3-.5-.2-1.15-.45-.6-.2-.55-.1-1.25-.15-1.2-.05-1.3,.05-1.2,.15-1.2,.3-1.1,.45-1.1,.5-1,.65-1,.75-.9,.95-.9,.95-.75,1.05-.65,1.05-.45,1.15-.45,1.15-.25,1.25-.15,1.3-.05,1.4,.05,1.3,.15,1.3,.25,1.2,.45,1.2,.45,1.1,.65,1.1,.75,1.05,.4,.5,.5,.55,.9,.85,1,.8,1,.65,1.1,.55,1.1,.35,1.2,.35,1.2,.15,1.3,.1,1.2-.1,.6-.1,.3-.05h.35l.55-.2,.6-.15,.55-.2,.6-.15,.5-.3,.1-.1,.05-.05h.1l.3-.1,.5-.35,.55-.3,.45-.4,.5-.4,1-.85,.4-.55,.4-.5,.15-.3,.2-.25,.4-.5,.6-1.1,.55-1.1,.35-1.2,.35-1.2,.15-1.3,.1-1.3-.1-1.4-.15-1.3-.35-1.25-.35-1.15-.55-1.15-.6-1.05-.75-1.05-.8-.95h0Zm-8.8-3.25l1.15,.05,1.2,.15,1.1,.25,1.1,.45,1,.5,1,.65,.9,.75,.45,.4,.5,.5,.75,.9,.75,1,.55,1,.55,1.1,.35,1.1,.3,1.2,.15,1.25,.1,1.3-.05,.6-.05,.3v.35l-.1,.6-.05,.3v.35l-.1,.25-.05,.3-.15,.6-.2,.55-.15,.6-.3,.5-.1,.1-.05,.05v.1l-.1,.3-.3,.5-.1,.1-.05,.05v.1l-.1,.3-.4,.45-.35,.5-.75,1-.5,.4-.25,.2-.2,.25-.9,.75-1,.6-1,.55-1.1,.35-1.1,.35-1.2,.15-.6,.05h-.45l-.1,.05-1.25-.1-1.15-.15-1.1-.35-1.05-.35-1.05-.55-1-.6-.95-.75-.85-.85-.85-1-.4-.5-.3-.45-.65-1.05-.45-1.05-.25-.6-.15-.55-.25-1.15-.15-1.25-.05-1.25,.05-1.3,.15-1.25,.25-1.2,.4-1.1,.45-1.1,.65-1,.7-1,.85-.9,.85-.9,.95-.75,1-.65,1.05-.5,1.05-.45,1.1-.25,1.15-.15,1.25-.05h0Z"/>
      <path class="cls-89" d="M25.15,81.4l-.5-.5-.45-.4-.9-.75-1-.65-1-.5-1.1-.45-1.1-.25-1.2-.15-1.15-.05-1.25,.05-1.15,.15-1.1,.25-1.05,.45-1.05,.5-1,.65-.95,.75-.85,.9-.85,.9-.7,1-.65,1-.45,1.1-.4,1.1-.25,1.2-.15,1.25-.05,1.3,.05,1.25,.15,1.25,.25,1.15,.15,.55,.25,.6,.45,1.05,.65,1.05,.3,.45,.4,.5,.85,1,.85,.85,.95,.75,1,.6,1.05,.55,1.05,.35,1.1,.35,1.15,.15,1.25,.1,.1-.05h.45l.6-.05,1.2-.15,1.1-.35,1.1-.35,1-.55,1-.6,.9-.75,.2-.25,.25-.2,.5-.4,.75-1,.35-.5,.4-.45,.1-.3v-.1l.05-.05,.1-.1,.3-.5,.1-.3v-.1l.05-.05,.1-.1,.3-.5,.15-.6,.2-.55,.15-.6,.05-.3,.1-.25v-.35l.05-.3,.1-.6v-.35l.05-.3,.05-.6-.1-1.3-.15-1.25-.3-1.2-.35-1.1-.55-1.1-.55-1-.75-1-.75-.9h0Zm-8.4-3.15l1.1,.05,1.15,.15,1.05,.25,.5,.15,.55,.25,.95,.45,.95,.65,.85,.75,.9,.85,.75,.85,.65,.95,.55,1,.55,1.05,.35,1.05,.25,1.15,.15,1.15,.1,1.25-.05,.1v.45l-.05,.6-.15,1.2-.25,1.1-.35,1.1-.55,1-.55,1-.2,.2-.1,.1-.05,.05v.1l-.3,.5-.4,.45-.35,.5-.9,.75h-.1l-.05,.05-.1,.1-.2,.2-.4,.4-.5,.3-.45,.3-.5,.25-.45,.3-.3,.05-.25,.1-.5,.2-.3,.05-.25,.1-.5,.15-.6,.05-.55,.1-1.1,.1-1.2-.1-1.1-.15-1.05-.3-1-.35-1-.55-.95-.6-.9-.75-.8-.75-.85-.95-.65-.95-.6-1-.45-1-.35-1.1-.25-1.1-.15-1.2-.05-1.15,.05-1.25,.15-1.15,.25-1.15,.35-1.05,.45-1.05,.6-1,.65-.95,.85-.85,.8-.85,.9-.75,.95-.65,1-.45,1-.4,1.05-.25,1.1-.15,1.2-.05h0Z"/>
      <path class="cls-43" d="M24.75,81.8l-.9-.85-.85-.75-.95-.65-.95-.45-.55-.25-.5-.15-1.05-.25-1.15-.15-1.1-.05-1.2,.05-1.1,.15-1.05,.25-1,.4-1,.45-.95,.65-.9,.75-.8,.85-.85,.85-.65,.95-.6,1-.45,1.05-.35,1.05-.25,1.15-.15,1.15-.05,1.25,.05,1.15,.15,1.2,.25,1.1,.35,1.1,.45,1,.6,1,.65,.95,.85,.95,.8,.75,.9,.75,.95,.6,1,.55,1,.35,1.05,.3,1.1,.15,1.2,.1,1.1-.1,.55-.1,.6-.05,.5-.15,.25-.1,.3-.05,.5-.2,.25-.1,.3-.05,.45-.3,.5-.25,.45-.3,.5-.3,.4-.4,.2-.2,.1-.1,.05-.05h.1l.9-.75,.35-.5,.4-.45,.3-.5v-.1l.05-.05,.1-.1,.2-.2,.55-1,.55-1,.35-1.1,.25-1.1,.15-1.2,.05-.6v-.45l.05-.1-.1-1.25-.15-1.15-.25-1.15-.35-1.05-.55-1.05-.55-1-.65-.95-.75-.85h0Zm-8-2.95l1.05,.05,1.1,.15,1,.25,1,.35,.9,.45,.9,.6,.85,.65,.85,.85,.7,.8,.65,.9,.55,.95,.45,1,.35,1,.25,1.1,.15,1.1,.05,1.2-.05,1.1-.1,.55-.05,.6-.15,.5-.1,.55-.2,.5-.1,.25-.05,.3-.15,.2-.1,.25-.2,.5-.3,.45-.25,.5-.65,.9-.7,.9h-.1l-.05,.05-.1,.1-.2,.2-.4,.4-.45,.3-.4,.35-.9,.55-.9,.55-1,.35-1,.25-1.1,.15h-.45l-.1,.05-.5,.05-1.15-.1-1.05-.15-1.05-.25-.95-.35-.95-.55-.9-.55-.85-.65-.75-.75-.75-.9-.65-.9-.55-.95-.45-.95-.35-1.05-.25-1.05-.15-1.15v-2.3l.15-1.1,.25-1.1,.35-1,.45-1,.55-.95,.65-.9,.75-.8,.75-.85,.85-.65,.9-.6,.95-.45,.95-.35,1.05-.25,1.05-.15,1.15-.05h0Z"/>
      <path class="cls-40" d="M24.4,82.2l-.85-.85-.85-.65-.9-.6-.9-.45-1-.35-1-.25-1.1-.15-1.05-.05-1.15,.05-1.05,.15-1.05,.25-.95,.35-.95,.45-.9,.6-.85,.65-.75,.85-.75,.8-.65,.9-.55,.95-.45,1-.35,1-.25,1.1-.15,1.1v2.3l.15,1.15,.25,1.05,.35,1.05,.45,.95,.55,.95,.65,.9,.75,.9,.75,.75,.85,.65,.9,.55,.95,.55,.95,.35,1.05,.25,1.05,.15,1.15,.1,.5-.05,.1-.05h.45l1.1-.15,1-.25,1-.35,.9-.55,.9-.55,.4-.35,.45-.3,.4-.4,.2-.2,.1-.1,.05-.05h.1l.7-.9,.65-.9,.25-.5,.3-.45,.2-.5,.1-.25,.15-.2,.05-.3,.1-.25,.2-.5,.1-.55,.15-.5,.05-.6,.1-.55,.05-1.1-.05-1.2-.15-1.1-.25-1.1-.35-1-.45-1-.55-.95-.65-.9-.7-.8h0Zm-7.65-2.8l1,.05,1,.15,.95,.25,.95,.35,.85,.45,.9,.55,.8,.65,.8,.75,.65,.75,.65,.85,.5,.9,.45,.95,.3,.95,.25,1.05,.15,1.05,.05,1.15-.05,.5v.55l-.15,1.1-.25,1-.3,1-.45,.9-.5,.9-.35,.4-.3,.45-.35,.4-.3,.45-.8,.75-.8,.65-.9,.55-.45,.2-.4,.25-.5,.15-.45,.2-.5,.1h-.15l-.1,.05-.2,.1-1,.15-1,.05-1.1-.05-1-.15-.95-.25-.9-.35-.9-.45-.85-.55-.8-.65-.75-.75-.75-.85-.6-.85-.55-.9-.35-.9-.35-1-.25-1-.15-1.1v-2.2l.15-1.05,.25-1.05,.35-.95,.35-.95,.55-.9,.6-.85,.75-.75,.75-.75,.8-.65,.85-.55,.9-.45,.9-.35,.95-.25,1-.15,1.1-.05h0Z"/>
      <path class="cls-75" d="M24,82.6l-.8-.75-.8-.65-.9-.55-.85-.45-.95-.35-.95-.25-1-.15-1-.05-1.1,.05-1,.15-.95,.25-.9,.35-.9,.45-.85,.55-.8,.65-.75,.75-.75,.75-.6,.85-.55,.9-.35,.95-.35,.95-.25,1.05-.15,1.05v2.2l.15,1.1,.25,1,.35,1,.35,.9,.55,.9,.6,.85,.75,.85,.75,.75,.8,.65,.85,.55,.9,.45,.9,.35,.95,.25,1,.15,1.1,.05,1-.05,1-.15,.2-.1,.1-.05h.15l.5-.1,.45-.2,.5-.15,.4-.25,.45-.2,.9-.55,.8-.65,.8-.75,.3-.45,.35-.4,.3-.45,.35-.4,.5-.9,.45-.9,.3-1,.25-1,.15-1.1v-.55l.05-.5-.05-1.15-.15-1.05-.25-1.05-.3-.95-.45-.95-.5-.9-.65-.85-.65-.75h0Zm-7.25-2.6h.95l.95,.15,.9,.25,.9,.35,.8,.35,.85,.55,.75,.6,.8,.75,.65,.75,.55,.8,.45,.85,.45,.9,.25,.9,.25,.95,.15,1,.05,1.1-.05,1-.15,1-.1,.2-.05,.1v.15l-.1,.5-.1,.2-.05,.1v.15l-.1,.5-.25,.4-.2,.45-.45,.9-.55,.8-.65,.8-.8,.65-.4,.3-.2,.15-.15,.2-.85,.5-.8,.45-.9,.3-.9,.25-.5,.05-.45,.1h-.75l-.2,.05-1.05-.05-.95-.15-.95-.25-.85-.3-.85-.45-.8-.5-.75-.65-.7-.65-.7-.8-.55-.8-.5-.9-.35-.85-.35-.95-.2-.95-.15-1v-2.1l.15-1,.55-1.85,.85-1.75,1.25-1.55,1.45-1.35,.8-.55,.85-.35,.85-.35,.95-.25,.95-.15h1.05Z"/>
      <path class="cls-77" d="M23.65,83l-.8-.75-.75-.6-.85-.55-.8-.35-.9-.35-.9-.25-.95-.15h-2l-.95,.15-.95,.25-.85,.35-.85,.35-.8,.55-1.45,1.35-1.25,1.55-.85,1.75-.55,1.85-.15,1v2.1l.15,1,.2,.95,.35,.95,.35,.85,.5,.9,.55,.8,.7,.8,.7,.65,.75,.65,.8,.5,.85,.45,.85,.3,.95,.25,.95,.15,1.05,.05,.2-.05h.75l.45-.1,.5-.05,.9-.25,.9-.3,.8-.45,.85-.5,.15-.2,.2-.15,.4-.3,.8-.65,.65-.8,.55-.8,.45-.9,.2-.45,.25-.4,.1-.5v-.15l.05-.1,.1-.2,.1-.5v-.15l.05-.1,.1-.2,.15-1,.05-1-.05-1.1-.15-1-.25-.95-.25-.9-.45-.9-.45-.85-.55-.8-.65-.75h0Zm-6.9-2.45h.9l.9,.15,.85,.2,.85,.35,.75,.35,.8,.5,.7,.55,.75,.75,.6,.7,.55,.75,.45,.8,.4,.85,.25,.85,.25,.95,.15,.95,.05,1-.05,.2v.75l-.1,.45-.05,.5-.25,.9-.25,.9-.4,.8-.45,.8-.3,.35-.25,.4-.6,.8-.4,.3-.2,.15-.15,.2-.7,.55-.8,.45-.4,.2-.2,.1-.1,.05-.05,.1-.85,.3-.45,.1-.4,.15-.9,.15-.9,.05-.95-.05-.9-.15-.9-.25-.8-.3-.8-.45-.75-.45-.75-.55-.65-.65-.65-.8-.55-.75-.5-.8-.35-.8-.35-.9-.15-.9-.15-.95v-.95l.15-1.95,.15-.95,.35-.85,.85-1.65,.55-.75,.65-.7,.65-.75,.75-.55,1.55-.85,.8-.35,.9-.2,1.85-.15h0Z"/>
      <path class="cls-121" d="M23.25,83.4l-.75-.75-.7-.55-.8-.5-.75-.35-.85-.35-.85-.2-.9-.15h-.9l-1.85,.15-.9,.2-.8,.35-1.55,.85-.75,.55-.65,.75-.65,.7-.55,.75-.85,1.65-.35,.85-.15,.95-.15,1.95v.95l.15,.95,.15,.9,.35,.9,.35,.8,.5,.8,.55,.75,.65,.8,.65,.65,.75,.55,.75,.45,.8,.45,.8,.3,.9,.25,.9,.15,.95,.05,.9-.05,.9-.15,.4-.15,.45-.1,.85-.3,.05-.1,.1-.05,.2-.1,.4-.2,.8-.45,.7-.55,.15-.2,.2-.15,.4-.3,.6-.8,.25-.4,.3-.35,.45-.8,.4-.8,.25-.9,.25-.9,.05-.5,.1-.45v-.75l.05-.2-.05-1-.15-.95-.25-.95-.25-.85-.4-.85-.45-.8-.55-.75-.6-.7h0Zm-6.5-2.25h.85l.85,.15,.8,.15,.8,.35,.7,.35,.75,.45,.65,.55,.7,.65,.55,.65,.5,.7,.45,.75,.4,.8,.25,.8,.2,.9,.15,.9,.05,.95-.05,.9-.15,.9-.2,.85-.15,.4-.1,.45-.4,.75-.1,.05-.05,.1-.1,.2-.2,.4-.5,.7-.3,.35-.25,.4-.7,.6-.2,.1-.1,.05-.05,.1-.3,.3-.4,.2-.2,.1-.1,.05-.05,.1-.7,.4-.8,.25-.8,.25h-.25l-.2,.05-.4,.1h-.45l-.4,.05-.9-.05-.85-.15-.85-.25-.75-.25-.75-.4-.7-.45-.7-.55-.6-.6-.65-.75-.5-.7-.45-.75-.35-.75-.3-.85-.15-.85-.15-.9v-.9l.15-1.85,.15-.9,.3-.8,.35-.8,.45-.75,1.15-1.35,.6-.65,.7-.55,.7-.45,.75-.35,.75-.35,.85-.15,1.75-.15h0Z"/>
      <path class="cls-122" d="M22.85,83.8l-.7-.65-.65-.55-.75-.45-.7-.35-.8-.35-.8-.15-.85-.15h-.85l-1.75,.15-.85,.15-.75,.35-.75,.35-.7,.45-.7,.55-.6,.65-1.15,1.35-.45,.75-.35,.8-.3,.8-.15,.9-.15,1.85v.9l.15,.9,.15,.85,.3,.85,.35,.75,.45,.75,.5,.7,.65,.75,.6,.6,.7,.55,.7,.45,.75,.4,.75,.25,.85,.25,.85,.15,.9,.05,.4-.05h.45l.4-.1,.2-.05h.25l.8-.25,.8-.25,.7-.4,.05-.1,.1-.05,.2-.1,.4-.2,.3-.3,.05-.1,.1-.05,.2-.1,.7-.6,.25-.4,.3-.35,.5-.7,.2-.4,.1-.2,.05-.1,.1-.05,.4-.75,.1-.45,.15-.4,.2-.85,.15-.9,.05-.9-.05-.95-.15-.9-.2-.9-.25-.8-.4-.8-.45-.75-.5-.7-.55-.65h0Zm-6.1-2.1h.75l.8,.15,.75,.15,.8,.3,.65,.3,.7,.45,.65,.5,.65,.65,.5,.6,.5,.7,.4,.7,.35,.75,.25,.75,.2,.8,.1,.85,.05,.9-.05,.8-.1,.85-.2,.8-.25,.8-.35,.7-.4,.75-.5,.65-.5,.7-.2,.1-.1,.05-.05,.1-.3,.3-.65,.5-.7,.45-.2,.05-.15,.1-.3,.2-.8,.25-.75,.2-.8,.15h-.75v.05l-.85-.05-.8-.15-.8-.2-.7-.25-.7-.35-.65-.45-.65-.5-.6-.55-.6-.7-.45-.65-.45-.75-.3-.7-.3-.8-.15-.8-.1-.85v-.8l.1-1.75,.45-1.55,.75-1.45,.45-.7,.6-.6,1.25-1.15,1.35-.75,.7-.3,.8-.15,1.65-.15h0Z"/>
      <path class="cls-42" d="M22.5,84.2l-.65-.65-.65-.5-.7-.45-.65-.3-.8-.3-.75-.15-.8-.15h-.75l-1.65,.15-.8,.15-.7,.3-1.35,.75-1.25,1.15-.6,.6-.45,.7-.75,1.45-.45,1.55-.1,1.75v.8l.1,.85,.15,.8,.3,.8,.3,.7,.45,.75,.45,.65,.6,.7,.6,.55,.65,.5,.65,.45,.7,.35,.7,.25,.8,.2,.8,.15,.85,.05v-.05h.75l.8-.15,.75-.2,.8-.25,.3-.2,.15-.1,.2-.05,.7-.45,.65-.5,.3-.3,.05-.1,.1-.05,.2-.1,.5-.7,.5-.65,.4-.75,.35-.7,.25-.8,.2-.8,.1-.85,.05-.8-.05-.9-.1-.85-.2-.8-.25-.75-.35-.75-.4-.7-.5-.7-.5-.6h0Zm-5.75-1.95h.7l.75,.1,.7,.15,.75,.3,.6,.3,.65,.45,.6,.45,.6,.6,.5,.55,.45,.65,.7,1.35,.4,1.45,.1,.8,.05,.85h-.05v.75l-.1,.8-.2,.75-.2,.75-.2,.3-.1,.15-.05,.2-.35,.7-.45,.6-.5,.65-.6,.5-.6,.5-.65,.4-.6,.35-.4,.1-.2,.05-.15,.1-.7,.2-.75,.1-.7,.05-.8-.05-.75-.1-.75-.2-.65-.25-.65-.35-.6-.4-1.15-1-.55-.65-.45-.6-.4-.7-.25-.65-.3-.75-.15-.75-.1-.8v-.75l.1-1.65,.45-1.45,.65-1.35,.45-.65,.55-.55,1.15-1.05,1.25-.75,.65-.3,.75-.15,1.55-.1h0Z"/>
      <path class="cls-59" d="M22.1,84.6l-.6-.6-.6-.45-.65-.45-.6-.3-.75-.3-.7-.15-.75-.1h-.7l-1.55,.1-.75,.15-.65,.3-1.25,.75-1.15,1.05-.55,.55-.45,.65-.65,1.35-.45,1.45-.1,1.65v.75l.1,.8,.15,.75,.3,.75,.25,.65,.4,.7,.45,.6,.55,.65,1.15,1,.6,.4,.65,.35,.65,.25,.75,.2,.75,.1,.8,.05,.7-.05,.75-.1,.7-.2,.15-.1,.2-.05,.4-.1,.6-.35,.65-.4,.6-.5,.6-.5,.5-.65,.45-.6,.35-.7,.05-.2,.1-.15,.2-.3,.2-.75,.2-.75,.1-.8v-.75h.05l-.05-.85-.1-.8-.4-1.45-.7-1.35-.45-.65-.5-.55h0Zm-5.35-1.75h.65l.7,.1,.65,.15,.65,.25,.55,.25,.6,.4,.55,.45,.6,.55,.45,.55,.4,.6,.35,.6,.3,.65,.4,1.35,.1,.7,.05,.8-.05,.7-.1,.75-.2,.65-.2,.7-.3,.6-.2,.3-.1,.15-.05,.2-.4,.6-.45,.6-.6,.45-.3,.2-.15,.1-.1,.15-.6,.35-.3,.15-.25,.2-.65,.2-.65,.2-.7,.1h-.35l-.3,.05-.75-.05-.7-.1-1.25-.4-.65-.35-.55-.35-1.05-.9-.55-.6-.4-.6-.35-.65-.25-.6-.25-.7-.15-.65-.1-.75v-1.5l.1-.7,.4-1.35,.6-1.25,.95-1.15,1.05-1,.55-.4,.65-.25,1.25-.4,1.45-.1h0Z"/>
      <path class="cls-44" d="M21.7,85l-.6-.55-.55-.45-.6-.4-.55-.25-.65-.25-.65-.15-.7-.1h-.65l-1.45,.1-1.25,.4-.65,.25-.55,.4-1.05,1-.95,1.15-.6,1.25-.4,1.35-.1,.7v1.5l.1,.75,.15,.65,.25,.7,.25,.6,.35,.65,.4,.6,.55,.6,1.05,.9,.55,.35,.65,.35,1.25,.4,.7,.1,.75,.05,.3-.05h.35l.7-.1,.65-.2,.65-.2,.25-.2,.3-.15,.6-.35,.1-.15,.15-.1,.3-.2,.6-.45,.45-.6,.4-.6,.05-.2,.1-.15,.2-.3,.3-.6,.2-.7,.2-.65,.1-.75,.05-.7-.05-.8-.1-.7-.4-1.35-.3-.65-.35-.6-.4-.6-.45-.55h0Zm-4.95-1.6h.6l.65,.1,.6,.15,.65,.25,.5,.25,.55,.35,.5,.4,.55,.5,.8,1.05,.6,1.15,.2,.6,.15,.65,.1,.65,.05,.75-.05,.3v.35l-.1,.7-.15,.6-.2,.65-.3,.55-.3,.6-.4,.55-.4,.55-.3,.2-.15,.1-.1,.15-.5,.4-.3,.15-.25,.2-.5,.3-.65,.2-.6,.15-.65,.1-.6,.05-.7-.05-.65-.1-.6-.15-.55-.2-.6-.3-.55-.35-.5-.4-.45-.45-.5-.55-.35-.55-.35-.6-.25-.55-.25-.65-.1-.6-.1-.7v-1.4l.1-.65,.35-1.25,.6-1.15,.85-1.05,.95-.9,1.15-.6,1.15-.4,1.35-.1h0Z"/>
      <path class="cls-52" d="M21.35,85.4l-.55-.5-.5-.4-.55-.35-.5-.25-.65-.25-.6-.15-.65-.1h-.6l-1.35,.1-1.15,.4-1.15,.6-.95,.9-.85,1.05-.6,1.15-.35,1.25-.1,.65v1.4l.1,.7,.1,.6,.25,.65,.25,.55,.35,.6,.35,.55,.5,.55,.45,.45,.5,.4,.55,.35,.6,.3,.55,.2,.6,.15,.65,.1,.7,.05,.6-.05,.65-.1,.6-.15,.65-.2,.5-.3,.25-.2,.3-.15,.5-.4,.1-.15,.15-.1,.3-.2,.4-.55,.4-.55,.3-.6,.3-.55,.2-.65,.15-.6,.1-.7v-.35l.05-.3-.05-.75-.1-.65-.15-.65-.2-.6-.6-1.15-.8-1.05h0Zm-4.6-1.4h.55l.6,.1,1.1,.35,1,.55,.45,.35,.5,.45,.7,.95,.6,1.05,.3,1.15,.1,.6,.05,.7-.05,.6-.1,.65-.1,.25-.05,.3-.15,.6-.3,.5-.3,.55-.7,1-.5,.4h-.15v.05l-.1,.1-.2,.2-1,.6-1.1,.3-.6,.1h-.45l-.1,.05-.65-.05-.6-.1-1.05-.3-1.05-.6-.45-.35-.4-.4-.8-1-.35-.55-.2-.5-.2-.6-.1-.55-.1-.65v-.6l.1-1.3,.3-1.15,.55-1.05,.8-.95,.85-.8,1.05-.55,1.05-.35,1.25-.1h0Z"/>
      <path class="cls-92" d="M20.95,85.8l-.5-.45-.45-.35-1-.55-1.1-.35-.6-.1h-.55l-1.25,.1-1.05,.35-1.05,.55-.85,.8-.8,.95-.55,1.05-.3,1.15-.1,1.3v.6l.1,.65,.1,.55,.2,.6,.2,.5,.35,.55,.8,1,.4,.4,.45,.35,1.05,.6,1.05,.3,.6,.1,.65,.05,.1-.05h.45l.6-.1,1.1-.3,1-.6,.2-.2,.1-.1v-.05h.15l.5-.4,.7-1,.3-.55,.3-.5,.15-.6,.05-.3,.1-.25,.1-.65,.05-.6-.05-.7-.1-.6-.3-1.15-.6-1.05-.7-.95h0Zm-4.2-1.25h.5l.55,.1,1,.3,.9,.5,.4,.3,.45,.45,.7,.85,.5,1,.3,1.05,.1,1.15-.1,1.1-.15,.5-.1,.25-.05,.3-.15,.2-.1,.25-.25,.5-.2,.2-.1,.1h-.05v.15l-.35,.5h-.15v.05l-.1,.1-.2,.2-.4,.35-.9,.5-1,.3-.55,.1-.5,.05-.6-.05-.55-.1-.95-.3-.95-.5-.75-.7-.4-.5-.3-.45-.3-.5-.2-.45-.2-.55-.1-.5-.1-1.1,.1-1.15,.3-1.05,.5-1,.7-.85,.75-.75,.95-.5,.95-.3,1.15-.1h0Z"/>
      <polygon class="cls-85" points="20.55 86.2 20.1 85.75 19.7 85.45 18.8 84.95 17.8 84.65 17.25 84.55 16.75 84.55 15.6 84.65 14.65 84.95 13.7 85.45 12.95 86.2 12.25 87.05 11.75 88.05 11.45 89.1 11.35 90.25 11.45 91.35 11.55 91.85 11.75 92.4 11.95 92.85 12.25 93.35 12.55 93.8 12.95 94.3 13.7 95 14.65 95.5 15.6 95.8 16.15 95.9 16.75 95.95 17.25 95.9 17.8 95.8 18.8 95.5 19.7 95 20.1 94.65 20.3 94.45 20.4 94.35 20.4 94.3 20.45 94.3 20.55 94.3 20.9 93.8 20.9 93.7 20.9 93.65 20.95 93.65 21.05 93.55 21.25 93.35 21.5 92.85 21.6 92.6 21.75 92.4 21.8 92.1 21.9 91.85 22.05 91.35 22.15 90.25 22.05 89.1 21.75 88.05 21.25 87.05 20.55 86.2 20.55 86.2"/>
      <polygon class="cls-69" points="21.2 94.9 21.6 94.35 22 93.85 22.3 93.3 22.6 92.8 22.8 92.2 22.95 91.6 23.05 90.95 23.1 90.35 23.05 89.65 22.95 89 22.8 88.4 22.6 87.85 22 86.75 21.2 85.8 20.65 85.3 20.15 84.95 19.6 84.6 19.1 84.35 17.9 84 17.25 83.9 16.65 83.9 15.3 84 14.15 84.35 13.05 84.95 12.1 85.8 11.25 86.75 10.65 87.85 10.3 89 10.2 90.35 10.2 90.95 10.3 91.6 10.65 92.8 10.9 93.3 11.25 93.85 11.6 94.35 12.1 94.9 13.05 95.7 14.15 96.3 14.7 96.5 15.3 96.65 15.95 96.75 16.65 96.8 17.25 96.75 17.9 96.65 18.5 96.5 19.1 96.3 19.6 96 20.15 95.7 20.65 95.3 21.2 94.9 21.2 94.9"/>
      <polyline class="cls-2" points="23.1 90.35 23.05 89.65 22.95 89 22.8 88.4 22.6 87.85 22 86.75 21.2 85.8 20.65 85.3 20.15 84.95 19.6 84.6 19.1 84.35 17.9 84 17.25 83.9 16.65 83.9 15.3 84 14.15 84.35 13.05 84.95 12.1 85.8 11.25 86.75 10.65 87.85 10.3 89 10.2 90.35 10.2 90.95 10.3 91.6 10.65 92.8 10.9 93.3 11.25 93.85 11.6 94.35 12.1 94.9 13.05 95.7 14.15 96.3 14.7 96.5 15.3 96.65 15.95 96.75 16.65 96.8 17.25 96.75 17.9 96.65 18.5 96.5 19.1 96.3 19.6 96 20.15 95.7 20.65 95.3 21.2 94.9 21.6 94.35 22 93.85 22.3 93.3 22.6 92.8 22.8 92.2 22.95 91.6 23.05 90.95 23.1 90.35"/>
      <polygon class="cls-60" points="41.35 221.8 41.65 221.75 42 221.65 42.1 221.55 42.1 221.5 42.15 221.5 42.25 221.5 42.55 221.3 50.25 213.6 50.25 244.35 53.65 244.35 53.65 213.6 61.3 221.3 61.55 221.5 61.85 221.65 62.15 221.75 62.5 221.8 62.8 221.75 63.15 221.65 63.45 221.5 63.75 221.3 63.9 221 63.9 220.9 63.9 220.85 63.95 220.85 64.05 220.75 64.15 220.4 64.2 220.1 64.15 219.75 64.05 219.45 63.75 218.9 53.15 208.3 52.85 208.05 52.6 207.9 52.25 207.8 51.95 207.8 51.55 207.8 51.25 207.9 50.7 208.3 40.2 218.9 39.75 219.45 39.65 220.1 39.65 220.4 39.75 220.75 39.9 221 40.2 221.3 40.4 221.5 40.7 221.65 41 221.75 41.35 221.8 41.35 221.8"/>
    </g>
  </g>
</svg>