<?xml version="1.0" encoding="UTF-8"?>
<svg id="_图层_2" data-name="图层 2" xmlns="http://www.w3.org/2000/svg" viewBox="0 0 75.3 125">
  <defs>
    <style>
      .cls-1 {
        fill: none;
        stroke: #999;
        stroke-linecap: square;
        stroke-miterlimit: 10;
      }

      .cls-2 {
        fill: #fd0f0f;
      }

      .cls-2, .cls-3, .cls-4, .cls-5, .cls-6, .cls-7, .cls-8, .cls-9, .cls-10, .cls-11, .cls-12, .cls-13, .cls-14, .cls-15, .cls-16, .cls-17, .cls-18, .cls-19, .cls-20, .cls-21, .cls-22, .cls-23, .cls-24, .cls-25, .cls-26, .cls-27, .cls-28, .cls-29, .cls-30, .cls-31, .cls-32, .cls-33, .cls-34, .cls-35, .cls-36, .cls-37, .cls-38, .cls-39, .cls-40, .cls-41, .cls-42, .cls-43, .cls-44, .cls-45, .cls-46, .cls-47, .cls-48, .cls-49, .cls-50, .cls-51, .cls-52, .cls-53, .cls-54, .cls-55, .cls-56, .cls-57, .cls-58, .cls-59, .cls-60, .cls-61, .cls-62, .cls-63, .cls-64, .cls-65, .cls-66, .cls-67, .cls-68, .cls-69, .cls-70, .cls-71, .cls-72, .cls-73, .cls-74, .cls-75, .cls-76, .cls-77, .cls-78, .cls-79, .cls-80, .cls-81, .cls-82, .cls-83, .cls-84, .cls-85, .cls-86, .cls-87, .cls-88, .cls-89 {
        fill-rule: evenodd;
      }

      .cls-3 {
        fill: #fd1111;
      }

      .cls-4 {
        fill: #fd1717;
      }

      .cls-5 {
        fill: #fd1616;
      }

      .cls-6 {
        fill: #fd0b0b;
      }

      .cls-7 {
        fill: #fda0a0;
      }

      .cls-8 {
        fill: #fda1a1;
      }

      .cls-9 {
        fill: #fdb3b3;
      }

      .cls-10 {
        fill: #fdfdfd;
      }

      .cls-11 {
        fill: #fda5a5;
      }

      .cls-12 {
        fill: #fda4a4;
      }

      .cls-13 {
        fill: #fddddd;
      }

      .cls-14 {
        fill: #fdf3f3;
      }

      .cls-15 {
        fill: #fde0e0;
      }

      .cls-16 {
        fill: #fddcdc;
      }

      .cls-17 {
        fill: #fdf6f6;
      }

      .cls-18 {
        fill: #fdf2f2;
      }

      .cls-19 {
        fill: #fdf9f9;
      }

      .cls-20 {
        fill: #fd4848;
      }

      .cls-21 {
        fill: #fde3e3;
      }

      .cls-22 {
        fill: #fd4949;
      }

      .cls-23 {
        fill: #fde9e9;
      }

      .cls-24 {
        fill: #fde4e4;
      }

      .cls-25 {
        fill: #fd4e4e;
      }

      .cls-26 {
        fill: #fde6e6;
      }

      .cls-27 {
        fill: #fdebeb;
      }

      .cls-28 {
        fill: #fdf8f8;
      }

      .cls-29 {
        fill: #fdeaea;
      }

      .cls-30 {
        fill: #fdf0f0;
      }

      .cls-31 {
        fill: #fdefef;
      }

      .cls-32 {
        fill: #fd9a9a;
      }

      .cls-33 {
        fill: #fd9f9f;
      }

      .cls-34 {
        fill: #fd9c9c;
      }

      .cls-35 {
        fill: #fd5454;
      }

      .cls-36 {
        fill: #fd3b3b;
      }

      .cls-37 {
        fill: #fdc9c9;
      }

      .cls-38 {
        fill: #fd3d3d;
      }

      .cls-39 {
        fill: #fdd8d8;
      }

      .cls-40 {
        fill: #fdcfcf;
      }

      .cls-41 {
        fill: #fdcccc;
      }

      .cls-42 {
        fill: #fdcdcd;
      }

      .cls-43 {
        fill: #fdcaca;
      }

      .cls-44 {
        fill: #fdbfbf;
      }

      .cls-45 {
        fill: #fdbcbc;
      }

      .cls-46 {
        fill: #fdd2d2;
      }

      .cls-47 {
        fill: #fdb6b6;
      }

      .cls-48 {
        fill: #fdb9b9;
      }

      .cls-49 {
        fill: #fdaaaa;
      }

      .cls-50 {
        fill: #fdb8b8;
      }

      .cls-51 {
        fill: #fdd3d3;
      }

      .cls-52 {
        fill: #fdc0c0;
      }

      .cls-53 {
        fill: #fdd7d7;
      }

      .cls-54 {
        fill: #fdc1c1;
      }

      .cls-55 {
        fill: #fda6a6;
      }

      .cls-56 {
        fill: #fdc7c7;
      }

      .cls-57 {
        fill: #fda9a9;
      }

      .cls-58 {
        fill: #fdaeae;
      }

      .cls-59 {
        fill: #fdacac;
      }

      .cls-60 {
        fill: #fdc6c6;
      }

      .cls-61 {
        fill: #fdc5c5;
      }

      .cls-62 {
        fill: #fdc4c4;
      }

      .cls-63 {
        fill: #fd9b9b;
      }

      .cls-64 {
        fill: #fd6767;
      }

      .cls-65 {
        fill: #fd9797;
      }

      .cls-66 {
        fill: #fd9494;
      }

      .cls-67 {
        fill: #fd2222;
      }

      .cls-68 {
        fill: #fd6161;
      }

      .cls-69 {
        fill: #fd9595;
      }

      .cls-70 {
        fill: #fd6f6f;
      }

      .cls-71 {
        fill: #fd7474;
      }

      .cls-72 {
        fill: #fd7575;
      }

      .cls-73 {
        fill: #fd2525;
      }

      .cls-74 {
        fill: #fd6e6e;
      }

      .cls-75 {
        fill: #fd5b5b;
      }

      .cls-76 {
        fill: #fd1d1d;
      }

      .cls-77 {
        fill: #fd1c1c;
      }

      .cls-78 {
        fill: #fd2f2f;
      }

      .cls-79 {
        fill: #fd2828;
      }

      .cls-80 {
        fill: #fd4242;
      }

      .cls-81 {
        fill: #fd4343;
      }

      .cls-82 {
        fill: #fd8787;
      }

      .cls-83 {
        fill: #fd6969;
      }

      .cls-84 {
        fill: #fd3535;
      }

      .cls-85 {
        fill: #fd8080;
      }

      .cls-86 {
        fill: #fd9393;
      }

      .cls-87 {
        fill: #fd7a7a;
      }

      .cls-88 {
        fill: #fd8d8d;
      }

      .cls-89 {
        fill: #fd8e8e;
      }
    </style>
  </defs>
  <g id="_图层_1-2" data-name="图层 1">
    <g>
      <polygon class="cls-44" points="41.07 .5 39.92 .5 39.92 54.8 41.07 54.8 41.07 .5 41.07 .5"/>
      <polygon class="cls-48" points="42.22 .5 41.07 .5 41.07 54.8 42.22 54.8 42.22 .5 42.22 .5"/>
      <polygon class="cls-9" points="43.42 .5 42.22 .5 42.22 54.8 43.42 54.8 43.42 .5 43.42 .5"/>
      <polygon class="cls-32" points="48.02 .5 46.87 .5 46.87 54.8 48.02 54.8 48.02 .5 48.02 .5"/>
      <polygon class="cls-7" points="46.87 .5 45.72 .5 45.72 54.8 46.87 54.8 46.87 .5 46.87 .5"/>
      <polygon class="cls-55" points="45.72 .5 44.57 .5 44.57 54.8 45.72 54.8 45.72 .5 45.72 .5"/>
      <polygon class="cls-59" points="44.57 .5 43.42 .5 43.42 54.8 44.57 54.8 44.57 .5 44.57 .5"/>
      <polygon class="cls-17" points="30.67 .5 29.52 .5 29.52 54.8 30.67 54.8 30.67 .5 30.67 .5"/>
      <polygon class="cls-30" points="31.82 .5 30.67 .5 30.67 54.8 31.82 54.8 31.82 .5 31.82 .5"/>
      <polygon class="cls-27" points="33.02 .5 31.82 .5 31.82 54.8 33.02 54.8 33.02 .5 33.02 .5"/>
      <polygon class="cls-46" points="37.62 .5 36.47 .5 36.47 54.8 37.62 54.8 37.62 .5 37.62 .5"/>
      <polygon class="cls-41" points="38.77 .5 37.62 .5 37.62 54.8 38.77 54.8 38.77 .5 38.77 .5"/>
      <polygon class="cls-13" points="35.32 .5 34.17 .5 34.17 54.8 35.32 54.8 35.32 .5 35.32 .5"/>
      <polygon class="cls-53" points="36.47 .5 35.32 .5 35.32 54.8 36.47 54.8 36.47 .5 36.47 .5"/>
      <polygon class="cls-21" points="34.17 .5 33.02 .5 33.02 54.8 34.17 54.8 34.17 .5 34.17 .5"/>
      <polygon class="cls-60" points="39.92 .5 38.77 .5 38.77 54.8 39.92 54.8 39.92 .5 39.92 .5"/>
      <polygon class="cls-35" points="60.72 .5 59.57 .5 59.57 54.8 60.72 54.8 60.72 .5 60.72 .5"/>
      <polygon class="cls-25" points="61.87 .5 60.72 .5 60.72 54.8 61.87 54.8 61.87 .5 61.87 .5"/>
      <polygon class="cls-20" points="63.02 .5 61.87 .5 61.87 54.8 63.02 54.8 63.02 .5 63.02 .5"/>
      <polygon class="cls-79" points="68.82 .5 67.67 .5 67.67 54.8 68.82 54.8 68.82 .5 68.82 .5"/>
      <polygon class="cls-36" points="65.37 .5 64.22 .5 64.22 54.8 65.37 54.8 65.37 .5 65.37 .5"/>
      <polygon class="cls-84" points="66.52 .5 65.37 .5 65.37 54.8 66.52 54.8 66.52 .5 66.52 .5"/>
      <polygon class="cls-78" points="67.67 .5 66.52 .5 66.52 54.8 67.67 54.8 67.67 .5 67.67 .5"/>
      <polygon class="cls-80" points="64.22 .5 63.02 .5 63.02 54.8 64.22 54.8 64.22 .5 64.22 .5"/>
      <polygon class="cls-87" points="53.82 .5 52.62 .5 52.62 54.8 53.82 54.8 53.82 .5 53.82 .5"/>
      <polygon class="cls-88" points="50.32 .5 49.17 .5 49.17 54.8 50.32 54.8 50.32 .5 50.32 .5"/>
      <polygon class="cls-82" points="51.47 .5 50.32 .5 50.32 54.8 51.47 54.8 51.47 .5 51.47 .5"/>
      <polygon class="cls-85" points="52.62 .5 51.47 .5 51.47 54.8 52.62 54.8 52.62 .5 52.62 .5"/>
      <polygon class="cls-68" points="58.42 .5 57.27 .5 57.27 54.8 58.42 54.8 58.42 .5 58.42 .5"/>
      <polygon class="cls-64" points="57.27 .5 56.12 .5 56.12 54.8 57.27 54.8 57.27 .5 57.27 .5"/>
      <polygon class="cls-74" points="56.12 .5 54.97 .5 54.97 54.8 56.12 54.8 56.12 .5 56.12 .5"/>
      <polygon class="cls-71" points="54.97 .5 53.82 .5 53.82 54.8 54.97 54.8 54.97 .5 54.97 .5"/>
      <polygon class="cls-75" points="59.57 .5 58.42 .5 58.42 54.8 59.57 54.8 59.57 .5 59.57 .5"/>
      <polygon class="cls-86" points="49.17 .5 48.02 .5 48.02 54.8 49.17 54.8 49.17 .5 49.17 .5"/>
      <polygon class="cls-88" points="1.82 .5 .67 .5 .67 54.8 1.82 54.8 1.82 .5 1.82 .5"/>
      <polygon class="cls-86" points="2.97 .5 1.82 .5 1.82 54.8 2.97 54.8 2.97 .5 2.97 .5"/>
      <polygon class="cls-11" points="7.57 .5 6.42 .5 6.42 54.8 7.57 54.8 7.57 .5 7.57 .5"/>
      <polygon class="cls-34" points="5.27 .5 4.12 .5 4.12 54.8 5.27 54.8 5.27 .5 5.27 .5"/>
      <polygon class="cls-8" points="6.42 .5 5.27 .5 5.27 54.8 6.42 54.8 6.42 .5 6.42 .5"/>
      <polygon class="cls-65" points="4.12 .5 2.97 .5 2.97 54.8 4.12 54.8 4.12 .5 4.12 .5"/>
      <polygon class="cls-39" points="20.27 .5 19.12 .5 19.12 54.8 20.27 54.8 20.27 .5 20.27 .5"/>
      <polygon class="cls-16" points="21.42 .5 20.27 .5 20.27 54.8 21.42 54.8 21.42 .5 21.42 .5"/>
      <polygon class="cls-15" points="22.62 .5 21.42 .5 21.42 54.8 22.62 54.8 22.62 .5 22.62 .5"/>
      <polygon class="cls-28" points="28.37 .5 27.22 .5 27.22 54.8 28.37 54.8 28.37 .5 28.37 .5"/>
      <polygon class="cls-29" points="24.92 .5 23.77 .5 23.77 54.8 24.92 54.8 24.92 .5 24.92 .5"/>
      <polygon class="cls-31" points="26.07 .5 24.92 .5 24.92 54.8 26.07 54.8 26.07 .5 26.07 .5"/>
      <polygon class="cls-14" points="27.22 .5 26.07 .5 26.07 54.8 27.22 54.8 27.22 .5 27.22 .5"/>
      <polygon class="cls-26" points="23.77 .5 22.62 .5 22.62 54.8 23.77 54.8 23.77 .5 23.77 .5"/>
      <polygon class="cls-47" points="12.22 .5 11.02 .5 11.02 54.8 12.22 54.8 12.22 .5 12.22 .5"/>
      <polygon class="cls-45" points="13.37 .5 12.22 .5 12.22 54.8 13.37 54.8 13.37 .5 13.37 .5"/>
      <polygon class="cls-58" points="9.87 .5 8.72 .5 8.72 54.8 9.87 54.8 9.87 .5 9.87 .5"/>
      <polygon class="cls-9" points="11.02 .5 9.87 .5 9.87 54.8 11.02 54.8 11.02 .5 11.02 .5"/>
      <polygon class="cls-40" points="17.97 .5 16.82 .5 16.82 54.8 17.97 54.8 17.97 .5 17.97 .5"/>
      <polygon class="cls-43" points="16.82 .5 15.67 .5 15.67 54.8 16.82 54.8 16.82 .5 16.82 .5"/>
      <polygon class="cls-61" points="15.67 .5 14.52 .5 14.52 54.8 15.67 54.8 15.67 .5 15.67 .5"/>
      <polygon class="cls-54" points="14.52 .5 13.37 .5 13.37 54.8 14.52 54.8 14.52 .5 14.52 .5"/>
      <polygon class="cls-51" points="19.12 .5 17.97 .5 17.97 54.8 19.12 54.8 19.12 .5 19.12 .5"/>
      <polygon class="cls-49" points="8.72 .5 7.57 .5 7.57 54.8 8.72 54.8 8.72 .5 8.72 .5"/>
      <polygon class="cls-73" points="68.82 .5 68.82 54.8 69.97 54.8 69.97 .5 68.82 .5 68.82 .5"/>
      <polygon class="cls-19" points="29.52 54.8 29.52 .5 28.37 .5 28.37 54.8 29.52 54.8 29.52 54.8"/>
      <polygon class="cls-6" points="74.62 .5 73.42 .5 73.42 54.8 74.62 54.8 74.62 .5 74.62 .5"/>
      <polygon class="cls-2" points="73.42 .5 72.27 .5 72.27 54.8 73.42 54.8 73.42 .5 73.42 .5"/>
      <polygon class="cls-5" points="72.27 .5 71.12 .5 71.12 54.8 72.27 54.8 72.27 .5 72.27 .5"/>
      <polygon class="cls-77" points="71.12 .5 69.97 .5 69.97 54.8 71.12 54.8 71.12 .5 71.12 .5"/>
      <polygon class="cls-88" points="1.82 54.8 .67 54.8 1.82 57.1 1.82 54.8 1.82 54.8"/>
      <polygon class="cls-86" points="2.97 54.8 1.82 54.8 1.82 57.1 2.97 59.3 2.97 54.8 2.97 54.8"/>
      <polygon class="cls-11" points="7.57 54.8 6.42 54.8 6.42 66 7.57 68.2 7.57 54.8 7.57 54.8"/>
      <polygon class="cls-34" points="5.27 54.8 4.12 54.8 4.12 61.55 5.27 63.75 5.27 54.8 5.27 54.8"/>
      <polygon class="cls-8" points="6.42 54.8 5.27 54.8 5.27 63.75 6.42 66 6.42 54.8 6.42 54.8"/>
      <polygon class="cls-65" points="4.12 54.8 2.97 54.8 2.97 59.3 4.12 61.55 4.12 54.8 4.12 54.8"/>
      <polygon class="cls-39" points="20.27 54.8 19.12 54.8 19.12 90.4 20.27 92.65 20.27 54.8 20.27 54.8"/>
      <polygon class="cls-16" points="21.42 54.8 20.27 54.8 20.27 92.65 21.42 94.85 21.42 54.8 21.42 54.8"/>
      <polygon class="cls-15" points="22.62 54.8 21.42 54.8 21.42 94.85 22.62 97.15 22.62 54.8 22.62 54.8"/>
      <polygon class="cls-29" points="24.92 54.8 23.77 54.8 23.77 99.35 24.92 101.6 24.92 54.8 24.92 54.8"/>
      <polygon class="cls-31" points="26.07 54.8 24.92 54.8 24.92 101.6 26.07 103.8 26.07 54.8 26.07 54.8"/>
      <polygon class="cls-28" points="28.37 54.8 27.22 54.8 27.22 106 27.82 107.1 28.37 107.1 28.37 54.8 28.37 54.8"/>
      <polygon class="cls-14" points="27.22 54.8 26.07 54.8 26.07 103.8 27.22 106 27.22 54.8 27.22 54.8"/>
      <polygon class="cls-26" points="23.77 54.8 22.62 54.8 22.62 97.15 23.77 99.35 23.77 54.8 23.77 54.8"/>
      <polygon class="cls-58" points="9.87 54.8 8.72 54.8 8.72 70.4 9.87 72.65 9.87 54.8 9.87 54.8"/>
      <polygon class="cls-47" points="12.22 54.8 11.02 54.8 11.02 74.85 12.22 77.15 12.22 54.8 12.22 54.8"/>
      <polygon class="cls-45" points="13.37 54.8 12.22 54.8 12.22 77.15 13.37 79.35 13.37 54.8 13.37 54.8"/>
      <polygon class="cls-9" points="11.02 54.8 9.87 54.8 9.87 72.65 11.02 74.85 11.02 54.8 11.02 54.8"/>
      <polygon class="cls-40" points="17.97 54.8 16.82 54.8 16.82 86 17.97 88.2 17.97 54.8 17.97 54.8"/>
      <polygon class="cls-43" points="16.82 54.8 15.67 54.8 15.67 83.8 16.82 86 16.82 54.8 16.82 54.8"/>
      <polygon class="cls-61" points="15.67 54.8 14.52 54.8 14.52 81.6 15.67 83.8 15.67 54.8 15.67 54.8"/>
      <polygon class="cls-54" points="14.52 54.8 13.37 54.8 13.37 79.35 14.52 81.6 14.52 54.8 14.52 54.8"/>
      <polygon class="cls-51" points="19.12 54.8 17.97 54.8 17.97 88.2 19.12 90.4 19.12 54.8 19.12 54.8"/>
      <polygon class="cls-49" points="8.72 54.8 7.57 54.8 7.57 68.2 8.72 70.4 8.72 54.8 8.72 54.8"/>
      <polygon class="cls-44" points="41.07 54.8 39.92 54.8 39.92 107.1 41.07 107.1 41.07 54.8 41.07 54.8"/>
      <polygon class="cls-48" points="42.22 54.8 41.07 54.8 41.07 107.1 42.22 107.1 42.22 54.8 42.22 54.8"/>
      <polygon class="cls-9" points="43.42 54.8 42.22 54.8 42.22 107.1 43.42 107.1 43.42 54.8 43.42 54.8"/>
      <polygon class="cls-32" points="48.02 54.8 46.87 54.8 46.87 107.1 47.47 107.1 48.02 106 48.02 54.8 48.02 54.8"/>
      <polygon class="cls-7" points="46.87 54.8 45.72 54.8 45.72 107.1 46.87 107.1 46.87 54.8 46.87 54.8"/>
      <polygon class="cls-55" points="45.72 54.8 44.57 54.8 44.57 107.1 45.72 107.1 45.72 54.8 45.72 54.8"/>
      <polygon class="cls-59" points="44.57 54.8 43.42 54.8 43.42 107.1 44.57 107.1 44.57 54.8 44.57 54.8"/>
      <polygon class="cls-17" points="30.67 54.8 29.52 54.8 29.52 107.1 30.67 107.1 30.67 54.8 30.67 54.8"/>
      <polygon class="cls-30" points="31.82 54.8 30.67 54.8 30.67 107.1 31.82 107.1 31.82 54.8 31.82 54.8"/>
      <polygon class="cls-27" points="33.02 54.8 31.82 54.8 31.82 107.1 33.02 107.1 33.02 54.8 33.02 54.8"/>
      <polygon class="cls-13" points="35.32 54.8 34.17 54.8 34.17 107.1 35.32 107.1 35.32 54.8 35.32 54.8"/>
      <polygon class="cls-46" points="37.62 54.8 36.47 54.8 36.47 107.1 37.62 107.1 37.62 54.8 37.62 54.8"/>
      <polygon class="cls-41" points="38.77 54.8 37.62 54.8 37.62 107.1 38.77 107.1 38.77 54.8 38.77 54.8"/>
      <polygon class="cls-53" points="36.47 54.8 35.32 54.8 35.32 107.1 36.47 107.1 36.47 54.8 36.47 54.8"/>
      <polygon class="cls-21" points="34.17 54.8 33.02 54.8 33.02 107.1 34.17 107.1 34.17 54.8 34.17 54.8"/>
      <polygon class="cls-60" points="39.92 54.8 38.77 54.8 38.77 107.1 39.92 107.1 39.92 54.8 39.92 54.8"/>
      <polygon class="cls-35" points="60.72 54.8 59.57 54.8 59.57 83.7 60.72 81.5 60.72 54.8 60.72 54.8"/>
      <polygon class="cls-25" points="61.87 54.8 60.72 54.8 60.72 81.5 61.87 79.3 61.87 54.8 61.87 54.8"/>
      <polygon class="cls-20" points="63.02 54.8 61.87 54.8 61.87 79.3 63.02 77.1 63.02 54.8 63.02 54.8"/>
      <polygon class="cls-36" points="65.37 54.8 64.22 54.8 64.22 74.8 65.37 72.55 65.37 54.8 65.37 54.8"/>
      <polygon class="cls-84" points="66.52 54.8 65.37 54.8 65.37 72.55 66.52 70.35 66.52 54.8 66.52 54.8"/>
      <polygon class="cls-79" points="68.82 54.8 67.67 54.8 67.67 68.15 68.82 65.9 68.82 54.8 68.82 54.8"/>
      <polygon class="cls-78" points="67.67 54.8 66.52 54.8 66.52 70.35 67.67 68.15 67.67 54.8 67.67 54.8"/>
      <polygon class="cls-80" points="64.22 54.8 63.02 54.8 63.02 77.1 64.22 74.8 64.22 54.8 64.22 54.8"/>
      <polygon class="cls-88" points="50.32 54.8 49.17 54.8 49.17 103.8 50.32 101.55 50.32 54.8 50.32 54.8"/>
      <polygon class="cls-82" points="51.47 54.8 50.32 54.8 50.32 101.55 51.47 99.35 51.47 54.8 51.47 54.8"/>
      <polygon class="cls-87" points="53.82 54.8 52.62 54.8 52.62 97.1 53.82 94.8 53.82 54.8 53.82 54.8"/>
      <polygon class="cls-85" points="52.62 54.8 51.47 54.8 51.47 99.35 52.62 97.1 52.62 54.8 52.62 54.8"/>
      <polygon class="cls-68" points="58.42 54.8 57.27 54.8 57.27 88.15 58.42 85.95 58.42 54.8 58.42 54.8"/>
      <polygon class="cls-64" points="57.27 54.8 56.12 54.8 56.12 90.35 57.27 88.15 57.27 54.8 57.27 54.8"/>
      <polygon class="cls-74" points="56.12 54.8 54.97 54.8 54.97 92.6 56.12 90.35 56.12 54.8 56.12 54.8"/>
      <polygon class="cls-71" points="54.97 54.8 53.82 54.8 53.82 94.8 54.97 92.6 54.97 54.8 54.97 54.8"/>
      <polygon class="cls-73" points="68.82 54.8 68.82 65.9 69.97 63.7 69.97 54.8 68.82 54.8 68.82 54.8"/>
      <polygon class="cls-75" points="59.57 54.8 58.42 54.8 58.42 85.95 59.57 83.7 59.57 54.8 59.57 54.8"/>
      <polygon class="cls-86" points="49.17 54.8 48.02 54.8 48.02 106 49.17 103.8 49.17 54.8 49.17 54.8"/>
      <polygon class="cls-10" points="29.52 54.8 28.37 54.8 28.37 107.1 29.52 107.1 29.52 54.8 29.52 54.8"/>
      <polygon class="cls-2" points="73.42 54.8 72.27 54.8 72.27 59.3 73.42 57.05 73.42 54.8 73.42 54.8"/>
      <polygon class="cls-6" points="74.62 54.8 73.42 54.8 73.42 57.05 74.62 54.8 74.62 54.8"/>
      <polygon class="cls-5" points="72.27 54.8 71.12 54.8 71.12 61.5 72.27 59.3 72.27 54.8 72.27 54.8"/>
      <polygon class="cls-77" points="71.12 54.8 69.97 54.8 69.97 63.7 71.12 61.5 71.12 54.8 71.12 54.8"/>
      <polygon class="cls-21" points="36.72 107.1 36.37 107.1 36.37 124.5 36.72 124.5 36.72 107.1 36.72 107.1"/>
      <polygon class="cls-13" points="37.02 107.1 36.72 107.1 36.72 124.5 37.02 124.5 37.02 107.1 37.02 107.1"/>
      <polygon class="cls-53" points="37.32 107.1 37.02 107.1 37.02 124.5 37.32 124.5 37.32 107.1 37.32 107.1"/>
      <polygon class="cls-54" points="38.52 107.1 38.22 107.1 38.22 124.5 38.52 124.5 38.52 107.1 38.52 107.1"/>
      <polygon class="cls-56" points="38.22 107.1 37.92 107.1 37.92 124.5 38.22 124.5 38.22 107.1 38.22 107.1"/>
      <polygon class="cls-42" points="37.92 107.1 37.62 107.1 37.62 124.5 37.92 124.5 37.92 107.1 37.92 107.1"/>
      <polygon class="cls-46" points="37.62 107.1 37.32 107.1 37.32 124.5 37.62 124.5 37.62 107.1 37.62 107.1"/>
      <polygon class="cls-14" points="34.87 107.1 34.57 107.1 34.57 124.5 34.87 124.5 34.87 107.1 34.87 107.1"/>
      <polygon class="cls-31" points="34.57 107.1 34.22 107.1 34.22 124.5 34.57 124.5 34.57 107.1 34.57 107.1"/>
      <polygon class="cls-23" points="34.22 107.1 33.92 107.1 33.92 124.5 34.22 124.5 34.22 107.1 34.22 107.1"/>
      <polygon class="cls-18" points="36.07 107.1 35.77 107.1 35.77 124.5 36.07 124.5 36.07 107.1 36.07 107.1"/>
      <polygon class="cls-28" points="35.77 107.1 35.47 107.1 35.47 124.5 35.77 124.5 35.77 107.1 35.77 107.1"/>
      <polygon class="cls-10" points="35.47 107.1 35.17 107.1 35.17 124.5 35.47 124.5 35.47 107.1 35.47 107.1"/>
      <polygon class="cls-28" points="35.17 107.1 34.87 107.1 34.87 124.5 35.17 124.5 35.17 107.1 35.17 107.1"/>
      <polygon class="cls-27" points="36.37 107.1 36.07 107.1 36.07 124.5 36.37 124.5 36.37 107.1 36.37 107.1"/>
      <polygon class="cls-62" points="31.77 107.1 31.47 107.1 31.47 124.5 31.77 124.5 31.77 107.1 31.77 107.1"/>
      <polygon class="cls-37" points="32.07 107.1 31.77 107.1 31.77 124.5 32.07 124.5 32.07 107.1 32.07 107.1"/>
      <polygon class="cls-40" points="32.42 107.1 32.07 107.1 32.07 124.5 32.42 124.5 32.42 107.1 32.42 107.1"/>
      <polygon class="cls-15" points="33.62 107.1 33.32 107.1 33.32 124.5 33.62 124.5 33.62 107.1 33.62 107.1"/>
      <polygon class="cls-16" points="33.32 107.1 33.02 107.1 33.02 124.5 33.32 124.5 33.32 107.1 33.32 107.1"/>
      <polygon class="cls-39" points="33.02 107.1 32.72 107.1 32.72 124.5 33.02 124.5 33.02 107.1 33.02 107.1"/>
      <polygon class="cls-51" points="32.72 107.1 32.42 107.1 32.42 124.5 32.72 124.5 32.72 107.1 32.72 107.1"/>
      <polygon class="cls-57" points="29.92 107.1 29.62 107.1 29.62 124.5 29.92 124.5 29.92 107.1 29.92 107.1"/>
      <polygon class="cls-33" points="29.32 107.1 29.02 107.1 29.02 124.5 29.32 124.5 29.32 107.1 29.32 107.1"/>
      <polygon class="cls-63" points="29.02 107.1 28.72 107.1 28.72 124.5 29.02 124.5 29.02 107.1 29.02 107.1"/>
      <polygon class="cls-12" points="29.62 107.1 29.32 107.1 29.32 124.5 29.62 124.5 29.62 107.1 29.62 107.1"/>
      <polygon class="cls-45" points="31.17 107.1 30.87 107.1 30.87 124.5 31.17 124.5 31.17 107.1 31.17 107.1"/>
      <polygon class="cls-50" points="30.87 107.1 30.57 107.1 30.57 124.5 30.87 124.5 30.87 107.1 30.87 107.1"/>
      <polygon class="cls-9" points="30.57 107.1 30.27 107.1 30.27 124.5 30.57 124.5 30.57 107.1 30.57 107.1"/>
      <polygon class="cls-58" points="30.27 107.1 29.92 107.1 29.92 124.5 30.27 124.5 30.27 107.1 30.27 107.1"/>
      <polygon class="cls-52" points="31.47 107.1 31.17 107.1 31.17 124.5 31.47 124.5 31.47 107.1 31.47 107.1"/>
      <polygon class="cls-24" points="33.92 107.1 33.62 107.1 33.62 124.5 33.92 124.5 33.92 107.1 33.92 107.1"/>
      <polygon class="cls-6" points="47.47 107.1 47.12 107.1 47.12 124.5 47.47 124.5 47.47 107.1 47.47 107.1"/>
      <polygon class="cls-3" points="47.12 107.1 46.82 107.1 46.82 124.5 47.12 124.5 47.12 107.1 47.12 107.1"/>
      <polygon class="cls-4" points="46.82 107.1 46.52 107.1 46.52 124.5 46.82 124.5 46.82 107.1 46.82 107.1"/>
      <polygon class="cls-38" points="44.97 107.1 44.67 107.1 44.67 124.5 44.97 124.5 44.97 107.1 44.97 107.1"/>
      <polygon class="cls-81" points="44.67 107.1 44.37 107.1 44.37 124.5 44.67 124.5 44.67 107.1 44.67 107.1"/>
      <polygon class="cls-22" points="44.37 107.1 44.07 107.1 44.07 124.5 44.37 124.5 44.37 107.1 44.37 107.1"/>
      <polygon class="cls-67" points="46.22 107.1 45.92 107.1 45.92 124.5 46.22 124.5 46.22 107.1 46.22 107.1"/>
      <polygon class="cls-79" points="45.92 107.1 45.62 107.1 45.62 124.5 45.92 124.5 45.92 107.1 45.92 107.1"/>
      <polygon class="cls-78" points="45.62 107.1 45.32 107.1 45.32 124.5 45.62 124.5 45.62 107.1 45.62 107.1"/>
      <polygon class="cls-84" points="45.32 107.1 44.97 107.1 44.97 124.5 45.32 124.5 45.32 107.1 45.32 107.1"/>
      <polygon class="cls-76" points="46.52 107.1 46.22 107.1 46.22 124.5 46.52 124.5 46.52 107.1 46.52 107.1"/>
      <polygon class="cls-87" points="41.92 107.1 41.62 107.1 41.62 124.5 41.92 124.5 41.92 107.1 41.92 107.1"/>
      <polygon class="cls-72" points="42.22 107.1 41.92 107.1 41.92 124.5 42.22 124.5 42.22 107.1 42.22 107.1"/>
      <polygon class="cls-70" points="42.52 107.1 42.22 107.1 42.22 124.5 42.52 124.5 42.52 107.1 42.52 107.1"/>
      <polygon class="cls-35" points="43.77 107.1 43.47 107.1 43.47 124.5 43.77 124.5 43.77 107.1 43.77 107.1"/>
      <polygon class="cls-75" points="43.47 107.1 43.17 107.1 43.17 124.5 43.47 124.5 43.47 107.1 43.47 107.1"/>
      <polygon class="cls-68" points="43.17 107.1 42.82 107.1 42.82 124.5 43.17 124.5 43.17 107.1 43.17 107.1"/>
      <polygon class="cls-83" points="42.82 107.1 42.52 107.1 42.52 124.5 42.82 124.5 42.82 107.1 42.82 107.1"/>
      <polygon class="cls-8" points="40.07 107.1 39.77 107.1 39.77 124.5 40.07 124.5 40.07 107.1 40.07 107.1"/>
      <polygon class="cls-59" points="39.47 107.1 39.17 107.1 39.17 124.5 39.47 124.5 39.47 107.1 39.47 107.1"/>
      <polygon class="cls-9" points="39.17 107.1 38.87 107.1 38.87 124.5 39.17 124.5 39.17 107.1 39.17 107.1"/>
      <polygon class="cls-55" points="39.77 107.1 39.47 107.1 39.47 124.5 39.77 124.5 39.77 107.1 39.77 107.1"/>
      <polygon class="cls-82" points="41.32 107.1 41.02 107.1 41.02 124.5 41.32 124.5 41.32 107.1 41.32 107.1"/>
      <polygon class="cls-88" points="41.02 107.1 40.67 107.1 40.67 124.5 41.02 124.5 41.02 107.1 41.02 107.1"/>
      <polygon class="cls-69" points="40.67 107.1 40.37 107.1 40.37 124.5 40.67 124.5 40.67 107.1 40.67 107.1"/>
      <polygon class="cls-63" points="40.37 107.1 40.07 107.1 40.07 124.5 40.37 124.5 40.37 107.1 40.37 107.1"/>
      <polygon class="cls-85" points="41.62 107.1 41.32 107.1 41.32 124.5 41.62 124.5 41.62 107.1 41.62 107.1"/>
      <polygon class="cls-25" points="44.07 107.1 43.77 107.1 43.77 124.5 44.07 124.5 44.07 107.1 44.07 107.1"/>
      <polygon class="cls-48" points="38.87 107.1 38.52 107.1 38.52 124.5 38.87 124.5 38.87 107.1 38.87 107.1"/>
      <polygon class="cls-86" points="28.42 107.1 28.12 107.1 28.12 124.5 28.42 124.5 28.42 107.1 28.42 107.1"/>
      <polygon class="cls-89" points="28.12 107.1 27.82 107.1 27.82 124.5 28.12 124.5 28.12 107.1 28.12 107.1"/>
      <polygon class="cls-66" points="28.72 124.5 28.72 107.1 28.42 107.1 28.42 124.5 28.72 124.5 28.72 124.5"/>
      <polyline class="cls-1" points=".67 54.8 27.82 107.1 47.47 107.1 74.62 54.8"/>
      <polyline class="cls-1" points="27.82 107.1 27.82 124.5 47.47 124.5 47.47 107.1"/>
      <line class="cls-1" x1=".67" y1="54.8" x2="74.62" y2="54.8"/>
      <polyline class="cls-1" points="74.62 54.8 74.62 .5 .67 .5 .67 54.8"/>
    </g>
  </g>
</svg>