<?xml version="1.0" encoding="UTF-8"?>
<svg id="_图层_2" data-name="图层 2" xmlns="http://www.w3.org/2000/svg" viewBox="0 0 289.85 144.85">
  <defs>
    <style>
      .cls-1 {
        fill: none;
        stroke: #999;
        stroke-linecap: square;
        stroke-miterlimit: 10;
      }

      .cls-2 {
        fill: #f7fdf7;
      }

      .cls-2, .cls-3, .cls-4, .cls-5, .cls-6, .cls-7, .cls-8, .cls-9, .cls-10, .cls-11, .cls-12, .cls-13, .cls-14, .cls-15, .cls-16, .cls-17, .cls-18, .cls-19, .cls-20, .cls-21, .cls-22, .cls-23, .cls-24, .cls-25, .cls-26, .cls-27, .cls-28, .cls-29, .cls-30, .cls-31, .cls-32, .cls-33, .cls-34, .cls-35, .cls-36, .cls-37, .cls-38, .cls-39, .cls-40, .cls-41, .cls-42, .cls-43, .cls-44, .cls-45, .cls-46, .cls-47, .cls-48, .cls-49, .cls-50, .cls-51, .cls-52, .cls-53, .cls-54, .cls-55, .cls-56, .cls-57, .cls-58, .cls-59, .cls-60, .cls-61, .cls-62, .cls-63, .cls-64, .cls-65, .cls-66, .cls-67, .cls-68, .cls-69, .cls-70, .cls-71, .cls-72, .cls-73, .cls-74, .cls-75, .cls-76, .cls-77, .cls-78, .cls-79, .cls-80, .cls-81, .cls-82, .cls-83, .cls-84, .cls-85, .cls-86, .cls-87, .cls-88, .cls-89, .cls-90, .cls-91, .cls-92, .cls-93, .cls-94, .cls-95, .cls-96, .cls-97, .cls-98, .cls-99, .cls-100, .cls-101, .cls-102, .cls-103, .cls-104, .cls-105, .cls-106, .cls-107, .cls-108, .cls-109, .cls-110, .cls-111, .cls-112, .cls-113, .cls-114, .cls-115, .cls-116, .cls-117, .cls-118, .cls-119, .cls-120, .cls-121, .cls-122, .cls-123, .cls-124, .cls-125, .cls-126, .cls-127, .cls-128, .cls-129, .cls-130, .cls-131, .cls-132, .cls-133, .cls-134, .cls-135, .cls-136, .cls-137, .cls-138, .cls-139, .cls-140, .cls-141, .cls-142, .cls-143, .cls-144, .cls-145, .cls-146, .cls-147, .cls-148, .cls-149, .cls-150, .cls-151, .cls-152, .cls-153, .cls-154, .cls-155, .cls-156, .cls-157, .cls-158, .cls-159, .cls-160, .cls-161, .cls-162, .cls-163, .cls-164, .cls-165, .cls-166, .cls-167, .cls-168, .cls-169, .cls-170, .cls-171, .cls-172, .cls-173, .cls-174, .cls-175, .cls-176, .cls-177, .cls-178, .cls-179, .cls-180, .cls-181, .cls-182, .cls-183, .cls-184, .cls-185, .cls-186, .cls-187, .cls-188, .cls-189, .cls-190, .cls-191, .cls-192, .cls-193, .cls-194, .cls-195, .cls-196, .cls-197, .cls-198, .cls-199, .cls-200, .cls-201, .cls-202, .cls-203, .cls-204, .cls-205, .cls-206, .cls-207, .cls-208, .cls-209, .cls-210, .cls-211, .cls-212, .cls-213, .cls-214, .cls-215, .cls-216, .cls-217, .cls-218, .cls-219, .cls-220, .cls-221, .cls-222, .cls-223, .cls-224, .cls-225, .cls-226, .cls-227 {
        fill-rule: evenodd;
      }

      .cls-3 {
        fill: #f8fbf8;
      }

      .cls-4 {
        fill: #f9fbfa;
      }

      .cls-5 {
        fill: #f2f8f4;
      }

      .cls-6 {
        fill: #f3f8f5;
      }

      .cls-7 {
        fill: #f8fdf8;
      }

      .cls-8 {
        fill: #383838;
      }

      .cls-9 {
        fill: #3b3b3b;
      }

      .cls-10 {
        fill: #5c5c5c;
      }

      .cls-11 {
        fill: #399354;
      }

      .cls-12 {
        fill: #3a3a3a;
      }

      .cls-13 {
        fill: #3d3d3d;
      }

      .cls-14 {
        fill: #484848;
      }

      .cls-15 {
        fill: #393939;
      }

      .cls-16 {
        fill: #474747;
      }

      .cls-17 {
        fill: #585858;
      }

      .cls-18 {
        fill: #4a4a4a;
      }

      .cls-19 {
        fill: #5a5a5a;
      }

      .cls-20 {
        fill: #575757;
      }

      .cls-21 {
        fill: #57a36e;
      }

      .cls-22 {
        fill: #565656;
      }

      .cls-23 {
        fill: #838383;
      }

      .cls-24 {
        fill: #3b9456;
      }

      .cls-25 {
        fill: #595959;
      }

      .cls-26 {
        fill: #59a46f;
      }

      .cls-27 {
        fill: #5b5b5b;
      }

      .cls-28 {
        fill: #626262;
      }

      .cls-29 {
        fill: #636363;
      }

      .cls-30 {
        fill: #62a978;
      }

      .cls-31 {
        fill: #4c4c4c;
      }

      .cls-32 {
        fill: #606060;
      }

      .cls-33 {
        fill: #5f5f5f;
      }

      .cls-34 {
        fill: #60a875;
      }

      .cls-35 {
        fill: #616161;
      }

      .cls-36 {
        fill: #494949;
      }

      .cls-37 {
        fill: #767676;
      }

      .cls-38 {
        fill: #52a069;
      }

      .cls-39 {
        fill: #5d5d5d;
      }

      .cls-40 {
        fill: #797979;
      }

      .cls-41 {
        fill: #7a7a7a;
      }

      .cls-42 {
        fill: #79b58b;
      }

      .cls-43 {
        fill: #777;
      }

      .cls-44 {
        fill: #5da673;
      }

      .cls-45 {
        fill: #4b4b4b;
      }

      .cls-46 {
        fill: #5e5e5e;
      }

      .cls-47 {
        fill: #4f9f67;
      }

      .cls-48 {
        fill: #505050;
      }

      .cls-49 {
        fill: #4f4f4f;
      }

      .cls-50 {
        fill: #469a60;
      }

      .cls-51 {
        fill: #555;
      }

      .cls-52 {
        fill: #787878;
      }

      .cls-53 {
        fill: #646464;
      }

      .cls-54 {
        fill: #757575;
      }

      .cls-55 {
        fill: #828282;
      }

      .cls-56 {
        fill: #7bb78d;
      }

      .cls-57 {
        fill: #4c9d64;
      }

      .cls-58 {
        fill: #4d4d4d;
      }

      .cls-59 {
        fill: #7b7b7b;
      }

      .cls-60 {
        fill: #515151;
      }

      .cls-61 {
        fill: #4e4e4e;
      }

      .cls-62 {
        fill: gray;
      }

      .cls-63 {
        fill: #878787;
      }

      .cls-64 {
        fill: #888;
      }

      .cls-65 {
        fill: #85bc96;
      }

      .cls-66 {
        fill: #9a9a9a;
      }

      .cls-67 {
        fill: #6e6e6e;
      }

      .cls-68 {
        fill: #6daf81;
      }

      .cls-69 {
        fill: #898989;
      }

      .cls-70 {
        fill: #6d6d6d;
      }

      .cls-71 {
        fill: #53a16a;
      }

      .cls-72 {
        fill: #868686;
      }

      .cls-73 {
        fill: #535353;
      }

      .cls-74 {
        fill: #95c5a3;
      }

      .cls-75 {
        fill: #959595;
      }

      .cls-76 {
        fill: #464646;
      }

      .cls-77 {
        fill: #545454;
      }

      .cls-78 {
        fill: #6f6f6f;
      }

      .cls-79 {
        fill: #727272;
      }

      .cls-80 {
        fill: #a2a2a2;
      }

      .cls-81 {
        fill: #717171;
      }

      .cls-82 {
        fill: #3d9557;
      }

      .cls-83 {
        fill: #3f3f3f;
      }

      .cls-84 {
        fill: #3e3e3e;
      }

      .cls-85 {
        fill: #454545;
      }

      .cls-86 {
        fill: #444;
      }

      .cls-87 {
        fill: #363636;
      }

      .cls-88 {
        fill: #424242;
      }

      .cls-89 {
        fill: #404040;
      }

      .cls-90 {
        fill: #414141;
      }

      .cls-91 {
        fill: #42985c;
      }

      .cls-92 {
        fill: #41975b;
      }

      .cls-93 {
        fill: #434343;
      }

      .cls-94 {
        fill: #9ac8a8;
      }

      .cls-95 {
        fill: #a1ccae;
      }

      .cls-96 {
        fill: #6fb082;
      }

      .cls-97 {
        fill: #707070;
      }

      .cls-98 {
        fill: #cae2d1;
      }

      .cls-99 {
        fill: #dcf6d9;
      }

      .cls-100 {
        fill: #c5c5c5;
      }

      .cls-101 {
        fill: #c5dfcd;
      }

      .cls-102 {
        fill: #e1efe5;
      }

      .cls-103 {
        fill: #e1f7de;
      }

      .cls-104 {
        fill: #e0f7dd;
      }

      .cls-105 {
        fill: #c8c8c8;
      }

      .cls-106 {
        fill: #c7e0ce;
      }

      .cls-107 {
        fill: #d5f4d1;
      }

      .cls-108 {
        fill: #abd1b6;
      }

      .cls-109 {
        fill: #d2f4ce;
      }

      .cls-110 {
        fill: #d2e6d8;
      }

      .cls-111 {
        fill: #dbf6d8;
      }

      .cls-112 {
        fill: #d9f5d5;
      }

      .cls-113 {
        fill: #afafaf;
      }

      .cls-114 {
        fill: #d8f5d4;
      }

      .cls-115 {
        fill: #dff7dc;
      }

      .cls-116 {
        fill: #adadad;
      }

      .cls-117 {
        fill: #cbe2d2;
      }

      .cls-118 {
        fill: #ccc;
      }

      .cls-119 {
        fill: #cce3d3;
      }

      .cls-120 {
        fill: #d0e5d7;
      }

      .cls-121 {
        fill: #cbcbcb;
      }

      .cls-122 {
        fill: #dcebe0;
      }

      .cls-123 {
        fill: #ddece2;
      }

      .cls-124 {
        fill: #bebebe;
      }

      .cls-125 {
        fill: #ababab;
      }

      .cls-126 {
        fill: #bfbfbf;
      }

      .cls-127 {
        fill: #bcdac5;
      }

      .cls-128 {
        fill: #d6e8dc;
      }

      .cls-129 {
        fill: #a4a4a4;
      }

      .cls-130 {
        fill: #bddbc6;
      }

      .cls-131 {
        fill: #bbb;
      }

      .cls-132 {
        fill: #b1b1b1;
      }

      .cls-133 {
        fill: #a9a9a9;
      }

      .cls-134 {
        fill: #a7cfb3;
      }

      .cls-135 {
        fill: #acacac;
      }

      .cls-136 {
        fill: #aeaeae;
      }

      .cls-137 {
        fill: #b0d4bb;
      }

      .cls-138 {
        fill: #b2d5bc;
      }

      .cls-139 {
        fill: #b2b2b2;
      }

      .cls-140 {
        fill: #acd2b7;
      }

      .cls-141 {
        fill: #a5a5a5;
      }

      .cls-142 {
        fill: #aaa;
      }

      .cls-143 {
        fill: #bcbcbc;
      }

      .cls-144 {
        fill: #a7a7a7;
      }

      .cls-145 {
        fill: #a5ceb1;
      }

      .cls-146 {
        fill: #fdfefd;
      }

      .cls-147 {
        fill: #919191;
      }

      .cls-148 {
        fill: #7d7d7d;
      }

      .cls-149 {
        fill: #6b6b6b;
      }

      .cls-150 {
        fill: #7e7e7e;
      }

      .cls-151 {
        fill: #7f7f7f;
      }

      .cls-152 {
        fill: #64aa79;
      }

      .cls-153 {
        fill: #80b991;
      }

      .cls-154 {
        fill: #7eb990;
      }

      .cls-155 {
        fill: #818181;
      }

      .cls-156 {
        fill: #73b286;
      }

      .cls-157 {
        fill: #686868;
      }

      .cls-158 {
        fill: #656565;
      }

      .cls-159 {
        fill: #969696;
      }

      .cls-160 {
        fill: #6c6c6c;
      }

      .cls-161 {
        fill: #999;
      }

      .cls-162 {
        fill: #989898;
      }

      .cls-163 {
        fill: #979797;
      }

      .cls-164 {
        fill: #7c7c7c;
      }

      .cls-165 {
        fill: #bababa;
      }

      .cls-166 {
        fill: #333;
      }

      .cls-167 {
        fill: #8e8e8e;
      }

      .cls-168 {
        fill: #8d8d8d;
      }

      .cls-169 {
        fill: #8bbf9b;
      }

      .cls-170 {
        fill: #8c8c8c;
      }

      .cls-171 {
        fill: #858585;
      }

      .cls-172 {
        fill: #939393;
      }

      .cls-173 {
        fill: #8b8b8b;
      }

      .cls-174 {
        fill: #a1a1a1;
      }

      .cls-175 {
        fill: #929292;
      }

      .cls-176 {
        fill: #a0a0a0;
      }

      .cls-177 {
        fill: #848484;
      }

      .cls-178 {
        fill: #84bc95;
      }

      .cls-179 {
        fill: #b4b4b4;
      }

      .cls-180 {
        fill: #89bf99;
      }

      .cls-181 {
        fill: #8a8a8a;
      }

      .cls-182 {
        fill: #9cc9a9;
      }

      .cls-183 {
        fill: #b5b5b5;
      }

      .cls-184 {
        fill: #b7b7b7;
      }

      .cls-185 {
        fill: #9d9d9d;
      }

      .cls-186 {
        fill: #9e9e9e;
      }

      .cls-187 {
        fill: #8fc29e;
      }

      .cls-188 {
        fill: #a0cbad;
      }

      .cls-189 {
        fill: #b9b9b9;
      }

      .cls-190 {
        fill: #c2c2c2;
      }

      .cls-191 {
        fill: #8f8f8f;
      }

      .cls-192 {
        fill: #b6d7c0;
      }

      .cls-193 {
        fill: #909090;
      }

      .cls-194 {
        fill: #90c29f;
      }

      .cls-195 {
        fill: #8ec19d;
      }

      .cls-196 {
        fill: #b6b6b6;
      }

      .cls-197 {
        fill: #c1ddca;
      }

      .cls-198 {
        fill: #c1c1c1;
      }

      .cls-199 {
        fill: #65ab7a;
      }

      .cls-200 {
        fill: #666;
      }

      .cls-201 {
        fill: #737373;
      }

      .cls-202 {
        fill: #f0fbef;
      }

      .cls-203 {
        fill: #eafae8;
      }

      .cls-204 {
        fill: #eefaec;
      }

      .cls-205 {
        fill: #e2f8e0;
      }

      .cls-206 {
        fill: #f1fbf0;
      }

      .cls-207 {
        fill: #f1f7f2;
      }

      .cls-208 {
        fill: #f4fcf3;
      }

      .cls-209 {
        fill: #e8f2eb;
      }

      .cls-210 {
        fill: #edfaeb;
      }

      .cls-211 {
        fill: #e3f8e1;
      }

      .cls-212 {
        fill: #fff;
      }

      .cls-213 {
        fill: #e7f2ea;
      }

      .cls-214 {
        fill: #e6f8e4;
      }

      .cls-215 {
        fill: #e3efe6;
      }

      .cls-216 {
        fill: #e7f9e5;
      }

      .cls-217 {
        fill: #f5fcf4;
      }

      .cls-218 {
        fill: #e9f9e7;
      }

      .cls-219 {
        fill: #ecf5ef;
      }

      .cls-220 {
        fill: #e5f1e9;
      }

      .cls-221 {
        fill: #fbfefb;
      }

      .cls-222 {
        fill: #060;
      }

      .cls-223 {
        fill: #0c0;
      }

      .cls-224 {
        fill: #69ad7e;
      }

      .cls-225 {
        fill: #68ac7c;
      }

      .cls-226 {
        fill: #696969;
      }

      .cls-227 {
        fill: #676767;
      }
    </style>
  </defs>
  <g id="_图层_1-2" data-name="图层 1">
    <g>
      <polygon class="cls-223" points="289.28 75.55 272.78 75.55 272.78 144.35 279.93 144.35 289.28 75.55 289.28 75.55"/>
      <polygon class="cls-223" points="71.23 144.35 81.03 144.35 81.03 72.2 1.18 72.2 71.23 144.35 71.23 144.35"/>
      <polyline class="cls-1" points="81.03 144.35 81.03 72.2 1.18 72.2 71.23 144.35 81.03 144.35"/>
      <polyline class="cls-1" points="272.78 75.55 272.78 144.35 279.93 144.35 289.28 75.55 272.78 75.55"/>
      <polygon class="cls-118" points="84.43 53.15 84.43 59 65.78 59 65.78 53.15 84.43 53.15 84.43 53.15"/>
      <polyline class="cls-1" points="84.43 59 65.78 59 65.78 53.15 84.43 53.15 84.43 59"/>
      <polygon class="cls-176" points="75.88 45.05 78.23 45.05 78.43 45.15 78.63 45.4 75.48 45.4 75.73 45.15 75.88 45.05 75.88 45.05"/>
      <polygon class="cls-161" points="78.23 45.05 75.88 45.05 76.43 44.7 77.08 44.6 77.38 44.6 77.68 44.7 77.93 44.8 78.23 45.05 78.23 45.05"/>
      <polygon class="cls-125" points="75.13 46.5 75.18 46.15 78.98 46.15 79.03 46.5 75.13 46.5 75.13 46.5"/>
      <polygon class="cls-136" points="75.13 46.55 75.13 46.5 79.03 46.5 79.03 46.55 79.03 46.9 75.13 46.9 75.13 46.55 75.13 46.55"/>
      <polygon class="cls-133" points="75.18 46.15 75.28 45.75 78.83 45.75 78.98 46.15 75.18 46.15 75.18 46.15"/>
      <polygon class="cls-189" points="75.13 47.95 75.13 47.6 79.03 47.6 79.03 47.95 75.13 47.95 75.13 47.95"/>
      <polygon class="cls-183" points="75.13 47.6 75.13 47.25 79.03 47.25 79.03 47.6 75.13 47.6 75.13 47.6"/>
      <polygon class="cls-139" points="75.13 47.25 75.13 46.9 79.03 46.9 79.03 47.25 75.13 47.25 75.13 47.25"/>
      <polygon class="cls-126" points="75.13 48.7 75.13 48.35 79.03 48.35 79.03 48.7 75.13 48.7 75.13 48.7"/>
      <polygon class="cls-198" points="75.13 49.1 75.13 48.7 79.03 48.7 79.03 49.1 75.13 49.1 75.13 49.1"/>
      <polygon class="cls-100" points="75.13 49.4 75.13 49.1 79.03 49.1 79.03 49.4 75.13 49.4 75.13 49.4"/>
      <polygon class="cls-118" points="75.13 50.2 75.13 49.8 79.03 49.8 79.03 50.2 75.13 50.2 75.13 50.2"/>
      <polygon class="cls-105" points="75.13 50.55 75.13 50.2 79.03 50.2 79.03 50.55 75.13 50.55 75.13 50.55"/>
      <polygon class="cls-198" points="75.13 51.3 75.13 50.95 79.03 50.95 79.03 51.3 75.13 51.3 75.13 51.3"/>
      <polygon class="cls-100" points="75.13 50.95 75.13 50.55 79.03 50.55 79.03 50.95 75.13 50.95 75.13 50.95"/>
      <polygon class="cls-105" points="75.13 49.8 75.13 49.4 79.03 49.4 79.03 49.8 75.13 49.8 75.13 49.8"/>
      <polygon class="cls-131" points="75.13 48.35 75.13 47.95 79.03 47.95 79.03 48.35 75.13 48.35 75.13 48.35"/>
      <polygon class="cls-141" points="78.63 45.4 78.83 45.75 75.28 45.75 75.48 45.4 78.63 45.4 78.63 45.4"/>
      <polygon class="cls-179" points="79.03 52.4 79.03 52.75 75.13 52.75 75.13 52.4 79.03 52.4 79.03 52.4"/>
      <polygon class="cls-184" points="79.03 52 79.03 52.4 75.13 52.4 75.13 52 79.03 52 79.03 52"/>
      <polygon class="cls-131" points="79.03 51.65 79.03 52 75.13 52 75.13 51.65 79.03 51.65 79.03 51.65"/>
      <polygon class="cls-144" points="79.03 53.85 79.03 54.2 75.13 54.2 75.13 53.85 79.03 53.85 79.03 53.85"/>
      <polygon class="cls-125" points="79.03 53.5 79.03 53.85 75.13 53.85 75.13 53.5 79.03 53.5 79.03 53.5"/>
      <polygon class="cls-116" points="79.03 53.15 79.03 53.5 75.13 53.5 75.13 53.15 79.03 53.15 79.03 53.15"/>
      <polygon class="cls-132" points="79.03 52.75 79.03 53.15 75.13 53.15 75.13 52.75 79.03 52.75 79.03 52.75"/>
      <polygon class="cls-176" points="79.03 54.6 79.03 54.95 75.13 54.95 75.13 54.6 79.03 54.6 79.03 54.6"/>
      <polygon class="cls-186" points="79.03 54.95 79.03 55.35 75.13 55.35 75.13 54.95 79.03 54.95 79.03 54.95"/>
      <polygon class="cls-161" points="79.03 55.35 79.03 55.7 75.13 55.7 75.13 55.35 79.03 55.35 79.03 55.35"/>
      <polygon class="cls-168" points="79.03 56.8 79.03 57.2 75.13 57.2 75.13 56.8 79.03 56.8 79.03 56.8"/>
      <polygon class="cls-193" points="79.03 56.45 79.03 56.8 75.13 56.8 75.13 56.45 79.03 56.45 79.03 56.45"/>
      <polygon class="cls-172" points="79.03 56.05 79.03 56.45 75.13 56.45 75.13 56.05 79.03 56.05 79.03 56.05"/>
      <polygon class="cls-163" points="79.03 55.7 79.03 56.05 75.13 56.05 75.13 55.7 79.03 55.7 79.03 55.7"/>
      <polygon class="cls-129" points="79.03 54.2 79.03 54.6 75.13 54.6 75.13 54.2 79.03 54.2 79.03 54.2"/>
      <polygon class="cls-173" points="75.13 57.2 79.03 57.2 79.03 57.55 75.13 57.55 75.13 57.2 75.13 57.2"/>
      <polygon class="cls-198" points="79.03 51.65 75.13 51.65 75.13 51.3 79.03 51.3 79.03 51.65 79.03 51.65"/>
      <polygon class="cls-151" points="75.13 58.65 75.13 58.25 79.03 58.25 79.03 58.65 75.13 58.65 75.13 58.65"/>
      <polygon class="cls-23" points="75.13 58.25 75.13 57.9 79.03 57.9 79.03 58.25 75.13 58.25 75.13 58.25"/>
      <polygon class="cls-72" points="75.13 57.9 75.13 57.55 79.03 57.55 79.03 57.9 75.13 57.9 75.13 57.9"/>
      <polygon class="cls-201" points="75.13 60.1 75.13 59.75 79.03 59.75 79.03 60.1 75.13 60.1 75.13 60.1"/>
      <polygon class="cls-54" points="75.13 59.75 75.13 59.4 79.03 59.4 79.03 59.75 75.13 59.75 75.13 59.75"/>
      <polygon class="cls-41" points="75.13 59.4 75.13 59 79.03 59 79.03 59.4 75.13 59.4 75.13 59.4"/>
      <polygon class="cls-164" points="75.13 59 75.13 58.65 79.03 58.65 79.03 59 75.13 59 75.13 59"/>
      <polygon class="cls-160" points="75.13 60.85 75.13 60.45 79.03 60.45 79.03 60.85 75.13 60.85 75.13 60.85"/>
      <polygon class="cls-157" points="75.13 61.2 75.13 60.85 79.03 60.85 79.03 61.2 75.13 61.2 75.13 61.2"/>
      <polygon class="cls-200" points="75.13 61.6 75.13 61.2 79.03 61.2 79.03 61.6 75.13 61.6 75.13 61.6"/>
      <polygon class="cls-20" points="75.13 63.05 75.13 62.7 79.03 62.7 79.03 63.05 75.13 63.05 75.13 63.05"/>
      <polygon class="cls-27" points="75.13 62.7 75.13 62.3 79.03 62.3 79.03 62.7 75.13 62.7 75.13 62.7"/>
      <polygon class="cls-46" points="75.13 62.3 75.13 62 79.03 62 79.03 62.3 75.13 62.3 75.13 62.3"/>
      <polygon class="cls-35" points="75.13 62 75.13 61.6 79.03 61.6 79.03 62 75.13 62 75.13 62"/>
      <polygon class="cls-78" points="75.13 60.45 75.13 60.1 79.03 60.1 79.03 60.45 75.13 60.45 75.13 60.45"/>
      <polygon class="cls-58" points="79.03 63.8 79.03 64.2 75.13 64.2 75.13 63.8 79.03 63.8 79.03 63.8"/>
      <polygon class="cls-60" points="79.03 63.45 79.03 63.8 75.13 63.8 75.13 63.45 79.03 63.45 79.03 63.45"/>
      <polygon class="cls-18" points="79.03 64.2 79.03 64.5 75.13 64.5 75.13 64.2 79.03 64.2 79.03 64.2"/>
      <polygon class="cls-16" points="79.03 64.5 79.03 64.9 75.13 64.9 75.13 64.5 79.03 64.5 79.03 64.5"/>
      <polygon class="cls-12" points="78.98 66 78.88 66.15 78.83 66.35 75.28 66.35 75.18 66 78.98 66 78.98 66"/>
      <polygon class="cls-13" points="79.03 65.65 78.98 65.65 78.98 65.7 78.98 65.8 78.98 66 75.18 66 75.13 65.65 79.03 65.65 79.03 65.65"/>
      <polygon class="cls-84" points="79.03 65.6 79.03 65.65 75.13 65.65 75.13 65.6 75.13 65.25 79.03 65.25 79.03 65.6 79.03 65.6"/>
      <polygon class="cls-93" points="79.03 64.9 79.03 65.25 75.13 65.25 75.13 64.9 79.03 64.9 79.03 64.9"/>
      <polygon class="cls-166" points="78.43 66.95 78.23 67.1 75.88 67.1 75.78 67 75.73 66.95 75.63 66.85 75.58 66.8 75.48 66.7 78.63 66.7 78.43 66.95 78.43 66.95"/>
      <polygon class="cls-166" points="77.08 67.55 76.73 67.5 76.43 67.4 75.88 67.1 78.23 67.1 77.93 67.25 77.83 67.25 77.78 67.25 77.78 67.3 77.68 67.4 77.38 67.5 77.08 67.55 77.08 67.55"/>
      <polygon class="cls-8" points="78.63 66.7 75.48 66.7 75.28 66.35 78.83 66.35 78.73 66.5 78.63 66.7 78.63 66.7"/>
      <polygon class="cls-22" points="79.03 63.45 75.13 63.45 75.13 63.05 79.03 63.05 79.03 63.45 79.03 63.45"/>
      <polyline class="cls-1" points="77.08 44.6 76.33 44.7 75.98 44.85 75.73 45.15 75.28 45.8 75.13 46.55 75.13 65.6 75.28 66.3 75.43 66.6 75.73 66.95 75.98 67.2 76.33 67.4 76.68 67.5 77.08 67.55 77.08 67.5 77.13 67.5 77.23 67.5 77.43 67.5 77.78 67.4 78.08 67.2 78.13 67.1 78.23 67.05 78.43 66.95 78.53 66.75 78.58 66.65 78.68 66.6 78.88 66.3 78.98 65.9 79.03 65.6 79.03 46.55 78.98 46.15 78.88 45.8 78.68 45.45 78.43 45.15 78.08 44.85 77.78 44.7 77.43 44.6 77.08 44.6"/>
      <polygon class="cls-87" points="54.88 41.5 54.88 41.45 21.88 41.45 21.88 41.5 54.88 41.5 54.88 41.5"/>
      <polygon class="cls-15" points="54.88 41.6 54.88 41.5 21.88 41.5 21.88 41.6 54.88 41.6 54.88 41.6"/>
      <polygon class="cls-9" points="54.88 41.7 54.88 41.6 21.88 41.6 21.88 41.7 54.88 41.7 54.88 41.7"/>
      <polygon class="cls-16" points="54.88 42.1 54.88 42 21.88 42 21.88 42.1 54.88 42.1 54.88 42.1"/>
      <polygon class="cls-86" points="54.88 42 54.88 41.9 21.88 41.9 21.88 42 54.88 42 54.88 42"/>
      <polygon class="cls-90" points="54.88 41.9 54.88 41.8 21.88 41.8 21.88 41.9 54.88 41.9 54.88 41.9"/>
      <polygon class="cls-84" points="54.88 41.8 54.88 41.7 21.88 41.7 21.88 41.8 54.88 41.8 54.88 41.8"/>
      <polygon class="cls-31" points="54.88 42.3 54.88 42.2 21.88 42.2 21.88 42.3 54.88 42.3 54.88 42.3"/>
      <polygon class="cls-49" points="54.88 42.4 54.88 42.3 21.88 42.3 21.88 42.4 54.88 42.4 54.88 42.4"/>
      <polygon class="cls-27" points="54.88 42.85 54.88 42.75 21.88 42.75 21.88 42.85 54.88 42.85 54.88 42.85"/>
      <polygon class="cls-17" points="54.88 42.75 54.88 42.65 21.88 42.65 21.88 42.75 54.88 42.75 54.88 42.75"/>
      <polygon class="cls-51" points="54.88 42.65 54.88 42.55 21.88 42.55 21.88 42.65 54.88 42.65 54.88 42.65"/>
      <polygon class="cls-73" points="54.88 42.55 54.88 42.4 21.88 42.4 21.88 42.55 54.88 42.55 54.88 42.55"/>
      <polygon class="cls-36" points="54.88 42.2 54.88 42.1 21.88 42.1 21.88 42.2 54.88 42.2 54.88 42.2"/>
      <polygon class="cls-35" points="54.88 43.05 54.88 42.95 21.88 42.95 21.88 43.05 54.88 43.05 54.88 43.05"/>
      <polygon class="cls-29" points="54.88 43.15 54.88 43.05 21.88 43.05 21.88 43.15 54.88 43.15 54.88 43.15"/>
      <polygon class="cls-200" points="54.88 43.25 54.88 43.15 21.88 43.15 21.88 43.25 54.88 43.25 54.88 43.25"/>
      <polygon class="cls-81" points="54.88 43.65 54.88 43.55 21.88 43.55 21.88 43.65 54.88 43.65 54.88 43.65"/>
      <polygon class="cls-67" points="54.88 43.55 54.88 43.45 21.88 43.45 21.88 43.55 54.88 43.55 54.88 43.55"/>
      <polygon class="cls-149" points="54.88 43.45 54.88 43.35 21.88 43.35 21.88 43.45 54.88 43.45 54.88 43.45"/>
      <polygon class="cls-157" points="54.88 43.35 54.88 43.25 21.88 43.25 21.88 43.35 54.88 43.35 54.88 43.35"/>
      <polygon class="cls-37" points="54.88 43.85 54.88 43.75 21.88 43.75 21.88 43.85 54.88 43.85 54.88 43.85"/>
      <polygon class="cls-40" points="54.88 43.95 54.88 43.85 21.88 43.85 21.88 43.95 54.88 43.95 54.88 43.95"/>
      <polygon class="cls-171" points="54.88 44.4 54.88 44.3 21.88 44.3 21.88 44.4 54.88 44.4 54.88 44.4"/>
      <polygon class="cls-23" points="54.88 44.3 54.88 44.2 21.88 44.2 21.88 44.3 54.88 44.3 54.88 44.3"/>
      <polygon class="cls-62" points="54.88 44.2 54.88 44.1 21.88 44.1 21.88 44.2 54.88 44.2 54.88 44.2"/>
      <polygon class="cls-148" points="54.88 44.1 54.88 43.95 21.88 43.95 21.88 44.1 54.88 44.1 54.88 44.1"/>
      <polygon class="cls-201" points="54.88 43.75 54.88 43.65 21.88 43.65 21.88 43.75 54.88 43.75 54.88 43.75"/>
      <polygon class="cls-193" points="54.88 44.8 54.88 44.7 21.88 44.7 21.88 44.8 54.88 44.8 54.88 44.8"/>
      <polygon class="cls-168" points="54.88 44.7 54.88 44.6 21.88 44.6 21.88 44.7 54.88 44.7 54.88 44.7"/>
      <polygon class="cls-173" points="54.88 44.6 54.88 44.5 21.88 44.5 21.88 44.6 54.88 44.6 54.88 44.6"/>
      <polygon class="cls-159" points="54.88 45 54.88 44.9 21.88 44.9 21.88 45 54.88 45 54.88 45"/>
      <polygon class="cls-161" points="54.88 45.1 54.88 45 21.88 45 21.88 45.1 54.88 45.1 54.88 45.1"/>
      <polygon class="cls-172" points="54.88 44.9 54.88 44.8 21.88 44.8 21.88 44.9 54.88 44.9 54.88 44.9"/>
      <polygon class="cls-64" points="54.88 44.5 54.88 44.4 21.88 44.4 21.88 44.5 54.88 44.5 54.88 44.5"/>
      <polygon class="cls-46" points="54.88 42.95 54.88 42.85 21.88 42.85 21.88 42.95 54.88 42.95 54.88 42.95"/>
      <polygon class="cls-112" points="54.88 45.35 54.88 45.8 69.93 45.8 69.68 45.35 54.88 45.35 54.88 45.35"/>
      <polygon class="cls-107" points="54.88 45.1 54.88 45.35 69.68 45.35 69.03 44.4 68.63 43.95 68.28 43.6 67.83 43.2 67.38 42.9 66.43 42.35 65.28 41.9 64.68 41.7 64.08 41.6 62.68 41.45 61.93 41.4 61.23 41.45 54.88 41.45 54.88 45.1 54.88 45.1"/>
      <polygon class="cls-211" points="54.88 46.7 54.88 47.15 70.48 47.15 70.33 46.7 54.88 46.7 54.88 46.7"/>
      <polygon class="cls-104" points="54.88 46.25 54.88 46.7 70.33 46.7 70.13 46.25 54.88 46.25 54.88 46.25"/>
      <polygon class="cls-206" points="54.88 48.75 54.88 48.95 70.83 48.95 70.78 48.5 54.88 48.5 54.88 48.75 54.88 48.75"/>
      <polygon class="cls-204" points="54.88 48.05 54.88 48.5 70.78 48.5 70.68 48.05 54.88 48.05 54.88 48.05"/>
      <polygon class="cls-203" points="54.88 47.6 54.88 48.05 70.68 48.05 70.58 47.6 54.88 47.6 54.88 47.6"/>
      <polygon class="cls-216" points="54.88 47.15 54.88 47.6 70.58 47.6 70.48 47.15 54.88 47.15 54.88 47.15"/>
      <polygon class="cls-7" points="54.88 49.4 54.88 49.85 70.93 49.85 70.88 49.4 54.88 49.4 54.88 49.4"/>
      <polygon class="cls-221" points="54.88 49.85 54.88 50.35 70.98 50.35 70.93 49.85 54.88 49.85 54.88 49.85"/>
      <polygon class="cls-219" points="54.88 51.7 54.88 52.15 70.98 52.15 70.98 51.7 54.88 51.7 54.88 51.7"/>
      <polygon class="cls-5" points="54.88 51.25 54.88 51.7 70.98 51.7 70.98 51.25 54.88 51.25 54.88 51.25"/>
      <polygon class="cls-3" points="54.88 50.8 54.88 51.25 70.98 51.25 70.98 51.2 70.98 50.8 54.88 50.8 54.88 50.8"/>
      <polygon class="cls-146" points="54.88 50.35 54.88 50.8 70.98 50.8 70.98 50.35 54.88 50.35 54.88 50.35"/>
      <polygon class="cls-217" points="54.88 48.95 54.88 49.4 70.88 49.4 70.83 48.95 54.88 48.95 54.88 48.95"/>
      <polygon class="cls-99" points="54.88 45.8 54.88 46.25 70.13 46.25 69.93 45.8 54.88 45.8 54.88 45.8"/>
      <polygon class="cls-102" points="54.88 52.6 54.88 53.05 70.98 53.05 70.98 52.6 54.88 52.6 54.88 52.6"/>
      <polygon class="cls-220" points="54.88 52.4 54.88 52.6 70.98 52.6 70.98 52.15 54.88 52.15 54.88 52.4 54.88 52.4"/>
      <polygon class="cls-122" points="54.88 53.05 54.88 53.5 70.98 53.5 70.98 53.05 54.88 53.05 54.88 53.05"/>
      <polygon class="cls-117" points="54.88 54.4 54.88 54.85 70.98 54.85 70.98 54.4 54.88 54.4 54.88 54.4"/>
      <polygon class="cls-120" points="54.88 53.95 54.88 54.4 70.98 54.4 70.98 53.95 54.88 53.95 54.88 53.95"/>
      <polygon class="cls-128" points="54.88 53.5 54.88 53.95 70.98 53.95 70.98 53.5 54.88 53.5 54.88 53.5"/>
      <polygon class="cls-130" points="54.88 55.75 54.88 56.1 54.88 56.2 70.98 56.2 70.98 55.75 54.88 55.75 54.88 55.75"/>
      <polygon class="cls-197" points="54.88 55.3 54.88 55.75 70.98 55.75 70.98 55.3 54.88 55.3 54.88 55.3"/>
      <polygon class="cls-192" points="54.88 56.2 54.88 56.65 70.98 56.65 70.98 56.2 54.88 56.2 54.88 56.2"/>
      <polygon class="cls-145" points="54.88 57.55 54.88 58 70.98 58 70.98 57.55 54.88 57.55 54.88 57.55"/>
      <polygon class="cls-108" points="54.88 57.1 54.88 57.55 70.98 57.55 70.98 57.1 54.88 57.1 54.88 57.1"/>
      <polygon class="cls-137" points="54.88 56.65 54.88 57.1 70.98 57.1 70.98 56.65 54.88 56.65 54.88 56.65"/>
      <polygon class="cls-101" points="54.88 54.85 54.88 55.3 70.98 55.3 70.98 54.85 54.88 54.85 54.88 54.85"/>
      <polygon class="cls-195" points="54.88 59.75 54.88 59.8 70.98 59.8 70.98 59.35 54.88 59.35 54.88 59.75 54.88 59.75"/>
      <polygon class="cls-74" points="54.88 58.9 54.88 59.35 70.98 59.35 70.98 58.9 54.88 58.9 54.88 58.9"/>
      <polygon class="cls-94" points="54.88 58.45 54.88 58.9 70.98 58.9 70.98 58.45 54.88 58.45 54.88 58.45"/>
      <polygon class="cls-154" points="54.88 60.7 54.88 61.15 70.98 61.15 70.98 60.95 70.98 60.7 54.88 60.7 54.88 60.7"/>
      <polygon class="cls-178" points="54.88 60.25 54.88 60.7 70.98 60.7 70.98 60.25 54.88 60.25 54.88 60.25"/>
      <polygon class="cls-180" points="54.88 59.8 54.88 60.25 70.98 60.25 70.98 59.8 54.88 59.8 54.88 59.8"/>
      <polygon class="cls-156" points="54.88 61.65 54.88 62.1 70.98 62.1 70.98 61.65 54.88 61.65 54.88 61.65"/>
      <polygon class="cls-68" points="54.88 62.1 54.88 62.55 70.93 62.55 70.98 62.1 54.88 62.1 54.88 62.1"/>
      <polygon class="cls-225" points="54.88 62.55 54.88 63 70.88 63 70.88 62.75 70.93 62.55 54.88 62.55 54.88 62.55"/>
      <polygon class="cls-21" points="54.88 63.9 54.88 64.35 70.63 64.35 70.73 63.9 54.88 63.9 54.88 63.9"/>
      <polygon class="cls-44" points="54.88 63.45 54.88 63.9 70.73 63.9 70.83 63.45 54.88 63.45 54.88 63.45"/>
      <polygon class="cls-34" points="54.88 63.4 54.88 63.45 70.83 63.45 70.88 63 54.88 63 54.88 63.4 54.88 63.4"/>
      <polygon class="cls-42" points="54.88 61.15 54.88 61.65 70.98 61.65 70.98 61.15 54.88 61.15 54.88 61.15"/>
      <polygon class="cls-188" points="54.88 58 54.88 58.45 70.98 58.45 70.98 58 54.88 58 54.88 58"/>
      <polygon class="cls-57" points="54.88 64.8 54.88 65.25 70.38 65.25 70.53 64.8 54.88 64.8 54.88 64.8"/>
      <polygon class="cls-50" points="54.88 65.25 54.88 65.7 70.18 65.7 70.38 65.25 54.88 65.25 54.88 65.25"/>
      <polygon class="cls-11" points="54.88 66.6 54.88 67.05 54.88 70.75 61.23 70.75 61.93 70.65 61.98 70.6 62.08 70.6 62.28 70.6 62.68 70.6 63.38 70.5 64.08 70.4 64.68 70.2 64.98 70.1 65.03 70.05 65.13 70.05 65.33 70.05 65.88 69.85 66.48 69.65 66.93 69.35 67.43 69.05 67.63 68.85 67.73 68.75 67.78 68.7 67.88 68.7 68.08 68.5 68.18 68.4 68.23 68.35 68.33 68.35 68.33 68.25 68.38 68.2 68.48 68.1 68.68 67.9 69.08 67.5 69.08 67.4 69.13 67.35 69.23 67.25 69.43 67.05 69.43 66.95 69.48 66.9 69.58 66.8 69.78 66.6 54.88 66.6 54.88 66.6"/>
      <polygon class="cls-24" points="54.88 66.15 54.88 66.6 69.78 66.6 69.98 66.15 54.88 66.15 54.88 66.15"/>
      <polygon class="cls-92" points="54.88 65.7 54.88 66.15 69.98 66.15 70.18 65.7 54.88 65.7 54.88 65.7"/>
      <polygon class="cls-38" points="54.88 64.35 54.88 64.8 70.53 64.8 70.63 64.35 54.88 64.35 54.88 64.35"/>
      <polygon class="cls-89" points="54.88 45.2 54.88 45.1 21.88 45.1 21.88 45.2 54.88 45.2 54.88 45.2"/>
      <polygon class="cls-85" points="54.88 45.4 54.88 45.3 21.88 45.3 21.88 45.4 54.88 45.4 54.88 45.4"/>
      <polygon class="cls-14" points="54.88 45.55 54.88 45.4 21.88 45.4 21.88 45.55 54.88 45.55 54.88 45.55"/>
      <polygon class="cls-60" points="54.88 46 54.88 45.9 21.88 45.9 21.88 46 54.88 46 54.88 46"/>
      <polygon class="cls-49" points="54.88 45.9 54.88 45.8 21.88 45.8 21.88 45.9 54.88 45.9 54.88 45.9"/>
      <polygon class="cls-58" points="54.88 45.8 54.88 45.65 21.88 45.65 21.88 45.8 54.88 45.8 54.88 45.8"/>
      <polygon class="cls-18" points="54.88 45.65 54.88 45.55 21.88 45.55 21.88 45.65 54.88 45.65 54.88 45.65"/>
      <polygon class="cls-88" points="54.88 45.3 54.88 45.2 21.88 45.2 21.88 45.3 54.88 45.3 54.88 45.3"/>
      <polygon class="cls-25" points="54.88 46.35 54.88 46.25 21.88 46.25 21.88 46.35 54.88 46.35 54.88 46.35"/>
      <polygon class="cls-20" points="54.88 46.25 54.88 46.15 21.88 46.15 21.88 46.25 54.88 46.25 54.88 46.25"/>
      <polygon class="cls-35" points="54.88 46.7 54.88 46.6 21.88 46.6 21.88 46.7 54.88 46.7 54.88 46.7"/>
      <polygon class="cls-33" points="54.88 46.6 54.88 46.5 21.88 46.5 21.88 46.6 54.88 46.6 54.88 46.6"/>
      <polygon class="cls-39" points="54.88 46.5 54.88 46.35 21.88 46.35 21.88 46.5 54.88 46.5 54.88 46.5"/>
      <polygon class="cls-200" points="54.88 46.95 54.88 46.85 21.88 46.85 21.88 46.95 54.88 46.95 54.88 46.95"/>
      <polygon class="cls-157" points="54.88 47.05 54.88 46.95 21.88 46.95 21.88 47.05 54.88 47.05 54.88 47.05"/>
      <polygon class="cls-201" points="54.88 47.55 54.88 47.4 21.88 47.4 21.88 47.55 54.88 47.55 54.88 47.55"/>
      <polygon class="cls-78" points="54.88 47.4 54.88 47.3 21.88 47.3 21.88 47.4 54.88 47.4 54.88 47.4"/>
      <polygon class="cls-70" points="54.88 47.3 54.88 47.2 21.88 47.2 21.88 47.3 54.88 47.3 54.88 47.3"/>
      <polygon class="cls-149" points="54.88 47.2 54.88 47.05 21.88 47.05 21.88 47.2 54.88 47.2 54.88 47.2"/>
      <polygon class="cls-53" points="54.88 46.85 54.88 46.7 21.88 46.7 21.88 46.85 54.88 46.85 54.88 46.85"/>
      <polygon class="cls-59" points="54.88 47.9 54.88 47.75 21.88 47.75 21.88 47.9 54.88 47.9 54.88 47.9"/>
      <polygon class="cls-43" points="54.88 47.75 54.88 47.65 21.88 47.65 21.88 47.75 54.88 47.75 54.88 47.75"/>
      <polygon class="cls-55" points="54.88 48.25 54.88 48.1 21.88 48.1 21.88 48.25 54.88 48.25 54.88 48.25"/>
      <polygon class="cls-151" points="54.88 48.1 54.88 48 21.88 48 21.88 48.1 54.88 48.1 54.88 48.1"/>
      <polygon class="cls-148" points="54.88 48 54.88 47.9 21.88 47.9 21.88 48 54.88 48 54.88 48"/>
      <polygon class="cls-170" points="54.88 48.7 54.88 48.6 21.88 48.6 21.88 48.7 54.88 48.7 54.88 48.7"/>
      <polygon class="cls-167" points="54.88 48.75 54.88 48.7 21.88 48.7 21.88 48.75 54.88 48.75 54.88 48.75"/>
      <polygon class="cls-181" points="54.88 48.6 54.88 48.5 21.88 48.5 21.88 48.6 54.88 48.6 54.88 48.6"/>
      <polygon class="cls-63" points="54.88 48.5 54.88 48.35 21.88 48.35 21.88 48.5 54.88 48.5 54.88 48.5"/>
      <polygon class="cls-177" points="54.88 48.35 54.88 48.25 21.88 48.25 21.88 48.35 54.88 48.35 54.88 48.35"/>
      <polygon class="cls-54" points="54.88 47.65 54.88 47.55 21.88 47.55 21.88 47.65 54.88 47.65 54.88 47.65"/>
      <polygon class="cls-51" points="54.88 46.15 54.88 46 21.88 46 21.88 46.15 54.88 46.15 54.88 46.15"/>
      <polygon class="cls-190" points="54.88 67.15 54.88 67.05 21.88 67.05 21.88 67.15 54.88 67.15 54.88 67.15"/>
      <polygon class="cls-165" points="54.88 67.25 54.88 67.15 21.88 67.15 21.88 67.25 54.88 67.25 54.88 67.25"/>
      <polygon class="cls-66" points="54.88 67.65 54.88 67.55 21.88 67.55 21.88 67.65 54.88 67.65 54.88 67.65"/>
      <polygon class="cls-142" points="54.88 67.45 54.88 67.35 21.88 67.35 21.88 67.45 54.88 67.45 54.88 67.45"/>
      <polygon class="cls-80" points="54.88 67.55 54.88 67.45 21.88 67.45 21.88 67.55 54.88 67.55 54.88 67.55"/>
      <polygon class="cls-139" points="54.88 67.35 54.88 67.25 21.88 67.25 21.88 67.35 54.88 67.35 54.88 67.35"/>
      <polygon class="cls-173" points="54.88 67.85 54.88 67.75 21.88 67.75 21.88 67.85 54.88 67.85 54.88 67.85"/>
      <polygon class="cls-23" points="54.88 67.95 54.88 67.85 21.88 67.85 21.88 67.95 54.88 67.95 54.88 67.95"/>
      <polygon class="cls-59" points="54.88 68.05 54.88 67.95 21.88 67.95 21.88 68.05 54.88 68.05 54.88 68.05"/>
      <polygon class="cls-33" points="54.88 68.4 54.88 68.3 21.88 68.3 21.88 68.4 54.88 68.4 54.88 68.4"/>
      <polygon class="cls-227" points="54.88 68.3 54.88 68.2 21.88 68.2 21.88 68.3 54.88 68.3 54.88 68.3"/>
      <polygon class="cls-67" points="54.88 68.2 54.88 68.05 21.88 68.05 21.88 68.2 54.88 68.2 54.88 68.2"/>
      <polygon class="cls-49" points="54.88 68.6 54.88 68.5 21.88 68.5 21.88 68.6 54.88 68.6 54.88 68.6"/>
      <polygon class="cls-16" points="54.88 68.7 54.88 68.6 21.88 68.6 21.88 68.7 54.88 68.7 54.88 68.7"/>
      <polygon class="cls-83" points="54.88 68.8 54.88 68.7 21.88 68.7 21.88 68.8 54.88 68.8 54.88 68.8"/>
      <polygon class="cls-83" points="54.88 69.2 54.88 69.1 21.88 69.1 21.88 69.2 54.88 69.2 54.88 69.2"/>
      <polygon class="cls-15" points="54.88 69.1 54.88 69 21.88 69 21.88 69.1 54.88 69.1 54.88 69.1"/>
      <polygon class="cls-166" points="54.88 69 54.88 68.9 21.88 68.9 21.88 69 54.88 69 54.88 69"/>
      <polygon class="cls-8" points="54.88 68.9 54.88 68.8 21.88 68.8 21.88 68.9 54.88 68.9 54.88 68.9"/>
      <polygon class="cls-20" points="54.88 68.5 54.88 68.4 21.88 68.4 21.88 68.5 54.88 68.5 54.88 68.5"/>
      <polygon class="cls-22" points="54.88 69.6 54.88 69.5 21.88 69.5 21.88 69.6 54.88 69.6 54.88 69.6"/>
      <polygon class="cls-60" points="54.88 69.5 54.88 69.4 21.88 69.4 21.88 69.5 54.88 69.5 54.88 69.5"/>
      <polygon class="cls-45" points="54.88 69.4 54.88 69.3 21.88 69.3 21.88 69.4 54.88 69.4 54.88 69.4"/>
      <polygon class="cls-149" points="54.88 69.95 54.88 69.85 21.88 69.85 21.88 69.95 54.88 69.95 54.88 69.95"/>
      <polygon class="cls-158" points="54.88 69.85 54.88 69.75 21.88 69.75 21.88 69.85 54.88 69.85 54.88 69.85"/>
      <polygon class="cls-33" points="54.88 69.75 54.88 69.6 21.88 69.6 21.88 69.75 54.88 69.75 54.88 69.75"/>
      <polygon class="cls-54" points="54.88 70.15 54.88 70.05 21.88 70.05 21.88 70.15 54.88 70.15 54.88 70.15"/>
      <polygon class="cls-59" points="54.88 70.25 54.88 70.15 21.88 70.15 21.88 70.25 54.88 70.25 54.88 70.25"/>
      <polygon class="cls-155" points="54.88 70.35 54.88 70.25 21.88 70.25 21.88 70.35 54.88 70.35 54.88 70.35"/>
      <polygon class="cls-172" points="54.88 70.65 54.88 70.55 21.88 70.55 21.88 70.65 54.88 70.65 54.88 70.65"/>
      <polygon class="cls-161" points="54.88 70.75 54.88 70.65 21.88 70.65 21.88 70.75 54.88 70.75 54.88 70.75"/>
      <polygon class="cls-168" points="54.88 70.55 54.88 70.45 21.88 70.45 21.88 70.55 54.88 70.55 54.88 70.55"/>
      <polygon class="cls-63" points="54.88 70.45 54.88 70.35 21.88 70.35 21.88 70.45 54.88 70.45 54.88 70.45"/>
      <polygon class="cls-97" points="54.88 70.05 54.88 69.95 21.88 69.95 21.88 70.05 54.88 70.05 54.88 70.05"/>
      <polygon class="cls-85" points="54.88 69.3 54.88 69.2 21.88 69.2 21.88 69.3 54.88 69.3 54.88 69.3"/>
      <polygon class="cls-175" points="54.88 67.75 54.88 67.65 21.88 67.65 21.88 67.75 54.88 67.75 54.88 67.75"/>
      <polygon class="cls-13" points="54.88 52.95 54.88 52.85 21.88 52.85 21.88 52.95 54.88 52.95 54.88 52.95"/>
      <polygon class="cls-15" points="54.88 52.85 54.88 52.75 21.88 52.75 21.88 52.85 54.88 52.85 54.88 52.85"/>
      <polygon class="cls-166" points="54.88 52.75 54.88 52.4 21.88 52.4 21.88 52.75 54.88 52.75 54.88 52.75"/>
      <polygon class="cls-93" points="54.88 53.15 54.88 53.05 21.88 53.05 21.88 53.15 54.88 53.15 54.88 53.15"/>
      <polygon class="cls-76" points="54.88 53.25 54.88 53.15 21.88 53.15 21.88 53.25 54.88 53.25 54.88 53.25"/>
      <polygon class="cls-36" points="54.88 53.35 54.88 53.25 21.88 53.25 21.88 53.35 54.88 53.35 54.88 53.35"/>
      <polygon class="cls-73" points="54.88 53.65 54.88 53.55 21.88 53.55 21.88 53.65 54.88 53.65 54.88 53.65"/>
      <polygon class="cls-48" points="54.88 53.55 54.88 53.45 21.88 53.45 21.88 53.55 54.88 53.55 54.88 53.55"/>
      <polygon class="cls-58" points="54.88 53.45 54.88 53.35 21.88 53.35 21.88 53.45 54.88 53.45 54.88 53.45"/>
      <polygon class="cls-89" points="54.88 53.05 54.88 52.95 21.88 52.95 21.88 53.05 54.88 53.05 54.88 53.05"/>
      <polygon class="cls-32" points="54.88 54.05 54.88 53.95 21.88 53.95 21.88 54.05 54.88 54.05 54.88 54.05"/>
      <polygon class="cls-39" points="54.88 53.95 54.88 53.85 21.88 53.85 21.88 53.95 54.88 53.95 54.88 53.95"/>
      <polygon class="cls-25" points="54.88 53.85 54.88 53.75 21.88 53.75 21.88 53.85 54.88 53.85 54.88 53.85"/>
      <polygon class="cls-160" points="54.88 54.45 54.88 54.35 21.88 54.35 21.88 54.45 54.88 54.45 54.88 54.45"/>
      <polygon class="cls-226" points="54.88 54.35 54.88 54.25 21.88 54.25 21.88 54.35 54.88 54.35 54.88 54.35"/>
      <polygon class="cls-200" points="54.88 54.25 54.88 54.15 21.88 54.15 21.88 54.25 54.88 54.25 54.88 54.25"/>
      <polygon class="cls-29" points="54.88 54.15 54.88 54.05 21.88 54.05 21.88 54.15 54.88 54.15 54.88 54.15"/>
      <polygon class="cls-79" points="54.88 54.65 54.88 54.55 21.88 54.55 21.88 54.65 54.88 54.65 54.88 54.65"/>
      <polygon class="cls-54" points="54.88 54.75 54.88 54.65 21.88 54.65 21.88 54.75 54.88 54.75 54.88 54.75"/>
      <polygon class="cls-40" points="54.88 54.85 54.88 54.75 21.88 54.75 21.88 54.85 54.88 54.85 54.88 54.85"/>
      <polygon class="cls-171" points="54.88 55.25 54.88 55.15 21.88 55.15 21.88 55.25 54.88 55.25 54.88 55.25"/>
      <polygon class="cls-55" points="54.88 55.15 54.88 55.05 21.88 55.05 21.88 55.15 54.88 55.15 54.88 55.15"/>
      <polygon class="cls-151" points="54.88 55.05 54.88 54.95 21.88 54.95 21.88 55.05 54.88 55.05 54.88 55.05"/>
      <polygon class="cls-164" points="54.88 54.95 54.88 54.85 21.88 54.85 21.88 54.95 54.88 54.95 54.88 54.95"/>
      <polygon class="cls-78" points="54.88 54.55 54.88 54.45 21.88 54.45 21.88 54.55 54.88 54.55 54.88 54.55"/>
      <polygon class="cls-22" points="54.88 53.75 54.88 53.65 21.88 53.65 21.88 53.75 54.88 53.75 54.88 53.75"/>
      <polygon class="cls-170" points="54.88 55.45 54.88 55.35 21.88 55.35 21.88 55.45 54.88 55.45 54.88 55.45"/>
      <polygon class="cls-191" points="54.88 55.55 54.88 55.45 21.88 55.45 21.88 55.55 54.88 55.55 54.88 55.55"/>
      <polygon class="cls-175" points="54.88 55.65 54.88 55.55 21.88 55.55 21.88 55.65 54.88 55.65 54.88 55.65"/>
      <polygon class="cls-75" points="54.88 55.75 54.88 55.65 21.88 55.65 21.88 55.75 54.88 55.75 54.88 55.75"/>
      <polygon class="cls-161" points="54.88 56.1 54.88 55.75 21.88 55.75 21.88 56.1 54.88 56.1 54.88 56.1"/>
      <polygon class="cls-69" points="54.88 55.35 54.88 55.25 21.88 55.25 21.88 55.35 54.88 55.35 54.88 55.35"/>
      <polygon class="cls-89" points="54.88 56.15 54.88 56.1 21.88 56.1 21.88 56.15 54.88 56.15 54.88 56.15"/>
      <polygon class="cls-88" points="54.88 56.25 54.88 56.15 21.88 56.15 21.88 56.25 54.88 56.25 54.88 56.25"/>
      <polygon class="cls-85" points="54.88 56.35 54.88 56.25 21.88 56.25 21.88 56.35 54.88 56.35 54.88 56.35"/>
      <polygon class="cls-58" points="54.88 56.75 54.88 56.6 21.88 56.6 21.88 56.75 54.88 56.75 54.88 56.75"/>
      <polygon class="cls-18" points="54.88 56.6 54.88 56.5 21.88 56.5 21.88 56.6 54.88 56.6 54.88 56.6"/>
      <polygon class="cls-14" points="54.88 56.5 54.88 56.35 21.88 56.35 21.88 56.5 54.88 56.5 54.88 56.5"/>
      <polygon class="cls-20" points="54.88 57.2 54.88 57.1 21.88 57.1 21.88 57.2 54.88 57.2 54.88 57.2"/>
      <polygon class="cls-51" points="54.88 57.1 54.88 56.95 21.88 56.95 21.88 57.1 54.88 57.1 54.88 57.1"/>
      <polygon class="cls-60" points="54.88 56.95 54.88 56.85 21.88 56.85 21.88 56.95 54.88 56.95 54.88 56.95"/>
      <polygon class="cls-33" points="54.88 57.55 54.88 57.45 21.88 57.45 21.88 57.55 54.88 57.55 54.88 57.55"/>
      <polygon class="cls-39" points="54.88 57.45 54.88 57.3 21.88 57.3 21.88 57.45 54.88 57.45 54.88 57.45"/>
      <polygon class="cls-25" points="54.88 57.3 54.88 57.2 21.88 57.2 21.88 57.3 54.88 57.3 54.88 57.3"/>
      <polygon class="cls-53" points="54.88 57.8 54.88 57.65 21.88 57.65 21.88 57.8 54.88 57.8 54.88 57.8"/>
      <polygon class="cls-200" points="54.88 57.9 54.88 57.8 21.88 57.8 21.88 57.9 54.88 57.9 54.88 57.9"/>
      <polygon class="cls-157" points="54.88 58 54.88 57.9 21.88 57.9 21.88 58 54.88 58 54.88 58"/>
      <polygon class="cls-78" points="54.88 58.35 54.88 58.25 21.88 58.25 21.88 58.35 54.88 58.35 54.88 58.35"/>
      <polygon class="cls-70" points="54.88 58.25 54.88 58.15 21.88 58.15 21.88 58.25 54.88 58.25 54.88 58.25"/>
      <polygon class="cls-149" points="54.88 58.15 54.88 58 21.88 58 21.88 58.15 54.88 58.15 54.88 58.15"/>
      <polygon class="cls-35" points="54.88 57.65 54.88 57.55 21.88 57.55 21.88 57.65 54.88 57.65 54.88 57.65"/>
      <polygon class="cls-49" points="54.88 56.85 54.88 56.75 21.88 56.75 21.88 56.85 54.88 56.85 54.88 56.85"/>
      <polygon class="cls-43" points="54.88 58.7 54.88 58.6 21.88 58.6 21.88 58.7 54.88 58.7 54.88 58.7"/>
      <polygon class="cls-54" points="54.88 58.6 54.88 58.5 21.88 58.5 21.88 58.6 54.88 58.6 54.88 58.6"/>
      <polygon class="cls-151" points="54.88 59.05 54.88 58.95 21.88 58.95 21.88 59.05 54.88 59.05 54.88 59.05"/>
      <polygon class="cls-148" points="54.88 58.95 54.88 58.85 21.88 58.85 21.88 58.95 54.88 58.95 54.88 58.95"/>
      <polygon class="cls-59" points="54.88 58.85 54.88 58.7 21.88 58.7 21.88 58.85 54.88 58.85 54.88 58.85"/>
      <polygon class="cls-177" points="54.88 59.3 54.88 59.2 21.88 59.2 21.88 59.3 54.88 59.3 54.88 59.3"/>
      <polygon class="cls-63" points="54.88 59.45 54.88 59.3 21.88 59.3 21.88 59.45 54.88 59.45 54.88 59.45"/>
      <polygon class="cls-167" points="54.88 59.75 54.88 59.65 21.88 59.65 21.88 59.75 54.88 59.75 54.88 59.75"/>
      <polygon class="cls-170" points="54.88 59.65 54.88 59.55 21.88 59.55 21.88 59.65 54.88 59.65 54.88 59.65"/>
      <polygon class="cls-181" points="54.88 59.55 54.88 59.45 21.88 59.45 21.88 59.55 54.88 59.55 54.88 59.55"/>
      <polygon class="cls-55" points="54.88 59.2 54.88 59.05 21.88 59.05 21.88 59.2 54.88 59.2 54.88 59.2"/>
      <polygon class="cls-201" points="54.88 58.5 54.88 58.35 21.88 58.35 21.88 58.5 54.88 58.5 54.88 58.5"/>
      <polygon class="cls-93" points="54.88 60.65 54.88 60.55 21.88 60.55 21.88 60.65 54.88 60.65 54.88 60.65"/>
      <polygon class="cls-83" points="54.88 60.55 54.88 60.45 21.88 60.45 21.88 60.55 54.88 60.55 54.88 60.55"/>
      <polygon class="cls-9" points="54.88 60.45 54.88 60.35 21.88 60.35 21.88 60.45 54.88 60.45 54.88 60.45"/>
      <polygon class="cls-18" points="54.88 60.85 54.88 60.75 21.88 60.75 21.88 60.85 54.88 60.85 54.88 60.85"/>
      <polygon class="cls-61" points="54.88 60.95 54.88 60.85 21.88 60.85 21.88 60.95 54.88 60.95 54.88 60.95"/>
      <polygon class="cls-33" points="54.88 61.4 54.88 61.3 21.88 61.3 21.88 61.4 54.88 61.4 54.88 61.4"/>
      <polygon class="cls-27" points="54.88 61.3 54.88 61.2 21.88 61.2 21.88 61.3 54.88 61.3 54.88 61.3"/>
      <polygon class="cls-20" points="54.88 61.2 54.88 61.1 21.88 61.1 21.88 61.2 54.88 61.2 54.88 61.2"/>
      <polygon class="cls-73" points="54.88 61.1 54.88 60.95 21.88 60.95 21.88 61.1 54.88 61.1 54.88 61.1"/>
      <polygon class="cls-76" points="54.88 60.75 54.88 60.65 21.88 60.65 21.88 60.75 54.88 60.75 54.88 60.75"/>
      <polygon class="cls-166" points="54.88 60.35 54.88 59.75 21.88 59.75 21.88 60.35 54.88 60.35 54.88 60.35"/>
      <polygon class="cls-200" points="54.88 61.6 54.88 61.5 21.88 61.5 21.88 61.6 54.88 61.6 54.88 61.6"/>
      <polygon class="cls-226" points="54.88 61.7 54.88 61.6 21.88 61.6 21.88 61.7 54.88 61.7 54.88 61.7"/>
      <polygon class="cls-70" points="54.88 61.8 54.88 61.7 21.88 61.7 21.88 61.8 54.88 61.8 54.88 61.8"/>
      <polygon class="cls-150" points="54.88 62.25 54.88 62.1 21.88 62.1 21.88 62.25 54.88 62.25 54.88 62.25"/>
      <polygon class="cls-40" points="54.88 62.1 54.88 62 21.88 62 21.88 62.1 54.88 62.1 54.88 62.1"/>
      <polygon class="cls-54" points="54.88 62 54.88 61.9 21.88 61.9 21.88 62 54.88 62 54.88 62"/>
      <polygon class="cls-81" points="54.88 61.9 54.88 61.8 21.88 61.8 21.88 61.9 54.88 61.9 54.88 61.9"/>
      <polygon class="cls-72" points="54.88 62.45 54.88 62.35 21.88 62.35 21.88 62.45 54.88 62.45 54.88 62.45"/>
      <polygon class="cls-69" points="54.88 62.55 54.88 62.45 21.88 62.45 21.88 62.55 54.88 62.55 54.88 62.55"/>
      <polygon class="cls-162" points="54.88 62.95 54.88 62.85 21.88 62.85 21.88 62.95 54.88 62.95 54.88 62.95"/>
      <polygon class="cls-75" points="54.88 62.85 54.88 62.75 21.88 62.75 21.88 62.85 54.88 62.85 54.88 62.85"/>
      <polygon class="cls-147" points="54.88 62.75 54.88 62.65 21.88 62.65 21.88 62.75 54.88 62.75 54.88 62.75"/>
      <polygon class="cls-168" points="54.88 62.65 54.88 62.55 21.88 62.55 21.88 62.65 54.88 62.65 54.88 62.65"/>
      <polygon class="cls-55" points="54.88 62.35 54.88 62.25 21.88 62.25 21.88 62.35 54.88 62.35 54.88 62.35"/>
      <polygon class="cls-161" points="54.88 63.4 54.88 62.95 21.88 62.95 21.88 63.4 54.88 63.4 54.88 63.4"/>
      <polygon class="cls-28" points="54.88 61.5 54.88 61.4 21.88 61.4 21.88 61.5 54.88 61.5 54.88 61.5"/>
      <polygon class="cls-84" points="54.88 63.8 54.88 63.7 21.88 63.7 21.88 63.8 54.88 63.8 54.88 63.8"/>
      <polygon class="cls-9" points="54.88 63.7 54.88 63.6 21.88 63.6 21.88 63.7 54.88 63.7 54.88 63.7"/>
      <polygon class="cls-15" points="54.88 63.6 54.88 63.5 21.88 63.5 21.88 63.6 54.88 63.6 54.88 63.6"/>
      <polygon class="cls-87" points="54.88 63.5 54.88 63.4 21.88 63.4 21.88 63.5 54.88 63.5 54.88 63.5"/>
      <polygon class="cls-86" points="54.88 64 54.88 63.9 21.88 63.9 21.88 64 54.88 64 54.88 64"/>
      <polygon class="cls-16" points="54.88 64.1 54.88 64 21.88 64 21.88 64.1 54.88 64.1 54.88 64.1"/>
      <polygon class="cls-73" points="54.88 64.55 54.88 64.4 21.88 64.4 21.88 64.55 54.88 64.55 54.88 64.55"/>
      <polygon class="cls-49" points="54.88 64.4 54.88 64.3 21.88 64.3 21.88 64.4 54.88 64.4 54.88 64.4"/>
      <polygon class="cls-31" points="54.88 64.3 54.88 64.2 21.88 64.2 21.88 64.3 54.88 64.3 54.88 64.3"/>
      <polygon class="cls-36" points="54.88 64.2 54.88 64.1 21.88 64.1 21.88 64.2 54.88 64.2 54.88 64.2"/>
      <polygon class="cls-90" points="54.88 63.9 54.88 63.8 21.88 63.8 21.88 63.9 54.88 63.9 54.88 63.9"/>
      <polygon class="cls-17" points="54.88 64.75 54.88 64.65 21.88 64.65 21.88 64.75 54.88 64.75 54.88 64.75"/>
      <polygon class="cls-27" points="54.88 64.85 54.88 64.75 21.88 64.75 21.88 64.85 54.88 64.85 54.88 64.85"/>
      <polygon class="cls-46" points="54.88 64.95 54.88 64.85 21.88 64.85 21.88 64.95 54.88 64.95 54.88 64.95"/>
      <polygon class="cls-200" points="54.88 65.25 54.88 65.15 21.88 65.15 21.88 65.25 54.88 65.25 54.88 65.25"/>
      <polygon class="cls-29" points="54.88 65.15 54.88 65.05 21.88 65.05 21.88 65.15 54.88 65.15 54.88 65.15"/>
      <polygon class="cls-35" points="54.88 65.05 54.88 64.95 21.88 64.95 21.88 65.05 54.88 65.05 54.88 65.05"/>
      <polygon class="cls-149" points="54.88 65.45 54.88 65.35 21.88 65.35 21.88 65.45 54.88 65.45 54.88 65.45"/>
      <polygon class="cls-67" points="54.88 65.55 54.88 65.45 21.88 65.45 21.88 65.55 54.88 65.55 54.88 65.55"/>
      <polygon class="cls-81" points="54.88 65.65 54.88 65.55 21.88 65.55 21.88 65.65 54.88 65.65 54.88 65.65"/>
      <polygon class="cls-148" points="54.88 66.1 54.88 65.95 21.88 65.95 21.88 66.1 54.88 66.1 54.88 66.1"/>
      <polygon class="cls-40" points="54.88 65.95 54.88 65.85 21.88 65.85 21.88 65.95 54.88 65.95 54.88 65.95"/>
      <polygon class="cls-37" points="54.88 65.85 54.88 65.75 21.88 65.75 21.88 65.85 54.88 65.85 54.88 65.85"/>
      <polygon class="cls-201" points="54.88 65.75 54.88 65.65 21.88 65.65 21.88 65.75 54.88 65.75 54.88 65.75"/>
      <polygon class="cls-157" points="54.88 65.35 54.88 65.25 21.88 65.25 21.88 65.35 54.88 65.35 54.88 65.35"/>
      <polygon class="cls-64" points="54.88 66.5 54.88 66.4 21.88 66.4 21.88 66.5 54.88 66.5 54.88 66.5"/>
      <polygon class="cls-171" points="54.88 66.4 54.88 66.3 21.88 66.3 21.88 66.4 54.88 66.4 54.88 66.4"/>
      <polygon class="cls-23" points="54.88 66.3 54.88 66.2 21.88 66.2 21.88 66.3 54.88 66.3 54.88 66.3"/>
      <polygon class="cls-193" points="54.88 66.8 54.88 66.7 21.88 66.7 21.88 66.8 54.88 66.8 54.88 66.8"/>
      <polygon class="cls-168" points="54.88 66.7 54.88 66.6 21.88 66.6 21.88 66.7 54.88 66.7 54.88 66.7"/>
      <polygon class="cls-173" points="54.88 66.6 54.88 66.5 21.88 66.5 21.88 66.6 54.88 66.6 54.88 66.6"/>
      <polygon class="cls-159" points="54.88 67 54.88 66.9 21.88 66.9 21.88 67 54.88 67 54.88 67"/>
      <polygon class="cls-161" points="54.88 67.05 54.88 67 21.88 67 21.88 67.05 54.88 67.05 54.88 67.05"/>
      <polygon class="cls-172" points="54.88 66.9 54.88 66.8 21.88 66.8 21.88 66.9 54.88 66.9 54.88 66.9"/>
      <polygon class="cls-62" points="54.88 66.2 54.88 66.1 21.88 66.1 21.88 66.2 54.88 66.2 54.88 66.2"/>
      <polygon class="cls-51" points="54.88 64.65 54.88 64.55 21.88 64.55 21.88 64.65 54.88 64.65 54.88 64.65"/>
      <polygon class="cls-89" points="54.88 49.05 54.88 48.9 21.88 48.9 21.88 49.05 54.88 49.05 54.88 49.05"/>
      <polygon class="cls-13" points="54.88 48.9 54.88 48.8 21.88 48.8 21.88 48.9 54.88 48.9 54.88 48.9"/>
      <polygon class="cls-9" points="54.88 48.8 54.88 48.75 21.88 48.75 21.88 48.8 54.88 48.8 54.88 48.8"/>
      <polygon class="cls-85" points="54.88 49.25 54.88 49.15 21.88 49.15 21.88 49.25 54.88 49.25 54.88 49.25"/>
      <polygon class="cls-14" points="54.88 49.35 54.88 49.25 21.88 49.25 21.88 49.35 54.88 49.35 54.88 49.35"/>
      <polygon class="cls-18" points="54.88 49.45 54.88 49.35 21.88 49.35 21.88 49.45 54.88 49.45 54.88 49.45"/>
      <polygon class="cls-77" points="54.88 49.85 54.88 49.75 21.88 49.75 21.88 49.85 54.88 49.85 54.88 49.85"/>
      <polygon class="cls-60" points="54.88 49.75 54.88 49.65 21.88 49.65 21.88 49.75 54.88 49.75 54.88 49.75"/>
      <polygon class="cls-49" points="54.88 49.65 54.88 49.55 21.88 49.55 21.88 49.65 54.88 49.65 54.88 49.65"/>
      <polygon class="cls-58" points="54.88 49.55 54.88 49.45 21.88 49.45 21.88 49.55 54.88 49.55 54.88 49.55"/>
      <polygon class="cls-19" points="54.88 50.1 54.88 49.95 21.88 49.95 21.88 50.1 54.88 50.1 54.88 50.1"/>
      <polygon class="cls-10" points="54.88 50.2 54.88 50.1 21.88 50.1 21.88 50.2 54.88 50.2 54.88 50.2"/>
      <polygon class="cls-200" points="54.88 50.6 54.88 50.5 21.88 50.5 21.88 50.6 54.88 50.6 54.88 50.6"/>
      <polygon class="cls-53" points="54.88 50.5 54.88 50.4 21.88 50.4 21.88 50.5 54.88 50.5 54.88 50.5"/>
      <polygon class="cls-35" points="54.88 50.4 54.88 50.3 21.88 50.3 21.88 50.4 54.88 50.4 54.88 50.4"/>
      <polygon class="cls-33" points="54.88 50.3 54.88 50.2 21.88 50.2 21.88 50.3 54.88 50.3 54.88 50.3"/>
      <polygon class="cls-22" points="54.88 49.95 54.88 49.85 21.88 49.85 21.88 49.95 54.88 49.95 54.88 49.95"/>
      <polygon class="cls-78" points="54.88 51 54.88 50.9 21.88 50.9 21.88 51 54.88 51 54.88 51"/>
      <polygon class="cls-70" points="54.88 50.9 54.88 50.8 21.88 50.8 21.88 50.9 54.88 50.9 54.88 50.9"/>
      <polygon class="cls-149" points="54.88 50.8 54.88 50.7 21.88 50.7 21.88 50.8 54.88 50.8 54.88 50.8"/>
      <polygon class="cls-52" points="54.88 51.35 54.88 51.25 21.88 51.25 21.88 51.35 54.88 51.35 54.88 51.35"/>
      <polygon class="cls-54" points="54.88 51.25 54.88 51.1 21.88 51.1 21.88 51.25 54.88 51.25 54.88 51.25"/>
      <polygon class="cls-79" points="54.88 51.1 54.88 51 21.88 51 21.88 51.1 54.88 51.1 54.88 51.1"/>
      <polygon class="cls-148" points="54.88 51.55 54.88 51.45 21.88 51.45 21.88 51.55 54.88 51.55 54.88 51.55"/>
      <polygon class="cls-151" points="54.88 51.65 54.88 51.55 21.88 51.55 21.88 51.65 54.88 51.65 54.88 51.65"/>
      <polygon class="cls-55" points="54.88 51.75 54.88 51.65 21.88 51.65 21.88 51.75 54.88 51.75 54.88 51.75"/>
      <polygon class="cls-173" points="54.88 52.15 54.88 52.05 21.88 52.05 21.88 52.15 54.88 52.15 54.88 52.15"/>
      <polygon class="cls-69" points="54.88 52.05 54.88 51.95 21.88 51.95 21.88 52.05 54.88 52.05 54.88 52.05"/>
      <polygon class="cls-63" points="54.88 51.95 54.88 51.85 21.88 51.85 21.88 51.95 54.88 51.95 54.88 51.95"/>
      <polygon class="cls-177" points="54.88 51.85 54.88 51.75 21.88 51.75 21.88 51.85 54.88 51.85 54.88 51.85"/>
      <polygon class="cls-41" points="54.88 51.45 54.88 51.35 21.88 51.35 21.88 51.45 54.88 51.45 54.88 51.45"/>
      <polygon class="cls-157" points="54.88 50.7 54.88 50.6 21.88 50.6 21.88 50.7 54.88 50.7 54.88 50.7"/>
      <polygon class="cls-93" points="54.88 49.15 54.88 49.05 21.88 49.05 21.88 49.15 54.88 49.15 54.88 49.15"/>
      <polygon class="cls-147" points="54.88 52.4 54.88 52.3 21.88 52.3 21.88 52.4 54.88 52.4 54.88 52.4"/>
      <polygon class="cls-191" points="54.88 52.3 54.88 52.15 21.88 52.15 21.88 52.3 54.88 52.3 54.88 52.3"/>
      <polygon class="cls-115" points="12.98 46.25 12.78 46.7 21.88 46.7 21.88 46.25 12.98 46.25 12.98 46.25"/>
      <polygon class="cls-205" points="12.78 46.7 12.63 47.15 21.88 47.15 21.88 46.7 12.78 46.7 12.78 46.7"/>
      <polygon class="cls-202" points="12.33 48.5 12.28 48.95 21.88 48.95 21.88 48.75 21.88 48.5 12.33 48.5 12.33 48.5"/>
      <polygon class="cls-210" points="12.43 48.05 12.33 48.5 21.88 48.5 21.88 48.05 12.43 48.05 12.43 48.05"/>
      <polygon class="cls-218" points="12.53 47.6 12.43 48.05 21.88 48.05 21.88 47.6 12.53 47.6 12.53 47.6"/>
      <polygon class="cls-214" points="12.63 47.15 12.53 47.6 21.88 47.6 21.88 47.15 12.63 47.15 12.63 47.15"/>
      <polygon class="cls-2" points="12.23 49.4 12.18 49.85 21.88 49.85 21.88 49.4 12.23 49.4 12.23 49.4"/>
      <polygon class="cls-221" points="12.18 49.85 12.13 50.35 21.88 50.35 21.88 49.85 12.18 49.85 12.18 49.85"/>
      <polygon class="cls-219" points="12.13 51.7 12.13 52.15 21.88 52.15 21.88 51.7 12.13 51.7 12.13 51.7"/>
      <polygon class="cls-5" points="12.13 51.25 12.13 51.7 21.88 51.7 21.88 51.25 12.13 51.25 12.13 51.25"/>
      <polygon class="cls-4" points="12.13 50.8 12.13 51.2 12.13 51.25 21.88 51.25 21.88 50.8 12.13 50.8 12.13 50.8"/>
      <polygon class="cls-212" points="12.13 50.35 12.13 50.8 21.88 50.8 21.88 50.35 12.13 50.35 12.13 50.35"/>
      <polygon class="cls-208" points="12.28 48.95 12.23 49.4 21.88 49.4 21.88 48.95 12.28 48.95 12.28 48.95"/>
      <polygon class="cls-107" points="21.88 45.35 21.88 45.1 21.88 41.45 20.33 41.45 18.98 41.6 17.73 41.9 16.63 42.35 15.63 42.9 14.78 43.6 14.03 44.4 13.43 45.35 21.88 45.35 21.88 45.35"/>
      <polygon class="cls-112" points="21.88 45.8 21.88 45.35 13.43 45.35 13.18 45.8 21.88 45.8 21.88 45.8"/>
      <polygon class="cls-99" points="21.88 46.25 21.88 45.8 13.18 45.8 12.98 46.25 21.88 46.25 21.88 46.25"/>
      <polygon class="cls-207" points="21.88 52.15 12.13 52.15 12.13 52.6 21.88 52.6 21.88 52.4 21.88 52.15 21.88 52.15"/>
      <polygon class="cls-102" points="21.88 53.05 21.88 52.6 12.13 52.6 12.13 53.05 21.88 53.05 21.88 53.05"/>
      <polygon class="cls-122" points="21.88 53.5 21.88 53.05 12.13 53.05 12.13 53.5 21.88 53.5 21.88 53.5"/>
      <polygon class="cls-117" points="21.88 54.85 21.88 54.4 12.13 54.4 12.13 54.85 21.88 54.85 21.88 54.85"/>
      <polygon class="cls-120" points="21.88 54.4 21.88 53.95 12.13 53.95 12.13 54.4 21.88 54.4 21.88 54.4"/>
      <polygon class="cls-128" points="21.88 53.95 21.88 53.5 12.13 53.5 12.13 53.95 21.88 53.95 21.88 53.95"/>
      <polygon class="cls-197" points="21.88 55.75 21.88 55.3 12.13 55.3 12.13 55.75 21.88 55.75 21.88 55.75"/>
      <polygon class="cls-130" points="21.88 56.1 21.88 55.75 12.13 55.75 12.13 56.2 21.88 56.2 21.88 56.1 21.88 56.1"/>
      <polygon class="cls-192" points="21.88 56.65 21.88 56.2 12.13 56.2 12.13 56.65 21.88 56.65 21.88 56.65"/>
      <polygon class="cls-145" points="21.88 58 21.88 57.55 12.13 57.55 12.13 58 21.88 58 21.88 58"/>
      <polygon class="cls-108" points="21.88 57.55 21.88 57.1 12.13 57.1 12.13 57.55 21.88 57.55 21.88 57.55"/>
      <polygon class="cls-137" points="21.88 57.1 21.88 56.65 12.13 56.65 12.13 57.1 21.88 57.1 21.88 57.1"/>
      <polygon class="cls-101" points="21.88 55.3 21.88 54.85 12.13 54.85 12.13 55.3 21.88 55.3 21.88 55.3"/>
      <polygon class="cls-195" points="21.88 59.8 21.88 59.75 21.88 59.35 12.13 59.35 12.13 59.8 21.88 59.8 21.88 59.8"/>
      <polygon class="cls-74" points="21.88 59.35 21.88 58.9 12.13 58.9 12.13 59.35 21.88 59.35 21.88 59.35"/>
      <polygon class="cls-94" points="21.88 58.9 21.88 58.45 12.13 58.45 12.13 58.9 21.88 58.9 21.88 58.9"/>
      <polygon class="cls-154" points="21.88 61.15 21.88 60.7 12.13 60.7 12.13 60.95 12.13 61.15 21.88 61.15 21.88 61.15"/>
      <polygon class="cls-178" points="21.88 60.7 21.88 60.25 12.13 60.25 12.13 60.7 21.88 60.7 21.88 60.7"/>
      <polygon class="cls-180" points="21.88 60.25 21.88 59.8 12.13 59.8 12.13 60.25 21.88 60.25 21.88 60.25"/>
      <polygon class="cls-156" points="21.88 62.1 21.88 61.65 12.13 61.65 12.13 62.1 21.88 62.1 21.88 62.1"/>
      <polygon class="cls-68" points="21.88 62.55 21.88 62.1 12.13 62.1 12.18 62.55 21.88 62.55 21.88 62.55"/>
      <polygon class="cls-225" points="21.88 63 21.88 62.55 12.18 62.55 12.23 63 21.88 63 21.88 63"/>
      <polygon class="cls-21" points="21.88 64.35 21.88 63.9 12.38 63.9 12.38 64.1 12.48 64.35 21.88 64.35 21.88 64.35"/>
      <polygon class="cls-44" points="21.88 63.9 21.88 63.45 12.28 63.45 12.38 63.9 21.88 63.9 21.88 63.9"/>
      <polygon class="cls-34" points="21.88 63.45 21.88 63.4 21.88 63 12.23 63 12.28 63.45 21.88 63.45 21.88 63.45"/>
      <polygon class="cls-42" points="21.88 61.65 21.88 61.15 12.13 61.15 12.13 61.65 21.88 61.65 21.88 61.65"/>
      <polygon class="cls-188" points="21.88 58.45 21.88 58 12.13 58 12.13 58.45 21.88 58.45 21.88 58.45"/>
      <polygon class="cls-50" points="12.73 65.25 12.93 65.7 21.88 65.7 21.88 65.25 12.73 65.25 12.73 65.25"/>
      <polygon class="cls-57" points="12.58 64.8 12.73 65.25 21.88 65.25 21.88 64.8 12.58 64.8 12.58 64.8"/>
      <polygon class="cls-24" points="21.88 66.6 21.88 66.15 13.13 66.15 13.33 66.6 21.88 66.6 21.88 66.6"/>
      <polygon class="cls-11" points="21.88 67.05 21.88 66.6 13.33 66.6 13.58 67.05 13.93 67.5 14.68 68.35 15.53 69.05 15.98 69.35 16.53 69.65 17.03 69.85 17.63 70.05 18.23 70.2 18.93 70.4 19.58 70.5 20.33 70.6 21.88 70.75 21.88 67.05 21.88 67.05"/>
      <polygon class="cls-92" points="21.88 66.15 21.88 65.7 12.93 65.7 12.98 65.9 13.13 66.15 21.88 66.15 21.88 66.15"/>
      <polygon class="cls-47" points="12.58 64.8 21.88 64.8 21.88 64.35 12.48 64.35 12.58 64.8 12.58 64.8"/>
      <line class="cls-1" x1="54.88" y1="41.45" x2="54.88" y2="45.1"/>
      <line class="cls-1" x1="54.88" y1="45.1" x2="54.88" y2="48.75"/>
      <polyline class="cls-1" points="54.88 70.75 61.23 70.75 62.38 70.65 63.48 70.5 64.48 70.3 64.68 70.2 64.78 70.15 64.93 70.15 65.43 70.05 65.83 69.85 66.03 69.75 66.13 69.7 66.28 69.7 67.08 69.3 67.83 68.8 68.53 68.25 69.08 67.55 69.58 66.8 69.98 66 69.98 65.85 70.03 65.75 70.13 65.55 70.33 65.15 70.43 64.65 70.43 64.5 70.48 64.4 70.58 64.2 70.78 63.2 70.93 62.1 70.93 61.5 70.93 61.2 70.93 61.05 70.98 60.95 70.98 51.2 70.93 49.95 70.78 48.85 70.58 47.8 70.33 46.9 69.98 45.95 69.58 45.2 69.08 44.45 68.53 43.85 67.83 43.2 67.08 42.75 66.28 42.3 65.43 42 64.48 41.7 63.48 41.55 62.38 41.4 61.23 41.45 54.88 41.45"/>
      <line class="cls-1" x1="54.88" y1="67.05" x2="54.88" y2="70.75"/>
      <line class="cls-1" x1="54.88" y1="52.4" x2="54.88" y2="56.1"/>
      <line class="cls-1" x1="54.88" y1="56.1" x2="54.88" y2="59.75"/>
      <line class="cls-1" x1="54.88" y1="59.75" x2="54.88" y2="63.4"/>
      <line class="cls-1" x1="54.88" y1="63.4" x2="54.88" y2="67.05"/>
      <line class="cls-1" x1="54.88" y1="48.75" x2="54.88" y2="52.4"/>
      <line class="cls-1" x1="21.88" y1="45.1" x2="21.88" y2="41.45"/>
      <line class="cls-1" x1="21.88" y1="48.75" x2="21.88" y2="45.1"/>
      <polyline class="cls-1" points="21.88 41.45 20.63 41.4 19.53 41.55 18.48 41.7 17.58 42 16.63 42.3 15.88 42.75 15.13 43.2 14.53 43.85 13.93 44.45 13.48 45.2 13.03 45.95 12.73 46.9 12.43 47.8 12.28 48.85 12.13 49.95 12.13 51.2 12.13 60.95 12.13 62.1 12.28 63.2 12.43 64.2 12.73 65.15 13.03 66 13.48 66.8 13.93 67.55 14.53 68.25 15.13 68.8 15.88 69.3 16.63 69.7 17.58 70.05 18.48 70.3 19.53 70.5 20.63 70.65 21.88 70.75"/>
      <line class="cls-1" x1="21.88" y1="56.1" x2="21.88" y2="52.4"/>
      <line class="cls-1" x1="21.88" y1="59.75" x2="21.88" y2="56.1"/>
      <line class="cls-1" x1="21.88" y1="63.4" x2="21.88" y2="59.75"/>
      <line class="cls-1" x1="21.88" y1="67.05" x2="21.88" y2="63.4"/>
      <line class="cls-1" x1="21.88" y1="70.75" x2="21.88" y2="67.05"/>
      <line class="cls-1" x1="21.88" y1="52.4" x2="21.88" y2="48.75"/>
      <line class="cls-1" x1="54.88" y1="41.45" x2="21.88" y2="41.45"/>
      <line class="cls-1" x1="21.88" y1="70.75" x2="54.88" y2="70.75"/>
      <line class="cls-1" x1="21.88" y1="56.1" x2="54.88" y2="56.1"/>
      <line class="cls-1" x1="54.88" y1="48.75" x2="21.88" y2="48.75"/>
      <line class="cls-1" x1="21.88" y1="63.4" x2="54.88" y2="63.4"/>
      <line class="cls-1" x1="54.88" y1="59.75" x2="21.88" y2="59.75"/>
      <line class="cls-1" x1="21.88" y1="67.05" x2="54.88" y2="67.05"/>
      <line class="cls-1" x1="54.88" y1="52.4" x2="21.88" y2="52.4"/>
      <line class="cls-1" x1="21.88" y1="45.1" x2="54.88" y2="45.1"/>
      <polygon class="cls-26" points="150.03 .5 149.23 .5 149.23 6.6 150.03 6.6 150.03 .5 150.03 .5"/>
      <polygon class="cls-44" points="149.23 .5 148.58 .5 148.58 6.6 149.23 6.6 149.23 .5 149.23 .5"/>
      <polygon class="cls-152" points="148.58 .5 147.78 .5 147.78 6.6 148.58 6.6 148.58 .5 148.58 .5"/>
      <polygon class="cls-225" points="147.78 .5 147.08 .5 147.08 6.6 147.78 6.6 147.78 .5 147.78 .5"/>
      <polygon class="cls-68" points="147.08 .5 146.33 .5 146.33 6.6 147.08 6.6 147.08 .5 147.08 .5"/>
      <polygon class="cls-156" points="146.33 .5 145.63 .5 145.63 6.6 146.33 6.6 146.33 .5 146.33 .5"/>
      <polygon class="cls-82" points="153.78 .5 152.98 .5 152.98 6.6 153.78 6.6 153.78 .5 153.78 .5"/>
      <polygon class="cls-92" points="152.98 .5 152.28 .5 152.28 6.6 152.98 6.6 152.98 .5 152.98 .5"/>
      <polygon class="cls-57" points="151.53 .5 150.83 .5 150.83 6.6 151.53 6.6 151.53 .5 151.53 .5"/>
      <polygon class="cls-50" points="152.28 .5 151.53 .5 151.53 6.6 152.28 6.6 152.28 .5 152.28 .5"/>
      <polygon class="cls-38" points="150.83 .5 150.03 .5 150.03 6.6 150.83 6.6 150.83 .5 150.83 .5"/>
      <polygon class="cls-11" points="159.78 .5 153.78 .5 153.78 6.6 159.78 6.6 159.78 .5 159.78 .5"/>
      <polygon class="cls-111" points="120.28 .5 119.48 .5 119.48 6.6 120.28 6.6 120.28 .5 120.28 .5"/>
      <polygon class="cls-112" points="119.48 .5 118.83 .5 118.83 6.6 119.48 6.6 119.48 .5 119.48 .5"/>
      <polygon class="cls-206" points="124.73 .5 124.03 .5 124.03 6.6 124.73 6.6 124.73 .5 124.73 .5"/>
      <polygon class="cls-204" points="124.03 .5 123.23 .5 123.23 6.6 124.03 6.6 124.03 .5 124.03 .5"/>
      <polygon class="cls-203" points="123.23 .5 122.53 .5 122.53 6.6 123.23 6.6 123.23 .5 123.23 .5"/>
      <polygon class="cls-216" points="122.53 .5 121.78 .5 121.78 6.6 122.53 6.6 122.53 .5 122.53 .5"/>
      <polygon class="cls-205" points="121.78 .5 120.98 .5 120.98 6.6 121.78 6.6 121.78 .5 121.78 .5"/>
      <polygon class="cls-208" points="125.48 .5 124.73 .5 124.73 6.6 125.48 6.6 125.48 .5 125.48 .5"/>
      <polygon class="cls-104" points="120.98 .5 120.28 .5 120.28 6.6 120.98 6.6 120.98 .5 120.98 .5"/>
      <polygon class="cls-109" points="118.83 .5 112.13 .5 112.13 6.6 118.83 6.6 118.83 .5 118.83 .5"/>
      <polygon class="cls-219" points="129.93 .5 129.23 .5 129.23 6.6 129.93 6.6 129.93 .5 129.93 .5"/>
      <polygon class="cls-6" points="129.23 .5 128.43 .5 128.43 6.6 129.23 6.6 129.23 .5 129.23 .5"/>
      <polygon class="cls-3" points="128.43 .5 127.73 .5 127.73 6.6 128.43 6.6 128.43 .5 128.43 .5"/>
      <polygon class="cls-146" points="127.73 .5 126.98 .5 126.98 6.6 127.73 6.6 127.73 .5 127.73 .5"/>
      <polygon class="cls-221" points="126.98 .5 126.18 .5 126.18 6.6 126.98 6.6 126.98 .5 126.98 .5"/>
      <polygon class="cls-101" points="135.13 .5 134.43 .5 134.43 6.6 135.13 6.6 135.13 .5 135.13 .5"/>
      <polygon class="cls-119" points="134.43 .5 133.63 .5 133.63 6.6 134.43 6.6 134.43 .5 134.43 .5"/>
      <polygon class="cls-120" points="133.63 .5 132.93 .5 132.93 6.6 133.63 6.6 133.63 .5 133.63 .5"/>
      <polygon class="cls-128" points="132.93 .5 132.18 .5 132.18 6.6 132.93 6.6 132.93 .5 132.93 .5"/>
      <polygon class="cls-122" points="132.18 .5 131.48 .5 131.48 6.6 132.18 6.6 132.18 .5 132.18 .5"/>
      <polygon class="cls-102" points="131.48 .5 130.68 .5 130.68 6.6 131.48 6.6 131.48 .5 131.48 .5"/>
      <polygon class="cls-209" points="130.68 .5 129.93 .5 129.93 6.6 130.68 6.6 130.68 .5 130.68 .5"/>
      <polygon class="cls-127" points="136.68 .5 135.88 .5 135.88 6.6 136.68 6.6 136.68 .5 136.68 .5"/>
      <polygon class="cls-192" points="137.38 .5 136.68 .5 136.68 6.6 137.38 6.6 137.38 .5 137.38 .5"/>
      <polygon class="cls-137" points="138.18 .5 137.38 .5 137.38 6.6 138.18 6.6 138.18 .5 138.18 .5"/>
      <polygon class="cls-108" points="138.83 .5 138.18 .5 138.18 6.6 138.83 6.6 138.83 .5 138.83 .5"/>
      <polygon class="cls-134" points="139.63 .5 138.83 .5 138.83 6.6 139.63 6.6 139.63 .5 139.63 .5"/>
      <polygon class="cls-188" points="140.33 .5 139.63 .5 139.63 6.6 140.33 6.6 140.33 .5 140.33 .5"/>
      <polygon class="cls-153" points="144.83 .5 144.03 .5 144.03 6.6 144.83 6.6 144.83 .5 144.83 .5"/>
      <polygon class="cls-178" points="144.03 .5 143.38 .5 143.38 6.6 144.03 6.6 144.03 .5 144.03 .5"/>
      <polygon class="cls-180" points="143.38 .5 142.58 .5 142.58 6.6 143.38 6.6 143.38 .5 143.38 .5"/>
      <polygon class="cls-74" points="141.88 .5 141.08 .5 141.08 6.6 141.88 6.6 141.88 .5 141.88 .5"/>
      <polygon class="cls-187" points="142.58 .5 141.88 .5 141.88 6.6 142.58 6.6 142.58 .5 142.58 .5"/>
      <polygon class="cls-182" points="141.08 .5 140.33 .5 140.33 6.6 141.08 6.6 141.08 .5 141.08 .5"/>
      <polygon class="cls-197" points="135.88 .5 135.13 .5 135.13 6.6 135.88 6.6 135.88 .5 135.88 .5"/>
      <polygon class="cls-7" points="126.18 .5 125.48 .5 125.48 6.6 126.18 6.6 126.18 .5 126.18 .5"/>
      <polygon class="cls-56" points="145.63 6.6 145.63 .5 144.83 .5 144.83 6.6 145.63 6.6 145.63 6.6"/>
      <polyline class="cls-1" points="112.13 .5 112.13 6.6 159.78 6.6 159.78 .5 112.13 .5"/>
      <polygon class="cls-197" points="135.88 6.6 135.33 6.6 135.33 17 135.88 17 135.88 6.6 135.88 6.6"/>
      <polygon class="cls-127" points="136.48 6.6 135.88 6.6 135.88 17 136.48 17 136.48 6.6 136.48 6.6"/>
      <polygon class="cls-192" points="136.98 6.6 136.48 6.6 136.48 17 136.98 17 136.98 6.6 136.98 6.6"/>
      <polygon class="cls-138" points="137.58 6.6 136.98 6.6 136.98 17 137.58 17 137.58 6.6 137.58 6.6"/>
      <polygon class="cls-108" points="138.13 6.6 137.58 6.6 137.58 17 138.13 17 138.13 6.6 138.13 6.6"/>
      <polygon class="cls-145" points="138.63 6.6 138.13 6.6 138.13 17 138.63 17 138.63 6.6 138.63 6.6"/>
      <polygon class="cls-95" points="139.23 6.6 138.63 6.6 138.63 17 139.23 17 139.23 6.6 139.23 6.6"/>
      <polygon class="cls-94" points="139.83 6.6 139.23 6.6 139.23 17 139.83 17 139.83 6.6 139.83 6.6"/>
      <polygon class="cls-225" points="144.83 6.6 144.23 6.6 144.23 17 144.83 17 144.83 6.6 144.83 6.6"/>
      <polygon class="cls-96" points="144.23 6.6 143.63 6.6 143.63 17 144.23 17 144.23 6.6 144.23 6.6"/>
      <polygon class="cls-156" points="143.63 6.6 143.18 6.6 143.18 17 143.63 17 143.63 6.6 143.63 6.6"/>
      <polygon class="cls-42" points="143.18 6.6 142.58 6.6 142.58 17 143.18 17 143.18 6.6 143.18 6.6"/>
      <polygon class="cls-153" points="142.58 6.6 141.98 6.6 141.98 17 142.58 17 142.58 6.6 142.58 6.6"/>
      <polygon class="cls-178" points="141.98 6.6 141.48 6.6 141.48 17 141.98 17 141.98 6.6 141.98 6.6"/>
      <polygon class="cls-180" points="141.48 6.6 140.88 6.6 140.88 17 141.48 17 141.48 6.6 141.48 6.6"/>
      <polygon class="cls-194" points="140.88 6.6 140.33 6.6 140.33 17 140.88 17 140.88 6.6 140.88 6.6"/>
      <polygon class="cls-74" points="140.33 6.6 139.83 6.6 139.83 17 140.33 17 140.33 6.6 140.33 6.6"/>
      <polygon class="cls-204" points="127.08 6.6 126.48 6.6 126.48 17 127.08 17 127.08 6.6 127.08 6.6"/>
      <polygon class="cls-218" points="126.48 6.6 125.88 6.6 125.88 17 126.48 17 126.48 6.6 126.48 6.6"/>
      <polygon class="cls-216" points="125.88 6.6 125.38 6.6 125.38 17 125.88 17 125.88 6.6 125.88 6.6"/>
      <polygon class="cls-206" points="127.53 6.6 127.08 6.6 127.08 17 127.53 17 127.53 6.6 127.53 6.6"/>
      <polygon class="cls-217" points="128.13 6.6 127.53 6.6 127.53 17 128.13 17 128.13 6.6 128.13 6.6"/>
      <polygon class="cls-7" points="128.63 6.6 128.13 6.6 128.13 17 128.63 17 128.63 6.6 128.63 6.6"/>
      <polygon class="cls-221" points="129.23 6.6 128.63 6.6 128.63 17 129.23 17 129.23 6.6 129.23 6.6"/>
      <polygon class="cls-146" points="129.83 6.6 129.23 6.6 129.23 17 129.83 17 129.83 6.6 129.83 6.6"/>
      <polygon class="cls-117" points="134.83 6.6 134.23 6.6 134.23 17 134.83 17 134.83 6.6 134.83 6.6"/>
      <polygon class="cls-110" points="134.23 6.6 133.63 6.6 133.63 17 134.23 17 134.23 6.6 134.23 6.6"/>
      <polygon class="cls-128" points="133.63 6.6 133.13 6.6 133.13 17 133.63 17 133.63 6.6 133.63 6.6"/>
      <polygon class="cls-122" points="133.13 6.6 132.58 6.6 132.58 17 133.13 17 133.13 6.6 133.13 6.6"/>
      <polygon class="cls-215" points="132.58 6.6 131.98 6.6 131.98 17 132.58 17 132.58 6.6 132.58 6.6"/>
      <polygon class="cls-213" points="131.98 6.6 131.48 6.6 131.48 17 131.98 17 131.98 6.6 131.98 6.6"/>
      <polygon class="cls-219" points="131.48 6.6 130.88 6.6 130.88 17 131.48 17 131.48 6.6 131.48 6.6"/>
      <polygon class="cls-6" points="130.88 6.6 130.28 6.6 130.28 17 130.88 17 130.88 6.6 130.88 6.6"/>
      <polygon class="cls-3" points="130.28 6.6 129.83 6.6 129.83 17 130.28 17 130.28 6.6 130.28 6.6"/>
      <polygon class="cls-199" points="144.83 6.6 144.83 17 145.33 17 145.33 6.6 144.83 6.6 144.83 6.6"/>
      <polygon class="cls-98" points="135.33 17 135.33 6.6 134.83 6.6 134.83 17 135.33 17 135.33 17"/>
      <polygon class="cls-103" points="125.38 17 125.38 6.6 124.78 6.6 124.78 17 125.38 17 125.38 17"/>
      <polygon class="cls-115" points="124.78 6.6 124.23 6.6 124.23 17 124.78 17 124.78 6.6 124.78 6.6"/>
      <polygon class="cls-109" points="123.13 6.6 118.13 6.6 118.13 17 123.13 17 123.13 6.6 123.13 6.6"/>
      <polygon class="cls-112" points="123.73 6.6 123.13 6.6 123.13 17 123.73 17 123.73 6.6 123.73 6.6"/>
      <polygon class="cls-99" points="124.23 6.6 123.73 6.6 123.73 17 124.23 17 124.23 6.6 124.23 6.6"/>
      <polygon class="cls-11" points="153.68 6.6 149.23 6.6 149.23 17 153.68 17 153.68 6.6 153.68 6.6"/>
      <polygon class="cls-24" points="149.23 6.6 148.68 6.6 148.68 17 149.23 17 149.23 6.6 149.23 6.6"/>
      <polygon class="cls-91" points="148.68 6.6 148.08 6.6 148.08 17 148.68 17 148.68 6.6 148.68 6.6"/>
      <polygon class="cls-50" points="148.08 6.6 147.58 6.6 147.58 17 148.08 17 148.08 6.6 148.08 6.6"/>
      <polygon class="cls-57" points="147.58 6.6 146.98 6.6 146.98 17 147.58 17 147.58 6.6 147.58 6.6"/>
      <polygon class="cls-71" points="146.98 6.6 146.38 6.6 146.38 17 146.98 17 146.98 6.6 146.98 6.6"/>
      <polygon class="cls-44" points="145.93 6.6 145.33 6.6 145.33 17 145.93 17 145.93 6.6 145.93 6.6"/>
      <polygon class="cls-21" points="146.38 6.6 145.93 6.6 145.93 17 146.38 17 146.38 6.6 146.38 6.6"/>
      <polyline class="cls-1" points="118.13 17 153.68 17 153.68 6.6 118.13 6.6 118.13 17"/>
      <polygon class="cls-114" points="89.88 25.45 89.88 26.65 266.68 26.65 266.68 25.45 89.88 25.45 89.88 25.45"/>
      <polygon class="cls-109" points="89.88 14.3 89.88 25.45 266.68 25.45 266.68 14.3 89.88 14.3 89.88 14.3"/>
      <polygon class="cls-211" points="89.88 29.05 89.88 30.25 266.68 30.25 266.68 29.05 89.88 29.05 89.88 29.05"/>
      <polygon class="cls-104" points="89.88 27.85 89.88 29.05 266.68 29.05 266.68 27.85 89.88 27.85 89.88 27.85"/>
      <polygon class="cls-218" points="89.88 31.4 89.88 32.6 266.68 32.6 266.68 31.4 89.88 31.4 89.88 31.4"/>
      <polygon class="cls-216" points="89.88 30.25 89.88 31.4 266.68 31.4 266.68 30.25 89.88 30.25 89.88 30.25"/>
      <polygon class="cls-206" points="89.88 33.8 89.88 35 266.68 35 266.68 33.8 89.88 33.8 89.88 33.8"/>
      <polygon class="cls-217" points="89.88 35 89.88 36.2 266.68 36.2 266.68 35 89.88 35 89.88 35"/>
      <polygon class="cls-212" points="89.88 38.55 89.88 39.75 266.68 39.75 266.68 38.55 89.88 38.55 89.88 38.55"/>
      <polygon class="cls-221" points="89.88 37.35 89.88 38.55 266.68 38.55 266.68 37.35 89.88 37.35 89.88 37.35"/>
      <polygon class="cls-7" points="89.88 36.2 89.88 37.35 266.68 37.35 266.68 36.2 89.88 36.2 89.88 36.2"/>
      <polygon class="cls-210" points="89.88 32.6 89.88 33.8 266.68 33.8 266.68 32.6 89.88 32.6 89.88 32.6"/>
      <polygon class="cls-5" points="89.88 40.95 89.88 42.15 266.68 42.15 266.68 40.95 89.88 40.95 89.88 40.95"/>
      <polygon class="cls-215" points="89.88 44.5 89.88 45.7 266.68 45.7 266.68 44.5 89.88 44.5 89.88 44.5"/>
      <polygon class="cls-213" points="89.88 43.35 89.88 44.5 266.68 44.5 266.68 43.35 89.88 43.35 89.88 43.35"/>
      <polygon class="cls-219" points="89.88 42.15 89.88 43.35 266.68 43.35 266.68 42.15 89.88 42.15 89.88 42.15"/>
      <polygon class="cls-128" points="89.88 46.9 89.88 48.1 266.68 48.1 266.68 46.9 89.88 46.9 89.88 46.9"/>
      <polygon class="cls-117" points="89.88 49.3 89.88 50.45 266.68 50.45 266.68 49.3 89.88 49.3 89.88 49.3"/>
      <polygon class="cls-106" points="89.88 50.45 89.88 51.65 266.68 51.65 266.68 50.45 89.88 50.45 89.88 50.45"/>
      <polygon class="cls-120" points="89.88 48.1 89.88 49.3 266.68 49.3 266.68 48.1 89.88 48.1 89.88 48.1"/>
      <polygon class="cls-123" points="89.88 45.7 89.88 46.9 266.68 46.9 266.68 45.7 89.88 45.7 89.88 45.7"/>
      <polygon class="cls-4" points="89.88 39.75 89.88 40.95 266.68 40.95 266.68 39.75 89.88 39.75 89.88 39.75"/>
      <polygon class="cls-127" points="89.88 52.85 89.88 54.05 266.68 54.05 266.68 52.85 89.88 52.85 89.88 52.85"/>
      <polygon class="cls-192" points="89.88 54.05 89.88 55.25 266.68 55.25 266.68 54.05 89.88 54.05 89.88 54.05"/>
      <polygon class="cls-140" points="89.88 56.4 89.88 57.6 266.68 57.6 266.68 56.4 89.88 56.4 89.88 56.4"/>
      <polygon class="cls-137" points="89.88 55.25 89.88 56.4 266.68 56.4 266.68 55.25 89.88 55.25 89.88 55.25"/>
      <polygon class="cls-188" points="89.88 58.8 89.88 60 266.68 60 266.68 58.8 89.88 58.8 89.88 58.8"/>
      <polygon class="cls-94" points="89.88 60 89.88 61.2 266.68 61.2 266.68 60 89.88 60 89.88 60"/>
      <polygon class="cls-187" points="89.88 62.4 89.88 63.55 266.68 63.55 266.68 62.4 89.88 62.4 89.88 62.4"/>
      <polygon class="cls-74" points="89.88 61.2 89.88 62.4 266.68 62.4 266.68 61.2 89.88 61.2 89.88 61.2"/>
      <polygon class="cls-134" points="89.88 57.6 89.88 58.8 266.68 58.8 266.68 57.6 89.88 57.6 89.88 57.6"/>
      <polygon class="cls-154" points="89.88 65.95 89.88 67.15 266.68 67.15 266.68 65.95 89.88 65.95 89.88 65.95"/>
      <polygon class="cls-65" points="89.88 64.75 89.88 65.95 266.68 65.95 266.68 64.75 89.88 64.75 89.88 64.75"/>
      <polygon class="cls-96" points="89.88 69.5 89.88 70.7 266.68 70.7 266.68 69.5 89.88 69.5 89.88 69.5"/>
      <polygon class="cls-156" points="89.88 68.35 89.88 69.5 266.68 69.5 266.68 68.35 89.88 68.35 89.88 68.35"/>
      <polygon class="cls-42" points="89.88 67.15 89.88 68.35 266.68 68.35 266.68 67.15 89.88 67.15 89.88 67.15"/>
      <polygon class="cls-30" points="89.88 71.9 89.88 73.1 266.68 73.1 266.68 71.9 89.88 71.9 89.88 71.9"/>
      <polygon class="cls-21" points="89.88 74.3 89.88 75.45 266.68 75.45 266.68 74.3 89.88 74.3 89.88 74.3"/>
      <polygon class="cls-71" points="89.88 75.45 89.88 76.65 266.68 76.65 266.68 75.45 89.88 75.45 89.88 75.45"/>
      <polygon class="cls-44" points="89.88 73.1 89.88 74.3 266.68 74.3 266.68 73.1 89.88 73.1 89.88 73.1"/>
      <polygon class="cls-224" points="89.88 70.7 89.88 71.9 266.68 71.9 266.68 70.7 89.88 70.7 89.88 70.7"/>
      <polygon class="cls-169" points="89.88 63.55 89.88 64.75 266.68 64.75 266.68 63.55 89.88 63.55 89.88 63.55"/>
      <polygon class="cls-197" points="89.88 51.65 89.88 52.85 266.68 52.85 266.68 51.65 89.88 51.65 89.88 51.65"/>
      <polygon class="cls-111" points="89.88 26.65 89.88 27.85 266.68 27.85 266.68 26.65 89.88 26.65 89.88 26.65"/>
      <polygon class="cls-47" points="266.68 76.65 89.88 76.65 89.88 77.85 266.68 77.85 266.68 76.65 266.68 76.65"/>
      <polygon class="cls-11" points="266.68 91.35 266.68 81.45 89.88 81.45 89.88 91.35 266.68 91.35 266.68 91.35"/>
      <polygon class="cls-24" points="266.68 81.45 266.68 80.25 89.88 80.25 89.88 81.45 266.68 81.45 266.68 81.45"/>
      <polygon class="cls-92" points="266.68 80.25 266.68 79.05 89.88 79.05 89.88 80.25 266.68 80.25 266.68 80.25"/>
      <polygon class="cls-50" points="266.68 79.05 266.68 77.85 89.88 77.85 89.88 79.05 266.68 79.05 266.68 79.05"/>
      <polyline class="cls-1" points="89.88 14.3 89.88 91.35 266.68 91.35 266.68 14.3 89.88 14.3"/>
      <polygon class="cls-200" points="231.33 31.25 231.08 31.55 231.03 31.95 231.03 71 198.23 71 198.23 31.95 198.13 31.55 197.93 31.25 197.58 31 197.28 30.95 196.88 31 196.58 31.25 196.33 31.55 196.28 31.95 196.28 83.2 196.33 83.55 196.58 83.9 196.88 84.05 197.28 84.15 197.58 84.05 197.73 83.95 197.93 83.9 198.03 83.7 198.13 83.55 198.18 83.35 198.18 83.25 198.18 83.2 198.23 83.2 198.23 73 231.03 73 231.03 83.2 231.08 83.55 231.33 83.9 231.63 84.05 232.03 84.15 232.03 84.1 232.08 84.1 232.18 84.1 232.38 84.05 232.53 83.95 232.73 83.9 232.78 83.7 232.88 83.55 232.93 83.35 232.93 83.25 232.93 83.2 232.98 83.2 232.98 31.95 232.88 31.55 232.73 31.25 232.38 31 232.03 30.95 231.63 31 231.33 31.25 231.33 31.25"/>
      <polygon class="cls-200" points="222.78 46.95 222.88 46.75 222.98 46.6 223.03 46.4 223.03 46.3 223.03 46.25 223.08 46.25 222.98 45.9 222.78 45.6 222.43 45.35 222.08 45.3 206.08 45.3 205.73 45.35 205.43 45.6 205.18 45.9 205.13 46.25 205.18 46.6 205.43 46.95 205.73 47.15 206.08 47.25 222.08 47.25 222.08 47.2 222.13 47.2 222.23 47.2 222.43 47.15 222.58 47.05 222.78 46.95 222.78 46.95"/>
      <polygon class="cls-222" points="89.38 6.7 81.03 6.7 81.03 144.35 89.38 144.35 89.38 6.7 89.38 6.7"/>
      <polyline class="cls-1" points="81.03 6.7 81.03 144.35 89.38 144.35 89.38 6.7 81.03 6.7"/>
      <polygon class="cls-118" points="289.28 54.8 289.28 60.65 270.63 60.65 270.63 54.8 289.28 54.8 289.28 54.8"/>
      <polyline class="cls-1" points="289.28 60.65 270.63 60.65 270.63 54.8 289.28 54.8 289.28 60.65"/>
      <polygon class="cls-222" points="272.83 6.7 264.48 6.7 264.48 144.35 272.83 144.35 272.83 6.7 272.83 6.7"/>
      <polyline class="cls-1" points="264.48 6.7 264.48 144.35 272.83 144.35 272.83 6.7 264.48 6.7"/>
      <polygon class="cls-133" points="284.78 48.7 284.48 48.35 277.03 48.35 276.88 48.5 276.83 48.7 284.78 48.7 284.78 48.7"/>
      <polygon class="cls-141" points="284.48 48.35 283.98 47.95 277.58 47.95 277.23 48.15 277.03 48.35 284.48 48.35 284.48 48.35"/>
      <polygon class="cls-174" points="283.58 47.75 283.38 47.65 278.08 47.65 277.88 47.75 277.58 47.95 283.98 47.95 283.58 47.75 283.58 47.75"/>
      <polygon class="cls-196" points="284.88 50.2 284.88 49.8 276.73 49.8 276.73 50.2 284.88 50.2 284.88 50.2"/>
      <polygon class="cls-139" points="284.88 49.8 284.88 49.4 276.73 49.4 276.73 49.8 284.88 49.8 284.88 49.8"/>
      <polygon class="cls-113" points="284.88 49.4 284.88 49.1 276.73 49.1 276.73 49.4 284.88 49.4 284.88 49.4"/>
      <polygon class="cls-135" points="284.88 49.1 284.78 48.7 276.83 48.7 276.68 48.9 276.73 49.1 284.88 49.1 284.88 49.1"/>
      <polygon class="cls-124" points="284.88 51.25 284.88 50.9 276.73 50.9 276.73 51.25 284.88 51.25 284.88 51.25"/>
      <polygon class="cls-143" points="284.88 50.9 284.88 50.6 276.73 50.6 276.73 50.9 284.88 50.9 284.88 50.9"/>
      <polygon class="cls-100" points="284.88 52.05 284.88 51.65 276.73 51.65 276.73 52.05 284.88 52.05 284.88 52.05"/>
      <polygon class="cls-190" points="284.88 51.65 284.88 51.25 276.73 51.25 276.73 51.65 284.88 51.65 284.88 51.65"/>
      <polygon class="cls-100" points="284.88 53.55 284.88 53.15 276.73 53.15 276.73 53.55 284.88 53.55 284.88 53.55"/>
      <polygon class="cls-105" points="284.88 53.15 284.88 52.75 276.73 52.75 276.73 53.15 284.88 53.15 284.88 53.15"/>
      <polygon class="cls-121" points="284.88 52.75 284.88 52.35 276.73 52.35 276.73 52.75 284.88 52.75 284.88 52.75"/>
      <polygon class="cls-105" points="284.88 52.35 284.88 52.05 276.73 52.05 276.73 52.35 284.88 52.35 284.88 52.35"/>
      <polygon class="cls-189" points="284.88 50.6 284.88 50.2 276.73 50.2 276.73 50.6 284.88 50.6 284.88 50.6"/>
      <polygon class="cls-184" points="284.88 55 284.88 54.6 276.73 54.6 276.73 55 284.88 55 284.88 55"/>
      <polygon class="cls-131" points="284.88 54.6 284.88 54.2 276.73 54.2 276.73 54.6 284.88 54.6 284.88 54.6"/>
      <polygon class="cls-126" points="284.88 54.2 284.88 53.8 276.73 53.8 276.73 54.2 284.88 54.2 284.88 54.2"/>
      <polygon class="cls-142" points="284.88 56.45 284.88 56.1 276.73 56.1 276.73 56.45 284.88 56.45 284.88 56.45"/>
      <polygon class="cls-116" points="284.88 56.1 284.88 55.7 276.73 55.7 276.73 56.1 284.88 56.1 284.88 56.1"/>
      <polygon class="cls-139" points="284.88 55.7 284.88 55.3 276.73 55.3 276.73 55.7 284.88 55.7 284.88 55.7"/>
      <polygon class="cls-179" points="284.88 55.3 284.88 55 276.73 55 276.73 55.3 284.88 55.3 284.88 55.3"/>
      <polygon class="cls-129" points="284.88 57.15 284.88 56.75 276.73 56.75 276.73 57.15 284.88 57.15 284.88 57.15"/>
      <polygon class="cls-176" points="284.88 57.55 284.88 57.15 276.73 57.15 276.73 57.55 284.88 57.55 284.88 57.55"/>
      <polygon class="cls-185" points="284.88 57.95 284.88 57.55 276.73 57.55 276.73 57.95 284.88 57.95 284.88 57.95"/>
      <polygon class="cls-193" points="284.88 59.4 284.88 59.05 276.73 59.05 276.73 59.4 284.88 59.4 284.88 59.4"/>
      <polygon class="cls-172" points="284.88 59.05 284.88 58.65 276.73 58.65 276.73 59.05 284.88 59.05 284.88 59.05"/>
      <polygon class="cls-163" points="284.88 58.65 284.88 58.25 276.73 58.25 276.73 58.65 284.88 58.65 284.88 58.65"/>
      <polygon class="cls-161" points="284.88 58.25 284.88 57.95 276.73 57.95 276.73 58.25 284.88 58.25 284.88 58.25"/>
      <polygon class="cls-144" points="284.88 56.75 284.88 56.45 276.73 56.45 276.73 56.75 284.88 56.75 284.88 56.75"/>
      <polygon class="cls-198" points="284.88 53.8 284.88 53.55 276.73 53.55 276.73 53.8 284.88 53.8 284.88 53.8"/>
      <polygon class="cls-176" points="278.08 47.65 283.38 47.65 282.73 47.4 282.13 47.25 281.43 47.15 280.73 47.15 279.98 47.15 279.33 47.25 278.08 47.65 278.08 47.65"/>
      <polygon class="cls-23" points="276.73 60.5 276.73 60.9 284.88 60.9 284.88 60.5 276.73 60.5 276.73 60.5"/>
      <polygon class="cls-72" points="276.73 60.1 276.73 60.5 284.88 60.5 284.88 60.1 276.73 60.1 276.73 60.1"/>
      <polygon class="cls-181" points="276.73 59.7 276.73 60.1 284.88 60.1 284.88 59.7 276.73 59.7 276.73 59.7"/>
      <polygon class="cls-148" points="276.73 61.2 276.73 61.6 284.88 61.6 284.88 61.2 276.73 61.2 276.73 61.2"/>
      <polygon class="cls-54" points="276.73 61.95 276.73 62.35 284.88 62.35 284.88 61.95 276.73 61.95 276.73 61.95"/>
      <polygon class="cls-79" points="276.73 62.35 276.73 62.65 284.88 62.65 284.88 62.35 276.73 62.35 276.73 62.35"/>
      <polygon class="cls-40" points="276.73 61.6 276.73 61.95 284.88 61.95 284.88 61.6 276.73 61.6 276.73 61.6"/>
      <polygon class="cls-151" points="276.73 60.9 276.73 61.2 284.88 61.2 284.88 60.9 276.73 60.9 276.73 60.9"/>
      <polygon class="cls-149" points="276.73 63.05 276.73 63.45 284.88 63.45 284.88 63.05 276.73 63.05 276.73 63.05"/>
      <polygon class="cls-157" points="276.73 63.45 276.73 63.85 284.88 63.85 284.88 63.45 276.73 63.45 276.73 63.45"/>
      <polygon class="cls-158" points="276.73 63.85 276.73 64.15 284.88 64.15 284.88 63.85 276.73 63.85 276.73 63.85"/>
      <polygon class="cls-20" points="276.73 65.3 276.73 65.6 284.88 65.6 284.88 65.3 276.73 65.3 276.73 65.3"/>
      <polygon class="cls-27" points="276.73 64.9 276.73 65.3 284.88 65.3 284.88 64.9 276.73 64.9 276.73 64.9"/>
      <polygon class="cls-46" points="276.73 64.55 276.73 64.9 284.88 64.9 284.88 64.55 276.73 64.55 276.73 64.55"/>
      <polygon class="cls-28" points="276.73 64.15 276.73 64.55 284.88 64.55 284.88 64.15 276.73 64.15 276.73 64.15"/>
      <polygon class="cls-97" points="276.73 62.65 276.73 63.05 284.88 63.05 284.88 62.65 276.73 62.65 276.73 62.65"/>
      <polygon class="cls-18" points="276.73 66.8 276.73 67.1 284.88 67.1 284.88 66.8 276.73 66.8 276.73 66.8"/>
      <polygon class="cls-58" points="276.73 66.4 276.73 66.8 284.88 66.8 284.88 66.4 276.73 66.4 276.73 66.4"/>
      <polygon class="cls-60" points="276.73 66 276.73 66.4 284.88 66.4 284.88 66 276.73 66 276.73 66"/>
      <polygon class="cls-13" points="276.73 68.25 276.73 68.4 276.83 68.55 284.78 68.55 284.78 68.4 284.88 68.25 276.73 68.25 276.73 68.25"/>
      <polygon class="cls-84" points="276.73 68.15 276.73 68.25 284.88 68.25 284.88 68.15 284.88 67.85 276.73 67.85 276.73 68.15 276.73 68.15"/>
      <polygon class="cls-93" points="276.73 67.45 276.73 67.85 284.88 67.85 284.88 67.45 276.73 67.45 276.73 67.45"/>
      <polygon class="cls-16" points="276.73 67.1 276.73 67.45 284.88 67.45 284.88 67.1 276.73 67.1 276.73 67.1"/>
      <polygon class="cls-12" points="276.83 68.55 276.88 68.75 277.03 68.95 284.48 68.95 284.78 68.55 276.83 68.55 276.83 68.55"/>
      <polygon class="cls-51" points="276.73 65.6 276.73 66 284.88 66 284.88 65.6 276.73 65.6 276.73 65.6"/>
      <polygon class="cls-166" points="277.88 69.55 278.38 69.75 283.08 69.75 283.58 69.55 283.98 69.35 277.58 69.35 277.88 69.55 277.88 69.55"/>
      <polygon class="cls-166" points="278.38 69.75 279.43 70 280.03 70.05 280.73 70.1 281.33 70.05 281.93 70 282.18 69.9 282.48 69.85 283.08 69.75 278.38 69.75 278.38 69.75"/>
      <polygon class="cls-87" points="283.98 69.35 284.48 68.95 277.03 68.95 277.23 69.15 277.58 69.35 283.98 69.35 283.98 69.35"/>
      <polygon class="cls-173" points="276.73 59.7 284.88 59.7 284.88 59.4 276.73 59.4 276.73 59.7 276.73 59.7"/>
      <polyline class="cls-1" points="280.73 47.15 279.88 47.15 279.18 47.3 278.48 47.45 277.88 47.75 277.28 48.05 276.93 48.35 276.73 48.7 276.73 49.1 276.73 68.15 276.68 68.3 276.73 68.5 276.93 68.9 277.28 69.2 277.53 69.35 277.88 69.55 278.48 69.75 279.18 69.95 279.88 70.05 280.73 70.1 280.73 70.05 280.78 70.05 280.88 70.05 281.08 70.05 281.48 70.05 282.23 69.95 282.88 69.75 283.58 69.55 283.83 69.35 284.13 69.2 284.53 68.9 284.78 68.5 284.83 68.3 284.83 68.2 284.83 68.15 284.88 68.15 284.88 49.1 284.78 48.7 284.53 48.35 284.13 48.05 283.58 47.75 282.88 47.45 282.23 47.3 281.48 47.15 280.73 47.15"/>
      <polygon class="cls-200" points="120.88 31.95 120.78 31.55 120.58 31.25 120.23 31 119.88 30.95 119.48 31 119.23 31.25 118.98 31.55 118.93 31.95 118.93 83.2 118.98 83.55 119.23 83.9 119.48 84.05 119.88 84.15 119.88 84.1 119.93 84.1 120.03 84.1 120.23 84.05 120.38 83.95 120.58 83.9 120.68 83.7 120.78 83.55 120.83 83.35 120.83 83.25 120.83 83.2 120.88 83.2 120.88 73 153.68 73 153.68 83.2 153.73 83.55 153.98 83.9 154.28 84.05 154.63 84.15 154.63 84.1 154.68 84.1 154.78 84.1 154.98 84.05 155.13 83.95 155.33 83.9 155.43 83.7 155.53 83.55 155.58 83.35 155.58 83.25 155.58 83.2 155.63 83.2 155.63 31.95 155.53 31.55 155.33 31.25 154.98 31 154.63 30.95 154.28 31 153.98 31.25 153.73 31.55 153.68 31.95 153.68 71 120.88 71 120.88 31.95 120.88 31.95"/>
      <polygon class="cls-200" points="127.73 46.25 127.78 46.6 128.03 46.95 128.33 47.15 128.73 47.25 144.73 47.25 144.73 47.2 144.78 47.2 144.88 47.2 145.08 47.15 145.23 47.05 145.43 46.95 145.53 46.75 145.63 46.6 145.68 46.4 145.68 46.3 145.68 46.25 145.73 46.25 145.63 45.9 145.43 45.6 145.08 45.35 144.73 45.3 128.73 45.3 128.33 45.35 128.03 45.6 127.78 45.9 127.73 46.25 127.73 46.25"/>
      <path class="cls-200" d="M126.88,24.15l-.75-.7-.7-.6-1.45-.8-.6-.3-.55-.2-1.1-.3-1.2-.2-1.2-.05-1.3,.05-1.15,.2-1.15,.3-1.05,.5-1.45,.8-1.2,1-.3,.3-.85,.85-.65,1-.65,1.1-.45,1.2-.35,1.25-.15,1.35-.05,.85,.05,.8,.05,.9,.2,.95,.25,.85,.35,.9,.4,.8,.55,.8,.55,.75,.75,.8,.7,.65,.8,.65,1.45,.85,1.05,.4,1.15,.35,1.15,.15,1.3,.1,1.2-.1,1.2-.15,1.1-.35,.55-.2,.6-.2,1.45-.85,.1-.1,.3-.3,.05-.1,.1-.05,.2-.1,.7-.65,.25-.2,.15-.15,.25-.4,.3-.35,.5-.7,.45-.8,.4-.75,.3-.85,.25-.8,.15-.9v-.25l.05-.2,.1-.4,.05-.8-.05-.85-.15-1-.2-.9-.25-.9-.35-.85-.45-.85-.5-.8-.6-.75-.65-.7h0Zm-7.55-2.05l1.05,.05,1.05,.15,1,.25,1,.45-3.75,6.4-.2-.05-.15,.05h-.35l-3.75-6.45,.9-.4,1-.25,1.05-.15,1.15-.05h0Zm-9.6,8.8l.05-.9,.2-.8,.55-1.55,.8-1.45,.5-.7,.65-.6,1.3-1.1,3.7,6.45-.35,.65h-7.4Zm4.05,8.75l-1.3-1.1-.65-.7-.5-.65-.45-.75-.35-.7-.35-.8-.2-.75-.2-.85-.05-.8h7.35l.15,.35,.25,.35-3.7,6.4h0Zm12.35-14.75l.55,.6,.55,.7,.45,.7,.4,.75,.3,.75,.25,.8,.15,.8,.15,.9h-7.4l-.15-.35-.2-.3,3.65-6.4,.65,.45,.65,.6h0Zm-6.8,9.2h.4l3.7,6.4-1,.35-1,.3h-.45l-.1,.05-.5,.1h-.45l-.1,.05-.5,.05-1.15-.1-1.05-.15-1-.3-.9-.35,3.75-6.4h.35Zm1.85-.85l.4-.7h7.35l-.15,.8-.1,.4-.05,.2v.25l-.1,.15-.05,.2-.1,.4-.3,.8-.4,.7-.1,.05-.05,.1-.1,.2-.2,.4-.3,.3-.1,.05-.05,.1-.1,.2-.55,.7-.2,.1-.1,.05-.05,.1-.3,.3-.6,.55-3.7-6.4h0Z"/>
      <path class="cls-200" d="M162.18,24.15l-.75-.7-.7-.6-1.45-.8-.6-.3-.55-.2-1.1-.3-1.2-.2-1.2-.05-1.3,.05-1.15,.2-1.15,.3-1.05,.5-1.45,.8-1.2,1-.3,.3-.85,.85-.65,1-.65,1.1-.45,1.2-.35,1.25-.15,1.35-.05,.85,.05,.8,.05,.9,.2,.95,.25,.85,.35,.9,.4,.8,.55,.8,.55,.75,.75,.8,.7,.65,.8,.65,1.45,.85,1.05,.4,1.15,.35,1.15,.15,1.3,.1,1.2-.1,1.2-.15,1.1-.35,.55-.2,.6-.2,1.45-.85,.1-.1,.3-.3,.05-.1,.1-.05,.2-.1,.7-.65,.25-.2,.15-.15,.25-.4,.3-.35,.5-.7,.45-.8,.4-.75,.3-.85,.25-.8,.15-.9v-.25l.05-.2,.1-.4,.05-.8-.05-.85-.15-1-.2-.9-.25-.9-.35-.85-.45-.85-.5-.8-.6-.75-.65-.7h0Zm-7.55-2.05l1.05,.05,1.05,.15,1,.25,1,.45-3.75,6.4-.2-.05-.15,.05h-.35l-3.75-6.45,.9-.4,1-.25,1.05-.15,1.15-.05h0Zm-9.6,8.8l.05-.9,.2-.8,.55-1.55,.8-1.45,.5-.7,.65-.6,1.3-1.1,3.7,6.45-.35,.65h-7.4Zm4.05,8.75l-1.3-1.1-.65-.7-.5-.65-.45-.75-.35-.7-.35-.8-.2-.75-.2-.85-.05-.8h7.35l.15,.35,.25,.35-3.7,6.4h0Zm12.35-14.75l.55,.6,.55,.7,.45,.7,.4,.75,.3,.75,.25,.8,.15,.8,.15,.9h-7.4l-.15-.35-.2-.3,3.65-6.4,.65,.45,.65,.6h0Zm-4.95,8.35l.4-.7h7.35l-.15,.8-.1,.4-.05,.2v.25l-.1,.15-.05,.2-.1,.4-.3,.8-.4,.7-.1,.05-.05,.1-.1,.2-.2,.4-.3,.3-.1,.05-.05,.1-.1,.2-.55,.7-.2,.1-.1,.05-.05,.1-.3,.3-.6,.55-3.7-6.4h0Zm-1.85,.85h.4l3.7,6.4-1,.35-1,.3h-.45l-.1,.05-.5,.1h-.45l-.1,.05-.5,.05-1.15-.1-1.05-.15-1-.3-.9-.35,3.75-6.4h.35Z"/>
      <path class="cls-200" d="M205.13,24.15l-.75-.7-.7-.6-1.45-.8-.6-.3-.55-.2-1.1-.3-1.2-.2-1.2-.05-1.3,.05-1.15,.2-1.15,.3-1.05,.5-1.45,.8-1.2,1-.3,.3-.85,.85-.65,1-.65,1.1-.45,1.2-.35,1.25-.15,1.35-.05,.85,.05,.8,.05,.9,.2,.95,.25,.85,.35,.9,.4,.8,.55,.8,.55,.75,.75,.8,.7,.65,.8,.65,1.45,.85,1.05,.4,1.15,.35,1.15,.15,1.3,.1,1.2-.1,1.2-.15,1.1-.35,.55-.2,.6-.2,1.45-.85,.1-.1,.3-.3,.05-.1,.1-.05,.2-.1,.7-.65,.25-.2,.15-.15,.25-.4,.3-.35,.5-.7,.45-.8,.4-.75,.3-.85,.25-.8,.15-.9v-.25l.05-.2,.1-.4,.05-.8-.05-.85-.15-1-.2-.9-.25-.9-.35-.85-.45-.85-.5-.8-.6-.75-.65-.7h0Zm-7.55-2.05l1.05,.05,1.05,.15,1,.25,1,.45-3.75,6.4-.2-.05-.15,.05h-.35l-3.75-6.45,.9-.4,1-.25,1.05-.15,1.15-.05h0Zm-9.6,8.8l.05-.9,.2-.8,.55-1.55,.8-1.45,.5-.7,.65-.6,1.3-1.1,3.7,6.45-.35,.65h-7.4Zm4.05,8.75l-1.3-1.1-.65-.7-.5-.65-.45-.75-.35-.7-.35-.8-.2-.75-.2-.85-.05-.8h7.35l.15,.35,.25,.35-3.7,6.4h0Zm12.35-14.75l.55,.6,.55,.7,.45,.7,.4,.75,.3,.75,.25,.8,.15,.8,.15,.9h-7.4l-.15-.35-.2-.3,3.65-6.4,.65,.45,.65,.6h0Zm-6.8,9.2h.4l3.7,6.4-1,.35-1,.3h-.45l-.1,.05-.5,.1h-.45l-.1,.05-.5,.05-1.15-.1-1.05-.15-1-.3-.9-.35,3.75-6.4h.35Zm1.85-.85l.4-.7h7.35l-.15,.8-.1,.4-.05,.2v.25l-.1,.15-.05,.2-.1,.4-.3,.8-.4,.7-.1,.05-.05,.1-.1,.2-.2,.4-.3,.3-.1,.05-.05,.1-.1,.2-.55,.7-.2,.1-.1,.05-.05,.1-.3,.3-.6,.55-3.7-6.4h0Z"/>
      <path class="cls-200" d="M239.78,24.15l-.75-.7-.7-.6-1.45-.8-.6-.3-.55-.2-1.1-.3-1.2-.2-1.2-.05-1.3,.05-1.15,.2-1.15,.3-1.05,.5-1.45,.8-1.2,1-.3,.3-.85,.85-.65,1-.65,1.1-.45,1.2-.35,1.25-.15,1.35-.05,.85,.05,.8,.05,.9,.2,.95,.25,.85,.35,.9,.4,.8,.55,.8,.55,.75,.75,.8,.7,.65,.8,.65,1.45,.85,1.05,.4,1.15,.35,1.15,.15,1.3,.1,1.2-.1,1.2-.15,1.1-.35,.55-.2,.6-.2,1.45-.85,.1-.1,.3-.3,.05-.1,.1-.05,.2-.1,.7-.65,.25-.2,.15-.15,.25-.4,.3-.35,.5-.7,.45-.8,.4-.75,.3-.85,.25-.8,.15-.9v-.25l.05-.2,.1-.4,.05-.8-.05-.85-.15-1-.2-.9-.25-.9-.35-.85-.45-.85-.5-.8-.6-.75-.65-.7h0Zm-7.55-2.05l1.05,.05,1.05,.15,1,.25,1,.45-3.75,6.4-.2-.05-.15,.05h-.35l-3.75-6.45,.9-.4,1-.25,1.05-.15,1.15-.05h0Zm-9.6,8.8l.05-.9,.2-.8,.55-1.55,.8-1.45,.5-.7,.65-.6,1.3-1.1,3.7,6.45-.35,.65h-7.4Zm4.05,8.75l-1.3-1.1-.65-.7-.5-.65-.45-.75-.35-.7-.35-.8-.2-.75-.2-.85-.05-.8h7.35l.15,.35,.25,.35-3.7,6.4h0Zm12.35-14.75l.55,.6,.55,.7,.45,.7,.4,.75,.3,.75,.25,.8,.15,.8,.15,.9h-7.4l-.15-.35-.2-.3,3.65-6.4,.65,.45,.65,.6h0Zm-4.95,8.35l.4-.7h7.35l-.15,.8-.1,.4-.05,.2v.25l-.1,.15-.05,.2-.1,.4-.3,.8-.4,.7-.1,.05-.05,.1-.1,.2-.2,.4-.3,.3-.1,.05-.05,.1-.1,.2-.55,.7-.2,.1-.1,.05-.05,.1-.3,.3-.6,.55-3.7-6.4h0Zm-1.85,.85h.4l3.7,6.4-1,.35-1,.3h-.45l-.1,.05-.5,.1h-.45l-.1,.05-.5,.05-1.15-.1-1.05-.15-1-.3-.9-.35,3.75-6.4h.35Z"/>
    </g>
  </g>
</svg>